<?xml version="1.0" encoding="UTF-8"?>
<svg xmlns="http://www.w3.org/2000/svg" xmlns:xlink="http://www.w3.org/1999/xlink" viewBox="0 0 32 32">
  <defs>
    <linearGradient id="linear-gradient" x1="2" y1="16" x2="30" y2="16" gradientUnits="userSpaceOnUse">
      <stop offset="0" stop-color="#ae150b"/>
      <stop offset="1" stop-color="#f33e41"/>
    </linearGradient>
    <linearGradient id="linear-gradient-2" x1="3" x2="29" xlink:href="#linear-gradient"/>
    <linearGradient id="linear-gradient-3" x1="24.51" y1="7.48" x2="26.59" y2="7.48" gradientTransform="translate(4.69 -8.88) rotate(22.19)" gradientUnits="userSpaceOnUse">
      <stop offset="0" stop-color="#fff"/>
      <stop offset=".12" stop-color="#fdeeee"/>
      <stop offset=".37" stop-color="#fac2c3"/>
      <stop offset=".71" stop-color="#f47c7e"/>
      <stop offset="1" stop-color="#f03c3f"/>
    </linearGradient>
  </defs>
  <g id="nen">
    <rect width="32" height="32" rx="7" ry="7" style="fill: #fff;"/>
  </g>
  <g id="trai_tim" data-name="trai tim">
    <path d="M27.54,4.67c-3.17-3.45-8.26-3.56-11.54-.31-1.59-1.58-3.59-2.36-5.61-2.36-2.15,0-4.29.89-5.93,2.67-3.18,3.44-3.28,8.94-.29,12.51.08.12.18.24.29.35l11.21,12.16c.11.11.21.23.33.31.12-.08.22-.2.32-.31l11.22-12.16c.1-.11.21-.23.29-.35,1.45-1.72,2.17-3.91,2.17-6.08,0-2.33-.82-4.66-2.46-6.43ZM27.4,17.14c-.07.12-.17.23-.27.34l-10.82,11.72c-.1.11-.2.22-.31.3-.11-.08-.21-.19-.31-.3l-10.82-11.72c-.1-.11-.2-.22-.28-.34-2.88-3.45-2.78-8.75.28-12.07,1.58-1.71,3.65-2.57,5.72-2.57,1.95,0,3.88.75,5.41,2.27,3.16-3.13,8.07-3.02,11.13.3,1.58,1.71,2.37,3.96,2.37,6.2,0,2.1-.69,4.21-2.1,5.87Z" style="fill: url(#linear-gradient);"/>
    <path d="M27.13,5.07c-3.06-3.32-7.97-3.43-11.13-.3-1.53-1.52-3.46-2.27-5.41-2.27-2.07,0-4.14.86-5.72,2.57-3.06,3.32-3.16,8.62-.28,12.07.08.12.18.23.28.34l10.82,11.72c.1.11.2.22.31.3.11-.08.21-.19.31-.3l10.82-11.72c.1-.11.2-.22.27-.34,1.41-1.66,2.1-3.77,2.1-5.87,0-2.24-.79-4.49-2.37-6.2ZM26.98,17.09c-.07.12-.17.23-.26.33l-10.42,11.29c-.1.11-.19.21-.3.29-.11-.08-.21-.18-.3-.29l-10.42-11.29c-.09-.1-.19-.21-.26-.33-2.78-3.31-2.69-8.42.26-11.61,1.53-1.65,3.52-2.48,5.51-2.48,1.87,0,3.74.72,5.21,2.19,3.04-3.02,7.77-2.91,10.72.29,1.52,1.65,2.28,3.81,2.28,5.97,0,2.02-.66,4.05-2.02,5.64Z" style="fill: #fff;"/>
    <path d="M29,11.45c0,2.02-.66,4.05-2.02,5.64-.07.12-.17.23-.26.33l-10.42,11.29c-.1.11-.19.21-.3.29-.11-.08-.21-.18-.3-.29l-10.42-11.29c-.09-.1-.19-.21-.26-.33-2.78-3.31-2.69-8.42.26-11.61,1.53-1.65,3.52-2.48,5.51-2.48,1.87,0,3.74.72,5.21,2.19,3.04-3.02,7.77-2.91,10.72.29,1.52,1.65,2.28,3.81,2.28,5.97Z" style="fill: url(#linear-gradient-2);"/>
  </g>
  <g id="trai_tim_nho" data-name="trai tim nho">
    <path d="M22.96,4.9c-.14-.08-.3-.03-.36.12-.07-.04-.14-.04-.2-.02-.07.02-.12.08-.15.16-.05.15.01.34.15.43,0,0,0,0,.01,0l.49.29s0,0,.01,0c0,0,0,0,0-.01l.19-.54s0-.01,0-.02c.02-.08.02-.16,0-.23-.03-.08-.08-.15-.15-.19ZM23.11,5.33s0,.01,0,.01l-.18.52s0,0,0,.01c0,0,0,0-.01,0l-.47-.28s0,0-.01,0c-.13-.09-.19-.27-.14-.41.03-.08.08-.13.14-.15.06-.02.13-.02.19.02.06-.14.21-.19.34-.11.07.04.12.11.15.19.03.07.03.15,0,.22Z" style="fill: #fff;"/>
    <path d="M26.6,7.81c-.05.12-.15.23-.29.28,0,0-.02,0-.03.01l-1.05.37s-.02,0-.03,0c0,0-.01-.02-.02-.03l-.49-1s0-.02-.01-.03c-.12-.29.01-.6.31-.7.15-.05.32-.05.47.02.14.06.26.16.33.29.3-.09.65.06.79.34.07.15.07.3.02.43Z" style="fill: url(#linear-gradient-3);"/>
  </g>
  <g id="Layer_7_copy" data-name="Layer 7 copy">
    <g>
      <path d="M21.51,25.51c.08-.07.17-.1.27-.09.09,0,.18.05.26.14.04.04.07.08.1.12.06.11.13.28.2.5.07.22.15.51.23.85,0,.03.01.05.03.06,0,0,.01,0,.02,0,.01-.01.01-.04,0-.08-.01-.15-.02-.31-.02-.48,0-.17,0-.35,0-.55.02-.53.09-.88.22-1.06.02-.03.04-.05.07-.05.03,0,.06,0,.1,0,.05,0,.09,0,.11.03.03.02.05.04.07.06.01,0,.02.02.03.03,0,0,.01.02.02.03.05.17.09.33.13.49.04.16.09.33.14.49.02.08.06.19.1.33.04.13.1.28.15.44.06.16.12.32.18.48.07.16.13.31.19.44.06.13.12.25.18.33.05.09.1.14.14.15.01,0,.02.01.03.02,0,.01.01.02.02.03.05.05.08.06.11.03.07-.07.11-.28.12-.62,0-.04,0-.06,0-.06,0,0,.01,0,.01,0,0,0,.01.03.02.06.02.07.01.18,0,.33-.02.16-.06.26-.1.31-.02.02-.04.03-.06.03-.03,0-.05,0-.08,0-.03,0-.05-.01-.08-.03-.02-.01-.04-.03-.06-.04-.02-.03-.06-.09-.11-.18-.05-.09-.11-.2-.17-.33-.06-.13-.13-.27-.2-.42-.07-.15-.14-.3-.2-.45-.06-.15-.12-.28-.17-.41-.05-.13-.09-.23-.12-.31l-.34-1.06s-.04-.09-.06-.12c-.03-.03-.07-.03-.11.01-.02.03-.05.06-.07.12-.09.21-.15.52-.17.92,0,.17,0,.33,0,.5,0,.17.01.34.03.52.01.15.03.28.04.39.01.11.03.19.04.26,0,.04,0,.08-.02.1-.02.02-.04.02-.06,0,0,0,0,0-.01-.02,0,0,0-.02-.01-.03-.23-1.04-.42-1.71-.56-1.99-.02-.03-.04-.06-.06-.09-.02-.03-.04-.05-.06-.07-.13-.13-.27-.13-.4-.01-.12.11-.23.33-.33.66-.05.17-.08.33-.11.48-.02.15-.04.31-.04.46,0,.33.05.56.17.67.04.04.09.04.14,0,.03-.02.06-.05.09-.07s.05-.05.07-.08c.02-.02.03-.03.04-.02,0,0,0,.02-.01.05-.04.08-.09.13-.14.17-.09.07-.19.05-.29-.06-.1-.1-.15-.31-.15-.63,0-.16,0-.32.03-.47.02-.16.05-.31.1-.47.05-.17.11-.32.17-.44s.13-.22.21-.29Z" style="fill: blue;"/>
      <path d="M24.69,25.73c-.03-.07-.09-.17-.16-.29-.03-.05-.06-.09-.08-.13-.02-.03-.04-.06-.06-.08-.01.12-.03.25-.07.41-.04.21-.09.36-.14.46,0,.01-.01.02-.02.02-.01.01-.02.02-.04.02-.02,0-.03,0-.04-.02-.02-.03-.06-.2-.14-.49,0,0-.01-.02-.03-.03-.02-.01-.03-.03-.03-.04,0-.01,0-.05.03-.12.03-.07.04-.11.05-.12.02-.02.04-.02.06,0-.02.04-.01.13,0,.28.02.13.04.22.06.3,0,.01.01.02.02.03.01.01.03.02.04,0,.02-.01.03-.02.04-.04.02-.04.04-.1.06-.16.02-.07.04-.14.06-.24.01-.07.02-.13.03-.19s.01-.1.02-.13c0-.02,0-.03,0-.05,0-.02,0-.03.01-.04.02-.02.04-.04.06-.04.02,0,.04,0,.05.02,0,.01,0,.02,0,.03,0,.01,0,.03.01.04.06.11.15.27.25.49.16-.24.33-.45.51-.64.06-.07.12-.11.16-.14.02-.01.04-.02.06-.03.02,0,.05-.01.07-.01.02,0,.05,0,.07,0,.02,0,.04.02.06.03.02.02.03.03.03.05.01.05.01.13,0,.25,0,.02,0,.03-.01.04,0,0,0,0,0,0,0,0,0-.02,0-.04,0-.15-.01-.24-.07-.3-.04-.04-.1-.03-.17.03-.02.02-.04.04-.07.06-.02.02-.05.05-.08.08-.24.24-.41.46-.53.64.65,1.4.72,2.39.21,2.99-.17.2-.4.33-.67.38-.27.05-.48,0-.63-.13-.05-.05-.08-.1-.11-.16-.12-.31-.02-.84.31-1.57.11-.25.24-.5.37-.74.13-.24.28-.48.44-.72ZM23.67,28.75s.02.05.04.08c.02.02.03.05.05.07.13.12.31.16.55.12.25-.05.46-.17.63-.36.3-.33.38-.86.23-1.57-.05-.22-.11-.44-.18-.66-.08-.22-.17-.44-.28-.65-.38.57-.67,1.11-.86,1.63-.24.62-.3,1.07-.18,1.35Z" style="fill: blue;"/>
      <path d="M25.82,24.58c-.21.21-.43.35-.66.42-.25.08-.46.05-.6-.09-.17-.17-.26-.47-.25-.89,0-.37.08-.78.22-1.21.13-.41.28-.72.43-.92.04-.05.08-.1.13-.15.13-.13.24-.2.35-.21v-.07s0-.02.01-.03c.01,0,.02,0,.03,0,0,0,0,.03.01.08.05,0,.11.04.17.1.06.06.11.13.14.21.03.08.05.18.05.3.01.15,0,.3-.05.45,0,0-.02.02-.04.04-.03.02-.05.03-.06.03-.09-.09-.16-.25-.21-.49-.04-.18-.06-.35-.06-.49-.09-.03-.21.03-.35.17-.02.02-.04.04-.06.06-.02.02-.04.05-.06.08-.23.34-.4.8-.5,1.38-.1.61-.07,1.07.1,1.38.03.05.06.09.1.13.12.11.27.15.45.11.21-.05.42-.19.64-.42.12-.13.24-.28.34-.45.1-.16.2-.34.29-.53.08-.18.14-.35.18-.51.04-.16.07-.31.08-.46,0-.02,0-.04.01-.05,0,0,.01,0,.02,0,0,0,0,.02,0,.04,0,.3-.09.64-.25,1.02-.09.2-.18.38-.29.55s-.22.31-.35.44ZM25.73,22.51s.02.02.03.01c.01,0,.02,0,.02-.02.05-.21.04-.4-.03-.58-.01-.04-.03-.07-.05-.1-.02-.03-.04-.06-.07-.08-.04-.04-.09-.07-.13-.08,0,.07,0,.13.01.21,0,.07.03.15.05.24.05.16.1.3.17.4Z" style="fill: blue;"/>
    </g>
    <g>
      <path d="M10.59,17.7c-.17-.04-.38-.1-.63-.17-.3-.09-.54-.15-.73-.19s-.39-.06-.6-.06c-.45,0-.89.12-1.32.35h-.05c-.05-.19-.07-.38-.07-.56,0-.34.09-.67.26-.99.17-.32.38-.62.63-.89.25-.27.59-.62,1.02-1.04.46-.44.82-.82,1.1-1.13.28-.32.52-.66.71-1.04.19-.38.29-.78.29-1.19,0-.46-.07-.82-.22-1.08-.15-.26-.37-.4-.68-.4-.28,0-.51.09-.68.28-.18.19-.26.42-.26.69s.05.51.16.73c.11.21.25.37.41.46v.05c-.14.13-.28.23-.44.3-.16.07-.32.11-.47.11-.25,0-.45-.11-.62-.34s-.25-.53-.25-.91c0-.34.1-.66.29-.97.2-.31.49-.57.87-.77.38-.2.84-.3,1.36-.3.7,0,1.26.19,1.69.58.43.39.64.92.64,1.6,0,.43-.11.83-.33,1.2-.22.37-.49.7-.81.98-.32.29-.75.64-1.28,1.04-.53.4-.95.74-1.26,1.03s-.55.59-.72.91c.23-.06.48-.1.74-.1.19,0,.39.02.6.05s.4.07.59.11c.03,0,.14.03.32.07.18.04.34.05.49.05.22,0,.42-.05.6-.14.18-.09.38-.25.58-.47l.04.02c.1.3.16.54.16.74,0,.28-.07.53-.22.75-.15.22-.35.39-.59.52s-.51.19-.79.19c-.16,0-.33-.02-.5-.06Z" style="fill: #fff;"/>
      <path d="M14.15,20.32c-.26-.2-.38-.49-.38-.86,0-.46.18-.82.55-1.1.37-.28.84-.51,1.4-.69l.14-.65c-.23.26-.47.43-.71.53-.24.1-.48.14-.73.14-.38,0-.69-.12-.93-.36-.24-.24-.35-.6-.35-1.08,0-.2.03-.46.1-.78l.82-3.85h1.73l-.86,4.08c-.02.1-.04.2-.04.3,0,.35.12.53.36.53.21,0,.39-.09.55-.27.16-.18.29-.42.38-.71l.84-3.92h1.73l-1.19,5.57c.38-.13.69-.32.92-.58.23-.26.43-.64.59-1.14h.5c-.22.71-.51,1.23-.88,1.57-.37.33-.78.56-1.25.68l-.18.86c-.16.78-.44,1.31-.83,1.6-.39.29-.84.44-1.33.44-.38,0-.7-.1-.96-.3ZM15.23,19.41c.13-.18.23-.45.3-.79l.07-.35c-.78.29-1.18.63-1.18,1.02,0,.1.04.2.11.28.07.08.17.12.3.12.14,0,.27-.09.4-.28Z" style="fill: #fff;"/>
      <path d="M19.37,17.22c-.3-.31-.46-.8-.46-1.46,0-.59.12-1.21.35-1.87.24-.65.59-1.2,1.06-1.66.47-.45,1.03-.68,1.67-.68.33,0,.57.06.73.17.16.11.24.26.24.44v.08l.13-.64h1.73l-.86,4.08c-.03.12-.05.25-.05.38,0,.16.04.27.11.34s.2.1.38.1c.11,0,.2-.02.26-.05-.18.45-.34.76-.5.94-.16.18-.39.27-.7.27-.33,0-.59-.1-.8-.29-.2-.2-.33-.47-.38-.82-.49.74-1.08,1.12-1.79,1.12-.46,0-.84-.16-1.14-.47ZM21.88,16.25c.2-.19.33-.45.4-.77l.58-2.71c0-.1-.04-.21-.12-.31s-.2-.15-.37-.15c-.32,0-.61.19-.86.56-.26.37-.46.82-.6,1.34-.14.52-.22.99-.22,1.39s.06.66.17.77c.12.11.26.17.43.17.2,0,.4-.09.59-.28Z" style="fill: #fff;"/>
    </g>
  </g>
</svg>