<?xml version="1.0" encoding="UTF-8"?>
<svg xmlns="http://www.w3.org/2000/svg" xmlns:xlink="http://www.w3.org/1999/xlink" viewBox="0 0 32 32">
  <defs>
    <style>
      .cls-1 {
        fill: url(#linear-gradient);
      }

      .cls-1, .cls-2, .cls-3, .cls-4, .cls-5 {
        stroke-width: 0px;
      }

      .cls-2 {
        fill: #fff;
      }

      .cls-3 {
        fill: url(#linear-gradient-2);
      }

      .cls-4 {
        fill: url(#linear-gradient-3);
      }

      .cls-5 {
        fill: blue;
      }
    </style>
    <linearGradient id="linear-gradient" x1="2" y1="16" x2="30" y2="16" gradientUnits="userSpaceOnUse">
      <stop offset="0" stop-color="#fd8f52"/>
      <stop offset="1" stop-color="#ffbd71"/>
    </linearGradient>
    <linearGradient id="linear-gradient-2" x1="11.28" y1="12.09" x2="22.23" y2="12.09" xlink:href="#linear-gradient"/>
    <linearGradient id="linear-gradient-3" x1="3" x2="29" xlink:href="#linear-gradient"/>
  </defs>
  <g id="nen">
    <rect class="cls-2" width="32" height="32" rx="7" ry="7"/>
  </g>
  <g id="trai_tim" data-name="trai tim">
    <path class="cls-1" d="m27.54,4.67c-3.17-3.45-8.26-3.56-11.54-.31-1.59-1.58-3.59-2.36-5.61-2.36-2.15,0-4.29.89-5.93,2.67-3.18,3.44-3.28,8.94-.29,12.51.08.12.18.24.29.35l11.21,12.16c.11.11.21.23.33.31.12-.08.22-.2.32-.31l11.22-12.16c.1-.11.21-.23.29-.35,1.45-1.72,2.17-3.91,2.17-6.08,0-2.33-.82-4.66-2.46-6.43Zm-.14,12.47c-.07.12-.17.23-.27.34l-10.82,11.72c-.1.11-.2.22-.31.3-.11-.08-.21-.19-.31-.3l-10.82-11.72c-.1-.11-.2-.22-.28-.34-2.88-3.45-2.78-8.75.28-12.07,1.58-1.71,3.65-2.57,5.72-2.57,1.95,0,3.88.75,5.41,2.27,3.16-3.13,8.07-3.02,11.13.3,1.58,1.71,2.37,3.96,2.37,6.2,0,2.1-.69,4.21-2.1,5.87Z"/>
    <path class="cls-2" d="m27.13,5.07c-3.06-3.32-7.97-3.43-11.13-.3-1.53-1.52-3.46-2.27-5.41-2.27-2.07,0-4.14.86-5.72,2.57-3.06,3.32-3.16,8.62-.28,12.07.08.12.18.23.28.34l10.82,11.72c.1.11.2.22.31.3.11-.08.21-.19.31-.3l10.82-11.72c.1-.11.2-.22.27-.34,1.41-1.66,2.1-3.77,2.1-5.87,0-2.24-.79-4.49-2.37-6.2Zm-.15,12.02c-.07.12-.17.23-.26.33l-10.42,11.29c-.1.11-.19.21-.3.29-.11-.08-.21-.18-.3-.29l-10.42-11.29c-.09-.1-.19-.21-.26-.33-2.78-3.31-2.69-8.42.26-11.61,1.53-1.65,3.52-2.48,5.51-2.48,1.87,0,3.74.72,5.21,2.19,3.04-3.02,7.77-2.91,10.72.29,1.52,1.65,2.28,3.81,2.28,5.97,0,2.02-.66,4.05-2.02,5.64Z"/>
    <g id="trai_tim_cat_lo" data-name="trai tim cat lo">
      <path class="cls-3" d="m18.03,15.52c-.78,1.07-1.88,1.41-3.16,1.19-.94-.17-1.58-.87-1.69-1.82-.09-.74.03-1.44.27-2.13.04-.13.12-.26.11-.38-.01-.13-.1-.25-.16-.38-.12.06-.29.09-.36.19-.14.22-.21.49-.35.71-.29.46-.83.55-1.24.19-.11-.09-.2-.3-.16-.42.03-.12.24-.28.35-.27.48.08.64-.18.79-.57.27-.67.79-.94,1.39-.82.54.11.9.57.94,1.26.02.34-.03.69-.06,1.04-.02.2-.05.41.22.45.25.04.32-.15.36-.35.03-.2.06-.4.1-.66.53.41,1.07.65,1.69.69.09,0,.21.04.28,0,.13-.08.22-.2.33-.3-.11-.09-.21-.23-.33-.26-.32-.09-.67-.09-.98-.21-.89-.35-1.47-1.33-1.37-2.25.03-.27.1-.52.45-.49.32.03.35.27.32.54-.05.59.2,1.05.68,1.38.16.12.34.17.47-.02.14-.19.03-.33-.13-.45-.67-.53-.56-1.33.21-1.66.14-.06.28-.23.32-.37.33-1.12,1.05-1.8,2.09-1.93.96-.13,1.97.4,2.48,1.29.52.9.44,1.98-.22,2.84-.5.65-1.16,1.09-1.87,1.44-.35.17-.56.43-.74.76-.32.6-.63,1.22-1.03,1.77Z"/>
      <path class="cls-4" d="m26.72,5.48c-2.95-3.2-7.68-3.31-10.72-.29-1.47-1.47-3.34-2.19-5.21-2.19-1.99,0-3.98.83-5.51,2.48-2.95,3.19-3.04,8.3-.26,11.61.07.12.17.23.26.33l6.07,6.58c0-.61.03-1.46.01-2.06,0-.13-.08-.3-.19-.38-.53-.45-1.12-.84-1.63-1.31-.35-.33-.66-.73-.89-1.16-.3-.53-.47-1.13-.75-1.68-.45-.91-.74-1.85-.58-2.88,0-.35.01-.7,0-1.05-.02-.34.04-.65.38-.82.37-.19.77-.25,1.09.01.26.21.5.51.6.82.15.41.19.87.22,1.31.01.13-.14.35-.25.39-.22.05-.29-.13-.32-.34-.03-.35-.07-.7-.14-1.04-.05-.19-.13-.41-.27-.53-.13-.12-.37-.15-.55-.13-.07,0-.13.25-.18.39-.02.05,0,.12,0,.18-.33,2.01.62,3.69,1.4,5.41.12.25.35.47.57.65.59.49,1.21.96,1.82,1.43.19.14.27.3.27.55-.02.66-.01,1.32-.01,1.98v.91s3,3.25,3,3.25l-.1-4.09c0-.06,0-.14,0-.21v-2.75c0-1.33-.71-2.27-1.98-2.68-.13-.04-.25-.14-.35-.24-.46-.44-.9-.91-1.38-1.33-.48-.44-.89-.48-1.41-.19.72.72,1.41,1.42,2.11,2.12.08.07.18.15.21.24.03.1.04.27-.02.32-.08.07-.23.08-.35.07-.07-.01-.13-.1-.19-.16-.76-.76-1.52-1.51-2.27-2.27-.31-.3-.3-.43.03-.7.64-.53,1.41-.55,2.11.01.48.38.89.84,1.35,1.25.18.17.39.31.62.4,1.27.51,2.09,1.68,2.1,3.05.01,1.02,0,6.65,0,7.67l.28.3c.09.11.19.21.3.29.11-.08.2-.18.3-.29l.48-.52c-.1-.12-.18-4.26-.19-4.39-.04-.37-.02-.75-.01-1.12.01-.83-.05-1.67.06-2.49.17-1.23.94-2.04,2.08-2.51.19-.08.37-.19.51-.32.41-.38.78-.8,1.19-1.16.79-.71,1.65-.75,2.35-.17.32.27.33.4.03.7-.76.76-1.52,1.52-2.28,2.28-.16.16-.34.32-.54.1-.2-.21-.03-.37.12-.52.64-.64,1.28-1.28,1.92-1.92.08-.08.16-.16.24-.25-.5-.3-.91-.25-1.4.18-.43.39-.82.82-1.25,1.21-.18.17-.41.32-.65.4-1.04.37-1.78,1.36-1.8,2.47,0,.95,0,1.9,0,2.85,0,.08.07,3.67.04,4.2l2.88-3.12s-.04-.22-.03-.83c0-.68-.02-1.35.01-2.03,0-.16.11-.37.23-.47.6-.5,1.23-.94,1.81-1.45.29-.25.55-.58.71-.93.43-.89.8-1.8,1.18-2.71.06-.15.1-.32.1-.49,0-.69.02-1.39,0-2.09,0-.15-.07-.37-.18-.43-.22-.12-.48-.05-.59.18-.14.29-.22.61-.3.92-.05.21-.02.44-.08.64-.04.13-.18.22-.27.32-.1-.1-.29-.2-.29-.3.03-.64.06-1.28.41-1.85.27-.44.72-.62,1.21-.51.46.1.67.37.68.84v1.19c.16,1.01-.14,1.92-.58,2.81-.27.55-.49,1.12-.73,1.69-.2.5-.52.89-.94,1.21-.53.42-1.07.83-1.58,1.26-.12.1-.21.29-.21.44-.03.58-.01,1.16-.01,1.74,0,.14.03.19-.03.29l6.12-6.63c.09-.1.19-.21.26-.33,1.36-1.59,2.02-3.62,2.02-5.64,0-2.16-.76-4.32-2.28-5.97Zm-4.48,6.26c-.5.76-1.23,1.28-2.03,1.69-.33.17-.53.4-.7.72-.34.63-.67,1.27-1.1,1.82-1.02,1.27-2.37,1.63-3.92,1.24-1.25-.32-1.99-1.48-1.92-2.92,0-.16.02-.31.03-.52-.55.21-1.03.11-1.48-.19-.37-.25-.52-.64-.43-1.03.11-.44.39-.67.87-.75.11-.02.26-.1.32-.2.61-1.11,1.26-1.39,2.5-1.04.27-1.22.83-1.53,1.73-.96.18-.13.37-.24.54-.37.07-.06.14-.15.17-.25.41-1.24,1.26-1.99,2.56-2.13,1.29-.14,2.31.41,2.97,1.52.68,1.13.62,2.27-.11,3.37Z"/>
    </g>
  </g>
  <g id="for_export_create_outline_" data-name="for export (create outline)">
    <g>
      <path class="cls-5" d="m21.51,25.51c.08-.07.17-.1.27-.09.09,0,.18.05.26.14.04.04.07.08.1.12.06.11.13.28.2.5.07.22.15.51.23.85,0,.03.01.05.03.06,0,0,.01,0,.02,0,.01-.01.01-.04,0-.08-.01-.15-.02-.31-.02-.48,0-.17,0-.35,0-.55.02-.53.09-.88.22-1.06.02-.03.04-.05.07-.05.03,0,.06,0,.1,0,.05,0,.09,0,.11.03.03.02.05.04.07.06.01,0,.02.02.03.03,0,0,.01.02.02.03.05.17.09.33.13.49.04.16.09.33.14.49.02.08.06.19.1.33.04.13.1.28.15.44.06.16.12.32.18.48.07.16.13.31.19.44.06.13.12.25.18.33.05.09.1.14.14.15.01,0,.02.01.03.02,0,.01.01.02.02.03.05.05.08.06.11.03.07-.07.11-.28.12-.62,0-.04,0-.06,0-.06,0,0,.01,0,.01,0,0,0,.01.03.02.06.02.07.01.18,0,.33-.02.16-.06.26-.1.31-.02.02-.04.03-.06.03-.03,0-.05,0-.08,0-.03,0-.05-.01-.08-.03-.02-.01-.04-.03-.06-.04-.02-.03-.06-.09-.11-.18-.05-.09-.11-.2-.17-.33-.06-.13-.13-.27-.2-.42-.07-.15-.14-.3-.2-.45-.06-.15-.12-.28-.17-.41-.05-.13-.09-.23-.12-.31l-.34-1.06s-.04-.09-.06-.12c-.03-.03-.07-.03-.11.01-.02.03-.05.06-.07.12-.09.21-.15.52-.17.92,0,.17,0,.33,0,.5,0,.17.01.34.03.52.01.15.03.28.04.39.01.11.03.19.04.26,0,.04,0,.08-.02.1-.02.02-.04.02-.06,0,0,0,0,0-.01-.02,0,0,0-.02-.01-.03-.23-1.04-.42-1.71-.56-1.99-.02-.03-.04-.06-.06-.09-.02-.03-.04-.05-.06-.07-.13-.13-.27-.13-.4-.01-.12.11-.23.33-.33.66-.05.17-.08.33-.11.48-.02.15-.04.31-.04.46,0,.33.05.56.17.67.04.04.09.04.14,0,.03-.02.06-.05.09-.07s.05-.05.07-.08c.02-.02.03-.03.04-.02,0,0,0,.02-.01.05-.04.08-.09.13-.14.17-.09.07-.19.05-.29-.06-.1-.1-.15-.31-.15-.63,0-.16,0-.32.03-.47.02-.16.05-.31.1-.47.05-.17.11-.32.17-.44s.13-.22.21-.29Z"/>
      <path class="cls-5" d="m24.69,25.73c-.03-.07-.09-.17-.16-.29-.03-.05-.06-.09-.08-.13-.02-.03-.04-.06-.06-.08-.01.12-.03.25-.07.41-.04.21-.09.36-.14.46,0,.01-.01.02-.02.02-.01.01-.02.02-.04.02-.02,0-.03,0-.04-.02-.02-.03-.06-.2-.14-.49,0,0-.01-.02-.03-.03-.02-.01-.03-.03-.03-.04,0-.01,0-.05.03-.12.03-.07.04-.11.05-.12.02-.02.04-.02.06,0-.02.04-.01.13,0,.28.02.13.04.22.06.3,0,.01.01.02.02.03.01.01.03.02.04,0,.02-.01.03-.02.04-.04.02-.04.04-.1.06-.16.02-.07.04-.14.06-.24.01-.07.02-.13.03-.19s.01-.1.02-.13c0-.02,0-.03,0-.05,0-.02,0-.03.01-.04.02-.02.04-.04.06-.04.02,0,.04,0,.05.02,0,.01,0,.02,0,.03,0,.01,0,.03.01.04.06.11.15.27.25.49.16-.24.33-.45.51-.64.06-.07.12-.11.16-.14.02-.01.04-.02.06-.03.02,0,.05-.01.07-.01.02,0,.05,0,.07,0,.02,0,.04.02.06.03.02.02.03.03.03.05.01.05.01.13,0,.25,0,.02,0,.03-.01.04,0,0,0,0,0,0,0,0,0-.02,0-.04,0-.15-.01-.24-.07-.3-.04-.04-.1-.03-.17.03-.02.02-.04.04-.07.06-.02.02-.05.05-.08.08-.24.24-.41.46-.53.64.65,1.4.72,2.39.21,2.99-.17.2-.4.33-.67.38-.27.05-.48,0-.63-.13-.05-.05-.08-.1-.11-.16-.12-.31-.02-.84.31-1.57.11-.25.24-.5.37-.74.13-.24.28-.48.44-.72Zm-1.02,3.02s.02.05.04.08c.02.02.03.05.05.07.13.12.31.16.55.12.25-.05.46-.17.63-.36.3-.33.38-.86.23-1.57-.05-.22-.11-.44-.18-.66-.08-.22-.17-.44-.28-.65-.38.57-.67,1.11-.86,1.63-.24.62-.3,1.07-.18,1.35Z"/>
      <path class="cls-5" d="m25.82,24.58c-.21.21-.43.35-.66.42-.25.08-.46.05-.6-.09-.17-.17-.26-.47-.25-.89,0-.37.08-.78.22-1.21.13-.41.28-.72.43-.92.04-.05.08-.1.13-.15.13-.13.24-.2.35-.21v-.07s0-.02.01-.03c.01,0,.02,0,.03,0,0,0,0,.03.01.08.05,0,.11.04.17.1.06.06.11.13.14.21.03.08.05.18.05.3.01.15,0,.3-.05.45,0,0-.02.02-.04.04-.03.02-.05.03-.06.03-.09-.09-.16-.25-.21-.49-.04-.18-.06-.35-.06-.49-.09-.03-.21.03-.35.17-.02.02-.04.04-.06.06-.02.02-.04.05-.06.08-.23.34-.4.8-.5,1.38-.1.61-.07,1.07.1,1.38.03.05.06.09.1.13.12.11.27.15.45.11.21-.05.42-.19.64-.42.12-.13.24-.28.34-.45.1-.16.2-.34.29-.53.08-.18.14-.35.18-.51.04-.16.07-.31.08-.46,0-.02,0-.04.01-.05,0,0,.01,0,.02,0,0,0,0,.02,0,.04,0,.3-.09.64-.25,1.02-.09.2-.18.38-.29.55s-.22.31-.35.44Zm-.09-2.07s.02.02.03.01c.01,0,.02,0,.02-.02.05-.21.04-.4-.03-.58-.01-.04-.03-.07-.05-.1-.02-.03-.04-.06-.07-.08-.04-.04-.09-.07-.13-.08,0,.07,0,.13.01.21,0,.07.03.15.05.24.05.16.1.3.17.4Z"/>
    </g>
  </g>
</svg>