<?xml version="1.0" encoding="UTF-8"?>
<svg xmlns="http://www.w3.org/2000/svg" xmlns:xlink="http://www.w3.org/1999/xlink" viewBox="0 0 32 32">
  <defs>
    <linearGradient id="linear-gradient" x1="2" y1="16" x2="30" y2="16" gradientUnits="userSpaceOnUse">
      <stop offset="0" stop-color="#fd8f52"/>
      <stop offset="1" stop-color="#ffbd71"/>
    </linearGradient>
    <linearGradient id="linear-gradient-2" x1="3" x2="29" xlink:href="#linear-gradient"/>
  </defs>
  <g id="nen">
    <rect width="32" height="32" rx="7" ry="7" style="fill: #fff;"/>
  </g>
  <g id="trai_tim" data-name="trai tim">
    <path d="M27.54,4.67c-3.17-3.45-8.26-3.56-11.54-.31-1.59-1.58-3.59-2.36-5.61-2.36-2.15,0-4.29.89-5.93,2.67-3.18,3.44-3.28,8.94-.29,12.51.08.12.18.24.29.35l11.21,12.16c.11.11.21.23.33.31.12-.08.22-.2.32-.31l11.22-12.16c.1-.11.21-.23.29-.35,1.45-1.72,2.17-3.91,2.17-6.08,0-2.33-.82-4.66-2.46-6.43ZM27.4,17.14c-.07.12-.17.23-.27.34l-10.82,11.72c-.1.11-.2.22-.31.3-.11-.08-.21-.19-.31-.3l-10.82-11.72c-.1-.11-.2-.22-.28-.34-2.88-3.45-2.78-8.75.28-12.07,1.58-1.71,3.65-2.57,5.72-2.57,1.95,0,3.88.75,5.41,2.27,3.16-3.13,8.07-3.02,11.13.3,1.58,1.71,2.37,3.96,2.37,6.2,0,2.1-.69,4.21-2.1,5.87Z" style="fill: url(#linear-gradient);"/>
    <path d="M27.13,5.07c-3.06-3.32-7.97-3.43-11.13-.3-1.53-1.52-3.46-2.27-5.41-2.27-2.07,0-4.14.86-5.72,2.57-3.06,3.32-3.16,8.62-.28,12.07.08.12.18.23.28.34l10.82,11.72c.1.11.2.22.31.3.11-.08.21-.19.31-.3l10.82-11.72c.1-.11.2-.22.27-.34,1.41-1.66,2.1-3.77,2.1-5.87,0-2.24-.79-4.49-2.37-6.2ZM26.98,17.09c-.07.12-.17.23-.26.33l-10.42,11.29c-.1.11-.19.21-.3.29-.11-.08-.21-.18-.3-.29l-10.42-11.29c-.09-.1-.19-.21-.26-.33-2.78-3.31-2.69-8.42.26-11.61,1.53-1.65,3.52-2.48,5.51-2.48,1.87,0,3.74.72,5.21,2.19,3.04-3.02,7.77-2.91,10.72.29,1.52,1.65,2.28,3.81,2.28,5.97,0,2.02-.66,4.05-2.02,5.64Z" style="fill: #fff;"/>
    <path d="M29,11.45c0,2.02-.66,4.05-2.02,5.64-.07.12-.17.23-.26.33l-10.42,11.29c-.1.11-.19.21-.3.29-.11-.08-.21-.18-.3-.29l-10.42-11.29c-.09-.1-.19-.21-.26-.33-2.78-3.31-2.69-8.42.26-11.61,1.53-1.65,3.52-2.48,5.51-2.48,1.87,0,3.74.72,5.21,2.19,3.04-3.02,7.77-2.91,10.72.29,1.52,1.65,2.28,3.81,2.28,5.97Z" style="fill: url(#linear-gradient-2);"/>
  </g>
  <g id="ngựa">
    <g>
      <path d="M14.11,7.51c-.05-.02-.12-.07-.15-.11-.04-.07-.06-.2-.02-.27.06-.11.17-.11.22-.17.03-.04.05-.13.08-.18.04-.07.1-.16.19-.15,0,.05,0,.26.07.26.02,0,.17-.09.23-.1.03,0,.05,0,.07,0,0,0,0-.02.01-.02.03,0,.03.02.03.02.03,0,.02-.02.03-.02.09-.03.14-.05.23-.1.01.02.05-.02.06-.03,0,0,0,0,.01,0,.08-.01.09-.03.07.05,0,0,0,0,0,.01-.03,0-.03.03-.03.05,0,0,0,0,0,.01-.02,0-.02.05,0,.05,0,0,0,0,0,.01v.05s-.03,0-.03,0c0,0,0,.06-.04.06-.06,0-.02-.05-.03-.05,0,0-.04,0-.04.01,0,0-.02,0-.02-.01,0-.01.02-.03.01-.05.02-.02.12-.09.1-.12-.03-.03-.07.06-.08.07-.04.03-.07-.01-.08.07,0,0,0,.01,0,.02,0,0,0,0,0,.01,0,0-.02.03-.02.03,0,.01-.01.01-.02.02-.01.01-.05.02-.03.04-.08.11-.13.23-.09.36.02.06.04.12.1.08.07-.05.04-.11.05-.18,0-.02.02-.03.02-.03.04-.03.07,0,.04-.06,0,0,.01,0,.02.01,0,0,0,0,0,.01,0,0,0-.01,0-.01,0,0,0,0,.01-.01.03,0,.03,0,.04-.03,0,0,0,0,.01,0,.03,0,.03-.02.04-.02,0,0,0,0,.01,0,.03,0,.03,0,.01.03-.05.04-.08,0-.04.09-.04.02-.1.03-.12.07.05-.03.11-.04.17-.06.04,0,.05.04.09.05-.05.01-.1.04-.15.05-.01,0-.03,0-.03.01.03,0,.1,0,.12.02.01,0,0,.03,0,.03,0,0,.09-.01.06.03-.02,0-.02,0-.03.01s-.04.02-.03.04l.11-.03s0,0,.01,0c.05,0,.04,0,.1-.01,0,.02,0,.04.03.05,0,0-.02.02-.05.02,0,0-.06-.06-.04,0h-.04c.07.02.11.02.17.01.03.03.08,0,.12,0,0,0,.06.06.03.06-.04,0-.04-.02-.04-.02-.04,0-.1-.01-.08.04,0,0-.01,0-.02,0-.02,0-.06,0-.04-.03,0,0,.04,0,.02-.02-.01,0-.05,0-.07,0-.02,0-.07-.03-.06,0,0,0,.03.05.04.06.05.04.09-.02.07.11.02.02.09-.05.1,0,0,.02-.03.05-.02.08,0,0,.06,0,.07.02.02.01,0,.04.01.06,0,0,.03,0,.04.02,0,.01,0,.03,0,.05,0,.01.02.01.03.03.02.03.01.07.02.1,0,.02,0,0,.01.05,0,.03.04.06.05.07.01.03,0,.11,0,.14,0,.02.02.04.02.06s-.06.11-.04.12c.15-.04.05,0,.05.04,0,.02.04.15.03.16,0,0-.04,0-.05.02.03.04.03.09.02.14,0,.01-.05.02-.04.07.05.03.04-.03.06-.04.06.01,0,.07-.02.07-.02,0-.06-.02-.07,0,0,0,.01.07.02.08.01.02.05.03.06.05.02.03.01.07.02.09,0,.01.04,0,.05.03,0,0,0,.07,0,.07-.02.02-.05,0-.06,0,0,0-.01.07,0,.07,0,0,.04,0,.04.01.01.02-.02.04-.03.05,0,.02-.02.08-.03.09,0,0-.03,0-.03,0-.01.06.03,0,.05,0,.07,0,.02.06,0,.08-.01.03-.01.04-.03.08-.02.03,0,.04.01.07,0,0,0,.02,0,.04.01.02.05.02.05.03,0,.02-.04.09-.03.12,0,.01.03.03.04.06,0,.03-.02.05-.02.08s.04.11.04.14c0,.03-.03.04-.03.06,0,.02.03.03.03.05,0,.02,0,.16,0,.18,0,.03-.03.03-.03.05,0,.01-.03.09-.03.1.01.04.04,0,.06-.01.02-.01.05-.02.07-.03.01,0,.02-.04.04-.03,0,0,0,.02,0,.02.01,0,.04,0,.06-.01,0,.04,0,.09-.04.1-.02,0-.05,0-.06,0,0,0-.02.03-.03.04,0,0-.02.02-.02.02-.03.02-.07.04-.1.05h0s.1-.1.15-.15c.02-.02.05-.02.06-.05h-.02c-.45.31-1.08.49-1.28,1.05-.02,0-.05-.01-.03.03.01.03.05.02.06,0,0-.01,0-.03,0-.03.03-.06.03-.05.06-.09.06-.07.1-.11.17-.16.03.01,0,.03-.01.04-.02.03-.05.09-.06.1-.02.01-.04,0-.05.02,0,.01,0,.05-.03.08-.01.01-.04.02-.04.03,0,.02.02.04.02.06,0,.01,0,.09-.01.09-.02.02-.03-.03-.03-.04-.04-.04-.05.03-.1.02-.01.05.03.03.03.03,0,0-.02.09-.03.11-.01.03-.01.02-.02.07-.01.07-.11.03-.15.05-.02.01,0,.04,0,.06-.01.05-.08.04-.08.04,0,0,0,.03,0,.04,0,.03-.03.05-.03.07.02,0,.04,0,.06-.01,0-.1.06-.03.04-.01-.01.01-.03,0-.04.01,0,.05.02.04.02.06,0,.03-.04.03-.03.06,0,.02.02.03.02.04,0,0-.06.04-.08.06,0,.01,0,.03-.01.04,0,0-.07-.04-.1-.01,0-.01-.01-.02-.01-.04,0,0,.03-.02-.01-.02l-.02-.19h-.02s-.01,0-.01,0c0-.01,0-.01-.01-.02,0,0,0-.01-.01-.01,0,.01,0,.03.01.03,0,0,0,0-.01.01-.03.05-.03.11-.02.17-.03.11.04.24.06.34-.03,0-.02-.02-.03-.04-.04-.04-.12-.05-.17-.05-.01-.03-.04-.1-.04-.11l.02-.05c-.08.02-.07-.07-.09-.09,0,0-.02,0-.02,0-.01,0,0-.01-.01-.02,0-.01,0-.01-.01-.03,0,0-.01-.02-.02-.03h.01s-.02-.03-.02-.03c-.03-.03-.08-.24-.07-.29.1.05.05-.08.05-.14,0-.03.02-.08.01-.1,0-.02-.04-.03-.04-.06,0-.02.12-.14-.03-.16,0,0,0-.02,0-.03,0,0,0,0,0-.01.03,0,.02-.01.03-.03.03-.09.07-.17.12-.25,0,0,0,0,0-.01,0,0,0,0,.01-.01,0,0,.01,0,.02,0,.01-.01.01-.07.06-.07.02.07,0,.14.03.22,0,0,.02.02.02.02,0,0-.01,0-.01.01s.02,0,.02.01c0,.02,0,.04.03.05,0,0,0,0,0,.01.02.09.04.08.06.15.02.04,0,.03.04.05,0,0,0,.02,0,.03,0,.03.04.07.07.07.01,0,.02,0,.02-.01-.01-.05-.04-.1-.06-.15-.04-.12-.06-.22-.08-.35,0,0-.02,0-.02-.01,0-.01.01-.03.01-.04,0,0-.02,0-.02-.01,0-.01.01-.04.01-.06,0-.04-.03-.09-.03-.13.02-.06.02-.15,0-.21,0-.04,0-.08.01-.13,0-.08.03-.17.05-.24,0,0,.01.04,0,.06.07-.03.03.02.04.03s.06-.03.04.05c0,.03-.02.01-.03.02-.05.03,0,.12-.01.16,0,.03-.05.04-.04.06s.04.02.04.03c0,0-.02.07,0,.08.03.02.12-.03.04.07.04.01,0,.05.01.07,0,.01.03.03.02.05-.08-.02-.11.06-.03.04.01,0,.03-.02.04-.02.01,0,.01.03.02.03.01,0,.03,0,.05,0,.02.01.02.06.03.08,0,0,.03.01.04.03.01.02,0,.04.03.06.02,0,.04-.07.06-.09.04-.03.07.02.06-.05-.02-.01-.06.02-.07.02-.01,0-.03-.04-.06-.03.01.04-.02.06-.03.03-.01-.03.02-.03.02-.03,0-.01-.02-.05-.01-.06,0,0,.06,0,.07-.04,0-.02-.02-.06,0-.07.04-.04.02.07.09.04.05-.03-.01-.09,0-.1.02-.02.05.05.07.03,0,0-.07-.09-.03-.12,0,0,.06,0,.06,0,0,0-.02.06.04.06.07,0-.02-.15.06-.12,0,0,.02.04.05.03,0-.02,0-.12,0-.13-.02-.02-.07,0-.06-.03,0-.03.06-.02.06-.03,0,0,0-.05.02-.06l.05.02s.02-.05.02-.08c0-.04-.04-.08-.04-.09,0,0,.03-.02.04-.03,0-.01.07-.11.07-.12,0-.02,0-.03,0-.05,0-.01.01-.04,0-.05,0,0-.05,0-.05-.03.05-.03.07-.12.06-.19.02,0,.05.02.07.02,0,0,.05-.04.05-.05,0-.02-.03-.03-.03-.05.02-.02.01-.06.02-.07.01-.02.05,0,.04-.04,0-.02-.07-.03-.05-.07.04-.01.08,0,.06-.05,0-.02-.07,0-.09-.01-.01,0-.05-.03-.04-.05.02-.05.1.03.12.02,0-.03-.06-.11-.06-.13,0-.04.06-.04.07-.07.02-.03,0-.06,0-.09-.02,0-.08.02-.09.01,0,0,0-.02,0-.04,0-.02-.03-.04-.03-.08s.03-.06-.02-.09c-.03,0,0,.05-.03.07-.03.02-.1,0-.05-.03,0,0,.05,0,.05-.02,0,0-.02-.03-.04-.03-.01,0-.03.04-.05.03,0-.03-.03-.1-.03-.12,0-.03.05-.05.04-.08-.06.01-.09-.04-.14-.06.21-.11.28-.22.34-.45.02-.08.01-.14,0-.21,0-.02,0-.04-.01-.07,0-.02-.02-.03-.03-.02,0,0,0,.02,0,.03-.04.01-.09.02-.09-.05,0-.03.06-.03.06-.06,0-.02-.01-.03,0-.05,0-.01.04-.05.05-.08,0-.02,0-.04,0-.05,0,0,.03-.03.02-.04,0,0-.02,0-.03-.02-.01-.02-.01-.05-.03-.07-.01-.01-.05-.01-.06-.03,0-.01,0-.03-.02-.04-.03-.02-.07,0-.1,0-.06-.01-.05-.08-.12-.09-.05,0-.11.03-.12.03,0,0,0-.03-.02-.03-.03-.01-.09,0-.12,0s0-.15-.04-.16c-.05-.02-.03.03-.06.04-.02,0-.05,0-.08.01-.03,0-.09.06-.1.06,0,0,0-.03-.02-.03-.02,0-.04,0-.05,0,0,0-.08-.02-.08-.02,0,0,0-.04,0-.04,0,0-.03,0-.03,0ZM14.62,7.07s-.07-.03-.08-.03c-.1,0-.19.09-.17.19l.04-.08s.1-.1.16-.09c.03,0,.02.04.04.03,0,0,0-.02,0-.02ZM14.17,7.09c-.08,0-.07.1-.04.16,0,.01.08.13.1.11l-.05-.27ZM14.39,7.37s0-.04-.01-.05l-.08-.16s0,.08.01.11c0,.01.07.11.08.09ZM14.55,7.17c-.1.02-.09.11-.09.19.02,0,0-.04.02-.06.01-.04.08-.07.07-.13ZM14.24,7.34h0s0,0,0,0ZM14.85,7.51l-.18-.1c.01.08.12.1.18.1ZM14.99,8.99c.2-.04.34-.26.33-.46l-.05.17c-.04.09-.1.15-.17.21l-.11.08ZM15.77,10.77c.06,0,.09-.07.02-.05-.03,0-.02.02-.02.05ZM14.34,11.85h0s0,0,0,0ZM14.23,12.26s-.08.01-.05.03c0,0,.07-.01.05-.03Z" style="fill: #feecb1;"/>
      <path d="M15.09,8.63s-.02-.04-.03-.06c-.02-.05.02-.04-.04-.07-.06-.04.03-.07.04-.08.02-.03,0-.12.08-.12v.05s.02-.08.02-.13c0,0,0,0,.01,0,0,.14-.03.28-.09.41Z" style="fill: #feecb1;"/>
      <path d="M21.13,10.16c.21-.02.49-.05.52-.31.03-.22-.07-.4-.26-.5-.04-.02-.1-.04-.13-.06-.01,0-.02-.01-.02-.03.31-.01.58.23.59.55v-.11c0-.23-.18-.42-.4-.49.41-.03.65.38.59.75.02,0,.02-.02.02-.03.04-.1.03-.28,0-.38-.02-.09-.09-.16-.11-.24.26.11.29.43.23.67-.06.23-.27.45-.51.5l-.3.06h.25s.12-.03.13-.04c.28-.1.43-.32.49-.6.01-.06.02-.14,0-.2,0,0,0-.02,0-.02.04-.03.09.12.1.15-.02.06,0,.13-.01.19-.05.33-.34.61-.66.68l-.25.05h.21c.21,0,.47-.17.59-.34.06-.08.08-.16.13-.24,0-.01,0-.02.03-.02v.18s-.08.18-.11.22c-.22.3-.67.39-1.02.35l.1.04c.29.07.67,0,.88-.22.01-.01.1-.14.12-.12,0,.42-.42.61-.8.59s-.58-.31-.88-.49c-.04-.03-.02,0-.05-.02-.1-.04-.21-.09-.32-.09l.24.09c.38.21.59.54,1.05.63.08.01.15.02.22,0s.16-.04.23-.07l.2-.12c-.05.21-.28.32-.48.35-.3.05-.59-.09-.82-.28-.2-.16-.37-.41-.65-.45l.17.08c.33.22.51.58.92.69.2.05.41.05.6,0-.02.12-.21.19-.32.2-.05-.02-.13-.02-.18,0-.5-.04-.66-.42-.98-.7-.04-.03-.08-.07-.12-.09-.01.01.1.12.12.13.29.33.51.73,1.01.76,0,.02-.03.02-.04.02-.02,0-.04,0-.07,0-.1,0-.19,0-.29-.02-.63-.11-.61-.94-1.22-.9-.14,0-.04.05,0,.1.08.1.19.27.23.4,0,.02,0,.04.02.05,0,0,0,0,0,.01v.03s.01,0,.01.01c.01.06.03.13.03.19,0,.09-.01.19.01.27-.03.24-.13.49-.27.68,0,0,0-.02,0-.04.01-.04.16-.26.14-.28-.02,0-.08.02-.09.03,0,0-.02.02-.04.04-.01,0-.02.03-.02.03-.01,0-.03-.03-.06-.03-.04,0-.06-.02-.07-.02-.01,0-.03.01-.05,0-.04-.01-.04-.07-.03-.11-.09,0-.05-.03-.06-.07s-.04-.08-.08-.05c.01-.06-.01-.04-.03-.05-.1-.08-.08-.02-.12-.03,0,0-.07-.07-.07,0,0,.02.02.02.03.03.03.03-.04.08-.08.02-.01-.02,0-.08-.04-.07-.03,0-.02.07-.02.09,0,0-.04.08-.05.08-.03.03-.1.04-.11.05-.02.06.05,0,.06,0,0,.03,0,.06,0,.09,0,.02-.03.03-.03.05,0,.02.01.04.01.05,0,.03-.02.04-.02.06s.02.05,0,.08c-.06.02-.06-.05-.12-.03-.02.07.05.05.06.1-.03,0-.03-.03-.06-.02-.04.02,0,.07-.01.08,0,0-.05,0-.05.01,0,0,0,.08.02.1.01.02.05.01.06.03s-.03.12.07.05c.04.08.05,0,.06,0,.02-.01.11.05.09.07-.15.05.02.11.04.16.03.09-.03.07-.04.11,0,.02,0,.05,0,.06,0,.02-.08.04-.08.05,0,0,0,.05,0,.06s-.08,0-.06.06c0,0,.03,0,.02.03-.09-.02-.21,0-.15.12.01.02.04.01.04.04-.11-.04-.21-.13-.32-.15,0,0-.01,0-.02-.01h-.01s0,0-.01-.01c0-.05-.02-.03-.04-.04,0-.04,0-.05-.04-.05-.02,0-.01.01-.02,0-.01,0-.02-.02-.03-.03l.08-.04s.05.03.07.03c.01,0,.05-.07.1-.04,0-.03-.02-.05-.02-.07,0-.02.02-.06.01-.07,0,0-.03,0-.05-.01s-.02-.05-.04-.03c0,0,0,.07-.04.03-.01-.04.04-.03.04-.04-.02-.03-.01-.05-.02-.07,0-.02-.04-.05-.03-.1h-.06c-.02-.08.05-.04.07-.08.02-.02-.05-.02-.05-.05,0-.01.02-.03.02-.04,0-.03-.06,0-.08,0-.06,0,0-.04,0-.07,0-.01,0-.04,0-.04,0,0,.08.04.11.01,0-.03-.02-.04-.02-.07,0-.03.06-.08.06-.1,0-.04-.1-.07-.04-.13,0,0,.1-.03.11-.03.04,0,.05.05.05.05.02,0,.06-.03.07-.05.03-.05-.03-.08-.03-.12,0-.03.02-.04.03-.05,0-.02-.01-.05,0-.06,0-.01.11-.02.09-.09.03,0,.02.04.05.03.03-.02.05-.07.06-.09.02-.03.13-.04.14-.05,0-.03.02-.06.02-.08,0-.02-.01-.03,0-.05,0-.02.03-.02.04-.03.03-.04.05-.14.07,0,.05.02.07-.07.08-.07.03,0,0,.03.02.04,0,0,.08.01.1.03.02-.02.02-.05.02-.08.07-.01.03.02.04.07.01.06.06,0,.06-.03,0,0-.04-.08-.02-.11.08.04.18-.05.19-.13,0-.02-.01-.06,0-.07.01-.02.06-.01.07-.03.03-.04.03-.11.04-.12.01-.02.09,0,.09-.03,0-.01-.02-.03-.02-.04s.03-.03.02-.06c-.08,0-.07-.05-.11-.09s-.1-.12-.1-.02c-.02,0-.02,0-.03-.02s-.06-.15-.06-.16c0-.02.03-.03.01-.06-.03-.04-.06.07-.09.06-.03-.01-.03-.05-.04-.06-.02-.03-.07-.07-.08-.1,0-.01,0-.07,0-.08,0,0-.07,0-.07-.02,0-.02.03-.05.02-.07-.01-.02-.14-.02-.17-.04-.02-.01-.02-.05-.04-.07,0-.01-.03-.02-.04-.03,0-.01,0-.03-.01-.04-.01,0-.1,0-.12-.01,0,0,0-.02-.02-.02s-.04,0-.06.01c0,0,0-.02,0-.03-.02,0-.03,0-.03.01-.06.01-.05,0-.09-.01-.06,0-.27-.02-.31,0-.02,0-.03,0-.04-.01,0-.03.02-.02.05-.02.06.02.14.01.21.01.02,0,.05,0,.06-.01.15.01.28.05.42.11h.03s.02.02.03.02c.02.03.06.04.09.05.05.03.08.05.13.07,0,0,0,.02.02.01.01-.01-.01-.02-.01-.02,0-.05.22-.21.27-.25.02.08-.03.04-.05.07-.01.02,0,.04-.02.06-.02.04-.12.12-.07.17.01.01.05.01.07.03,0,0,.06.09.06.09,0,.01,0,.04,0,.06,0,0,.03.07.04.07.03,0,.11-.01.16,0,.07,0,.15.04.22.06.02,0,.11.02.11.01,0,0,0-.03,0-.03-.01,0-.06,0-.07-.01,0,0,0-.04,0-.05,0,0,.06-.01.04-.03,0,0-.04.02-.05,0,0-.02.01-.05,0-.08,0,0-.04-.02-.02-.04.01-.01.21.05.2-.05-.03-.02-.07,0-.09,0,0,0,0-.01-.01-.02,0,0-.06-.02-.03-.04.05-.03.13,0,.19,0,.02,0,.04-.01.06-.01.04,0,.1.08.14.08.01,0,.09-.02.09-.02.02-.03-.03-.05-.04-.07,0,0,0-.03-.01-.03-.02-.01-.18-.04-.21-.04-.02,0-.04,0-.03-.02.12.02.18.03.29.06,0,.04.01.05.04.02.01,0,.02,0,.03.01-.01.02.06.04.07.04.02,0,.03,0,.03,0,0,0,.02,0,.02,0,0,0,0,.02.02.02h.02c0-.06,0-.04-.03-.04,0,0,0,0-.01,0-.01-.06-.11-.05-.12-.11.01,0,.11.03.15,0,0,0,.06-.12.03-.14.04-.01.11-.05.07-.1-.01-.02-.12-.03-.14-.04-.02,0-.05-.05-.06-.05-.04,0-.06-.01-.09-.02-.02,0-.04,0-.05-.02.04,0,.09.01.13.02,0,0,0,0,.01,0,.03.02.07.03.11.03,0,0,0,0,.01,0h.04s.01,0,.02.01c.01.02.05.01.07.01ZM21.41,10.29c-.06-.02-.14-.02-.2,0,0,0-.01,0-.02-.01,0,0-.04-.01-.04-.01,0,0,0-.03,0-.03-.03,0,0,.03-.02.04,0,0-.05,0-.01.03.03.02.03,0,.03,0,.04,0,.13.04.19.04.05.03.12,0,.17-.01.1-.03.24-.1.28-.2-.01-.01-.06.04-.07.05-.08.05-.21.1-.3.11ZM21.13,10.18s-.11.02,0,.02c0,0,0-.02,0-.02ZM21.33,10.55s-.06-.02-.05.01c0,.03.08.03.05-.01ZM20.28,10.72h-.04s.04.01.04.01h0ZM19.54,10.73s-.03,0-.02.02.03,0,.02-.02ZM20.37,10.88l-.05-.03s0,.02.01.03c0,0,.04.02.04,0ZM20.06,11.4s-.05,0-.06,0c0,.03,0,.06,0,.09,0,0,.02,0,.02.02,0,.03-.02.05.05.02,0,0,.06-.03.06-.03,0,0,0-.05,0-.05,0,0-.05,0-.05,0,0,0,0-.04,0-.04ZM19.88,11.53s0,0,0,.01c-.02.02-.05.03-.04.06,0,0,.02,0,.02.02.02.06-.02.15,0,.21,0,0,0,0,0,.01-.03,0-.02.05-.03.06s-.05,0-.06.06c-.02.05.02.06.02.09,0,0-.02.11-.03.11,0,.02-.03.02-.04.03,0,0-.06.11-.02.11,0,0,.03-.03.03-.03.06.03.12-.02.07-.07,0-.01.01-.02.02-.03,0,0,0,0,.01-.01.02-.03.03-.08.04-.12,0,0,0,0,0-.01h.01s.02-.01.02-.03c0-.02.01-.03.01-.05.06.02,0,.09.01.13,0,.06.15.03.18,0,0,0,.02,0,.01-.02,0,0-.06-.07-.06-.07-.04-.01-.04.03-.07.03,0-.06.03-.14.1-.11l.02-.29s-.06-.02-.07-.02c-.01,0-.02.03-.03.03-.01,0-.04-.01-.05,0,0,0,0,.05-.04.04,0-.02,0-.05-.01-.07,0-.05,0-.03-.02-.05-.01-.02.02-.03-.02-.03,0,0-.01,0-.02,0,0,.01.01.02.01.02ZM19.66,11.72h-.02s-.02.02-.02.04h.03s0-.04,0-.04ZM19.25,11.92s-.02-.04-.03-.03c-.02.02.01.05.03.03ZM19.43,11.97s-.03,0-.02.02.03,0,.02-.02ZM19.58,12.05v-.02s-.02-.02-.04-.02v.03s.04,0,.04,0ZM19.04,12.2s-.05,0-.06-.01c0,.07.09.05.06.01ZM18.93,12.21s-.06,0-.05.03c.03.03.07-.01.05-.03ZM20.07,12.28s-.03,0-.02.02.03,0,.02-.02ZM18.92,12.3s-.05.01-.03.03c.01.01.04-.02.03-.03ZM18.95,12.34s.07-.03.03-.04c-.04-.01-.03.04-.03.04ZM18.72,12.59s0-.06-.03-.05v.05s.03,0,.03,0ZM18.8,12.63s-.09-.05-.06.01c.01,0,.06,0,.06-.01ZM18.97,12.9s-.03,0-.02.02.03,0,.02-.02ZM19.09,12.99s-.06,0-.05.03c0,.04.08,0,.05-.03ZM18.9,13.24s-.07,0-.07-.02c0-.02.02-.04.02-.05,0-.02-.07-.07-.09-.03,0,0,0,.08,0,.09,0,.02.04.04.04.06,0,.01-.06.07-.01.08.03,0,.04-.07.05-.07.01,0,.05,0,.07-.01,0,0,0-.04,0-.04ZM18.97,13.31s-.01,0-.02,0v.04s.03,0,.03,0c0,0,0-.04-.01-.04ZM18.69,13.5s-.02-.04-.03-.03c-.02.02.01.05.03.03ZM18.75,13.47h-.02v.03h.02v-.03Z" style="fill: #fde698;"/>
      <path d="M18.97,10.39s.04-.01.06-.01.01.02.02.02c.02,0,.11,0,.12.01,0,0,0,.03.01.04.01.01.03.02.04.03.02.02.02.06.04.07.03.01.15.02.17.04.02.02-.02.05-.02.07,0,.03.07.01.07.02.01.01,0,.06,0,.08,0,.04.05.08.08.1.01.02.02.05.04.06.02,0,.06-.11.09-.06.02.03-.02.04-.01.06,0,.01.06.15.06.16s.01.02.03.02c0-.1.06-.02.1.02s.03.1.11.09c0,.02-.02.04-.02.06s.02.03.02.04c0,.03-.08,0-.09.03-.01.01,0,.09-.04.12-.01.01-.06,0-.07.03,0,.01,0,.04,0,.07-.01.08-.11.16-.19.13-.02.03.02.1.02.11,0,.03-.05.1-.06.03,0-.05.03-.08-.04-.07,0,.03,0,.06-.02.08-.02-.02-.1-.03-.1-.03,0-.01.01-.05-.02-.04,0,0-.03.09-.08.07-.02-.13-.04-.04-.07,0,0,.01-.03.01-.04.03,0,.01,0,.03,0,.05,0,.02-.03.05-.02.08,0,.01-.12.02-.14.05-.01.02-.03.07-.06.09-.02.01-.02-.04-.05-.03.02.07-.08.07-.09.09,0,0,.01.04,0,.06,0,.02-.03.03-.03.05,0,.04.06.07.03.12,0,.01-.05.05-.07.05,0,0-.02-.05-.05-.05,0,0-.1.03-.11.03-.06.06.03.09.04.13,0,.02-.06.07-.06.1,0,.03.03.04.02.07-.03.02-.1-.02-.11-.01,0,0,0,.03,0,.04-.01.02-.06.06,0,.07.02,0,.07-.02.08,0,0,.01-.02.03-.02.04,0,.03.07.02.05.05-.03.03-.1,0-.07.09h.06s.02.06.03.09c0,.02,0,.04.02.07,0,0-.05,0-.04.04.04.05.04-.02.04-.03.02-.02.02.02.04.03.01,0,.05.01.05.01,0,0-.01.05-.01.07,0,.02.03.04.02.07-.05-.03-.09.04-.1.04-.02,0-.03-.04-.07-.03l-.08.04s-.03-.03-.04-.04c-.03-.04-.03-.04-.05-.09,0-.02-.01-.07-.02-.09-.02-.06-.05-.14-.06-.21,0-.03.02-.1-.02-.1,0-.01,0-.04-.01-.05,0-.01,0-.02-.02-.02-.02,0-.12.07-.14.09-.1.02-.17.1-.25.15-.08.05-.17.09-.24.14,0,0,0,0-.01.01,0,0,0,0-.01,0l-.04.02c-.08.03-.17.07-.24.1l-.08.03c.24,0,.46-.09.67-.19.04-.02.26-.15.28-.13,0,.05.01.11.03.17.01.03.07.14.07.15,0,.03-.05.06-.07.09-.13.19-.08.29.02.48-.01.01-.02.05-.02.05,0,0-.03,0-.03.02,0,.03,0,.11-.02.14-.03.07-.12.1-.1.19-.05-.06-.06,0-.1,0-.02,0-.03-.02-.04-.02-.01,0-.02.02-.04.03-.02,0-.05,0-.07,0-.01,0,0,.03-.01.04-.01.01-.05-.01-.06-.01,0,0,0,.02-.01.02-.01,0-.03,0-.05,0-.02,0-.03.04-.05.03,0,0,0-.02,0-.02-.02,0-.04.03-.05.02-.01-.01.03-.06.04-.07.03-.07.02-.11,0-.18-.03-.07-.04-.1-.11-.14-.05-.03-.2-.24-.23-.31-.06-.1-.12-.21-.14-.33-.07.01-.15.04-.22.05v-.02s.01,0,.02,0c.02,0,.02-.01.02-.01.07-.01.14-.03.2-.04,0-.02-.02-.03-.02-.05,0-.02.06-.07.03-.11.03,0,.05.02.07.02.03,0,.07-.03.09-.04.02,0,.03,0,.05,0,.02,0,.02-.05.03-.05,0,0,.07-.02.08-.02.01,0,.03.01.05,0,.06-.01.01-.05.01-.06,0-.01.02-.03.02-.04,0-.01-.03-.01-.03-.02-.01-.05.06-.1-.06-.06-.02-.05-.01-.04.01-.06.03-.03-.03-.03-.05-.04-.07-.04-.07-.13-.02-.09,0,0,0,.02,0,.02.05.03.03-.02.03-.05,0-.02.02-.03.02-.04,0,0-.06-.06-.04-.08.03-.02.05.02.05.02.05,0,.03-.04.03-.05,0,0,.03-.05.04-.06.01-.01.07-.02.07-.05s-.03-.06-.02-.09c.03-.04.07,0,.09,0,0,0,.07-.08.12-.08.02,0,.04.02.06.02.1.01.09-.1.19-.08-.03-.05.05-.18.11-.16.03.01.03.05.06.04-.03-.08.08-.11.09-.13.01-.03,0-.09,0-.09,0,0,.09-.03.1-.03.01,0,.03.05.03.06,0,.06-.02.17-.04.24.01-.01,0-.03-.02-.02s0,.03.02.02c0,.02,0,.04-.02.06,0,0-.01,0-.02,0,0,0-.04.11-.03.13-.02.04-.03.08-.05.12-.01.01-.02.03-.03.04,0,0,0,0,0,.01,0,0,0,0-.01.01s0,0-.01.01c-.02.02-.03.03-.04.05,0,0,0,.02-.01.03s-.02.02-.02.02c0,.02,0,.03.02.02,0,0,0-.02,0-.02.02,0,.04,0,.05-.02.02-.01.02-.03.03-.04.03-.04.07-.08.1-.12.01-.02.01-.03.02-.04,0,0,0,0,0-.01,0,0,0,0,.01-.01,0,0,0-.01.01-.02,0-.01.01-.02.02-.04.02-.05.04-.1.05-.16.01-.05.01-.08.01-.14.03.01.02-.07.02-.1,0-.01-.01-.02-.01-.03,0-.01,0-.04,0-.05,0-.01-.07-.02-.06-.05.02,0,.05-.06.06-.06.02,0,.04,0,.05,0,0,0,.02-.04.05-.06.02-.01.05-.02.06-.03,0-.01,0-.04.01-.05,0-.02.04-.02.05-.04.02-.05-.03-.1.01-.13.01.04.02.01.02.01,0,0,0,0,.01,0,0,0,0,0,.01.01-.03.02,0,.05.01.07h0c.01.05,0,.09.04.12.02.01.02,0,.02,0,0,0,0,0,.01,0,.02,0,.06.04.08.01.03-.04-.04-.07,0-.1,0,0,.03,0,.04.02.01.01,0,.05.03.04.04-.01.03-.07.04-.07,0,0,.02,0,.03,0,.01-.02.02-.07.05-.1s.08-.02.09-.08c0-.05,0-.04.01-.1,0-.02,0-.05,0-.06,0,0,.03,0,.04-.01,0,0,.04-.08,0-.07,0,0,0,.05-.03.01,0-.01,0-.04,0-.05.08.04.07-.09.05-.13,0-.02-.04-.02-.04-.03,0,0-.02-.07-.02-.07,0-.03.03-.05.01-.12-.02-.05-.04-.06-.07-.09-.01-.01-.01-.03-.03-.05-.02-.02-.06-.02-.07-.03,0,0-.06-.12-.07-.14ZM18.43,11.99s-.03,0-.02.02.03,0,.02-.02Z" style="fill: #fee59b;"/>
      <path d="M14.11,7.51s.03,0,.03,0c0,0,0,.04,0,.04,0,0,.08.02.08.02.02,0,.03-.01.05,0,.02,0,.02.03.02.03,0,0,.07-.05.1-.06.03,0,.05,0,.08-.01.03,0,.02-.06.06-.04.04.01,0,.15.04.16s.09,0,.12,0c.02,0,.01.03.02.03.02,0,.08-.04.12-.03.06,0,.05.08.12.09.03,0,.07-.02.1,0,.01,0,.01.03.02.04.01.01.05.01.06.03.01.01.01.05.03.07.01.02.03.02.03.02,0,.01-.02.03-.02.04,0,.01,0,.03,0,.05,0,.03-.05.07-.05.08,0,.02.01.03,0,.05,0,.02-.06.02-.06.06,0,.07.04.06.09.05,0,.04-.01.08-.01.13v-.05c-.1,0-.07.08-.09.12,0,.01-.11.04-.04.08.06.03.02.02.04.07,0,.02.05.02.03.06,0,0-.01,0-.02,0-.01,0,0-.02-.04,0-.06.04-.04.1-.05.11,0,0-.03,0-.04,0-.04.02-.05.07.01.07-.02.03-.03.04-.06.03,0,0,0-.02-.02-.01v.03s-.07.04-.07.07c0,0-.01.01-.02.01,0,0-.02-.04-.04-.02,0,0-.03.07-.03.07h-.23c-.16-.06-.33.04-.47.13-.19.11-.16.14-.24.32-.06.14-.3.18-.42.12-.02,0-.1-.06-.08-.09,0,0,.17-.05.19-.06.16-.06.16-.15.26-.25.02-.01.04-.02.05-.04-.14-.02-.16.14-.26.21-.1.08-.43.13-.51,0,0-.01,0-.02,0-.03-.02-.08.04-.17-.01-.24,0,0,0,0,0-.01,0-.01-.01-.03-.01-.03,0-.11-.04-.14.04-.24.07-.08.18-.16.26-.25.13-.14.33-.37.41-.54,0,0,.02,0,.02-.02,0-.07-.07-.12-.02-.19s.25-.19.33-.23c.02-.01.09-.04.09-.05,0,0,0-.01,0-.02,0,0,0,0,.01-.01ZM14.13,7.55s-.04,0-.04,0c-.01.01,0,.12.05.1,0-.02,0-.09-.01-.1ZM14.39,7.64s-.02-.04-.03-.03.02.04.03.03ZM14.82,7.74h-.02v.03h.02v-.03ZM14.76,7.87s.06-.03.04-.05c-.02-.02-.02.03-.04.02-.01,0-.02-.02-.04-.02-.07-.02-.14-.03-.21-.01-.02,0-.03.03-.07.04-.03,0-.06,0-.09,0,0-.02.04,0,.03-.03,0,0-.03-.03-.05-.03-.04,0-.01.07-.05.08,0,0,0,0-.01,0-.01,0-.01,0-.02.01-.08.06-.11.17-.13.27.06,0,.06-.09.09-.13.02-.02.06-.05.08-.07l.1-.04s0,0,.01,0c.02,0,.06,0,.07-.01.01,0,.04,0,.04.01-.03,0-.14.05-.11.08.02,0,.05.02.06.02,0,0,.07-.02.08-.02h0s0,.03,0,.03c.08,0,.08-.08.11-.13,0,0,.01,0,.02-.01h0s.03-.01.04-.02c0,0,0,0,.01-.01ZM14.55,8.03c-.07.03-.12.09-.2.08l-.08.04c.1,0,.25,0,.29-.12ZM13.42,8.88c-.06-.05-.19.03-.19.1.05-.04.14-.08.16,0,0,.02-.02.11,0,.1,0,0,.07-.06.07-.07,0,0,0-.02,0-.03,0-.04,0-.08-.03-.11ZM13.36,9.1s-.03,0-.02.01c.02,0,.03,0,.02-.01Z" style="fill: #feedb5;"/>
      <path d="M15.16,8.22s0-.03,0-.03c.02-.01.03,0,.03.02,0,0-.02,0-.02.01,0,0,0,0-.01,0Z" style="fill: #feedb5;"/>
      <path d="M16.11,10.62s-.05.01-.06.01c0,0,0-.02,0-.02-.02-.01-.03.02-.04.03-.02.02-.05.02-.07.03-.02,0-.05.06-.06.01,0,0,.02-.09.03-.1,0-.02.03-.02.03-.05,0-.02,0-.16,0-.18,0-.01-.03-.03-.03-.05,0-.02.03-.03.03-.06,0-.03-.04-.11-.04-.14s.02-.05.02-.08c0-.03-.04-.04-.04-.06,0-.03.03-.09.03-.12,0-.01-.04-.01-.05-.03,0-.01,0-.03,0-.04,0-.03-.03-.04-.01-.07.02-.04.02-.04.03-.08,0-.02.07-.09,0-.08-.02,0-.06.05-.05,0,0-.01.02,0,.03,0,.01-.01.02-.07.03-.09,0-.01.04-.03.03-.05,0,0-.04,0-.04-.01,0,0,0-.07,0-.07,0,0,.04.02.06,0,0,0,0-.07,0-.07,0-.02-.04-.01-.05-.03-.01-.02,0-.06-.02-.09-.01-.02-.05-.03-.06-.05,0,0-.02-.08-.02-.08,0-.03.04,0,.07,0,.03,0,.08-.06.02-.07-.02,0,0,.07-.06.04,0-.05.04-.06.04-.07.01-.05.01-.1-.02-.14,0-.02.05-.01.05-.02.01-.01-.03-.14-.03-.16,0-.03.1-.08-.05-.04-.02-.02.04-.1.04-.12s-.02-.04-.02-.06c0-.03,0-.11,0-.14,0-.02-.04-.04-.05-.07,0-.05,0-.03-.01-.05,0-.03,0-.06-.02-.1-.01-.02-.03-.02-.03-.03,0-.01.01-.03,0-.05s-.03-.02-.04-.02c0-.01,0-.04-.01-.06-.01,0-.07-.01-.07-.02-.01-.03.03-.06.02-.08-.01-.04-.08.02-.1,0,.02-.12-.02-.07-.07-.11,0,0-.03-.05-.04-.06,0-.03.04,0,.06,0,.02,0,.06-.02.07,0,.02.02-.02.02-.02.02-.02.04.01.03.04.03h0c0,.05.02.02.02.02.01,0,.02,0,.03.01.05.01.14.04.18-.01,0,0,.02,0,.03,0v.04s.04-.01.04-.01v.04s-.1.02-.15.01c0,.09.02.05.05.05.03,0,.07,0,.1.01.03,0,.05.02.04.04,0,0-.05,0-.05.05-.01,0-.04,0-.04.01.07,0,.13.03.19.04l-.02.09s-.02,0-.03,0c-.02.01.12.04.13.04.01.07-.06,0-.07.04,0,.03.01.04.03.06h0s.07.06.08.06c0,.07-.05,0-.09.02-.06.04.02.1.02.12,0,.01-.01.03,0,.04,0,.01.03.01.03.02,0,.03,0,.1.01.12.03.12.06.05.08.05,0,0,.03.03.03.04,0,.03-.04,0-.05.02-.01,0-.04.1-.03.12,0,.05.07.11.07.19,0,.05-.02.1-.03.13,0,.04.03.12.03.16,0,.04-.02.11-.02.16,0,.03.04.08.04.12,0,.04-.04.08-.03.15,0,.02.04.03.04.06,0,.03-.03.05-.03.08h.04c.01.07.03.12.04.19,0,.01,0,.03,0,.04,0,.02.05.04.05.04,0,.04-.06.04,0,.1.02.03.05.02.06.03.02.02,0,.07.06.1.04.02.05-.01.04-.05,0,0,.03.02.04.02,0,0,.02.03.02.03-.03.04.01.05.01.01.04.03.08.07.12.1l-.06.05s.04.05.04.11c0,.04-.02.05-.02.08,0,.05,0,.1-.02.15.01.02.03.02.05.02,0,0,0-.03.03-.02.01.06-.02.03-.03.05,0,0-.04.05-.04.05-.01.03-.01.11-.02.12,0,0-.02,0-.03,0,0,0-.05.08-.05.09,0,.01.02.06.02.06,0,0,.05,0,.04.02,0,0-.03.02-.03.03,0,.02,0,.05,0,.07,0,.01-.03.01-.04.03s-.06.08-.06.09c-.01.04.02.04.02.04,0,0-.02.06-.02.06-.02.01-.05-.03-.06-.02,0,0,0,.03-.02.04-.02.01-.05-.02-.08.02-.04.06.04.05.04.06.03.03-.05.04-.08.06,0,0-.06.07-.06.07-.01.02,0,.04-.01.05-.01.02-.1.03-.13.01.05.11-.11.06-.12.06-.02.02.02.04.02.04,0,0-.02.07-.02.07-.01,0-.05,0-.07.02-.02.01-.02.04-.04.06,0,0-.08.05-.09.05-.02,0-.05-.02-.06,0-.03.02-.03.13.03.09,0,0,0-.16.07.04-.03.05-.16,0-.17.04-.01.03.02.02.02.03,0,.02-.02.01-.02.02-.03.04.02.03.03.03.04.04-.07.12-.07.14,0,.05.05.04.05.05,0,0,0,.07.01.09s.02.03.02.05c-.09,0-.07,0-.07.06s-.13-.01-.15,0c-.02.01-.03.1-.03.11-.02.02-.09-.03-.05.09-.05,0-.1,0-.15.01l.04.02s-.08.03-.12.02c.03-.02.06-.01.05-.04-.06,0-.09-.02-.07.05,0,0,0,0-.01,0-.05,0-.11.02-.14-.02,0-.01-.08-.17-.08-.19,0-.06-.03-.15-.03-.21,0-.12,0-.06.06-.09.01,0,.05-.06.06-.07.02-.02.05-.01.04-.06,0-.02-.05-.09-.02-.1s.04.13.03.16h.03s0-.08.01-.08c.01,0,.04,0,.06-.01,0,0,0-.03.01-.04.01-.02.04-.04.04-.08-.05-.01-.02.03-.06.05-.08.04-.02-.08-.02-.09,0-.03-.04-.08.02-.06.01,0,0,.03.03.02.02,0,.08-.07.08-.08,0,0-.03-.03-.02-.04,0,0,.03,0,.04,0,.01,0,.02-.05.04-.07,0-.01.03-.02.04-.03.01-.02-.01-.06,0-.06,0,0,.03,0,.03,0,0,0-.01.05.02.04.01-.04.04-.05.06-.07.01-.01.01-.04.03-.05.04-.01.03.05.06.03,0,0,.03-.05.03-.05.02-.06-.03-.08.08-.07v.07c.07.03.04-.13.03-.14,0,0-.03,0-.04,0,0-.06.05-.06.1-.09.01.01-.04.1.03.11.03,0,.01-.03.03-.04.02-.02.08,0,.1.01,0,0,.03.06.05,0,0-.02-.01-.03-.01-.04,0-.04.02-.06-.06-.04-.01-.09.07-.03.09-.03.03,0-.01-.07.02-.09.03,0,.06.07.09,0,.02-.05,0-.07,0-.1,0-.02.02-.03.02-.04,0-.01-.05-.05-.03-.09,0,0,.04.02.04.01,0,0,.03-.09,0-.11,0,0-.09,0-.07-.03.03-.06.1,0,.12,0,.02-.02,0-.09,0-.1,0,0,.07,0,.07-.03,0,0,0-.03-.01-.03-.01,0-.05.01-.04-.02,0-.04.03-.03.06-.03v-.03s-.14-.01-.14-.01c0-.09.1-.03.11-.11,0-.03,0-.05,0-.09-.02,0-.03,0-.03.01ZM16.02,8.04s-.03,0-.02.02.03,0,.02-.02ZM16.1,11.77s-.03,0-.02.02.03,0,.02-.02ZM15.56,12.59s-.05.02-.03.03.05-.02.03-.03Z" style="fill: #feebad;"/>
      <path d="M16.67,10.44s.08.04.12.05c.04.02.08.04.12.05s.04.02.05.03c-.04.04.06.07.08.07.02,0,.05-.01.07,0-.02.09,0,.11.09.09,0,.04-.06.06-.01.09.02,0,.06,0,.04.03-.02.05-.1-.04-.11-.03-.01.05.02.12,0,.16,0,.03-.1.02-.1.09,0,0,.04.02.04.03,0,0-.02.03-.02.06,0,.04.03.06.02.1-.09,0-.06.02-.08.07,0,.03-.03.06-.04.08,0,.01,0,.03,0,.03,0,0-.06-.02-.07-.01,0,.02.02.04.02.06,0,.04-.05.11-.1.1-.01.07.06,0,.05.05h-.09s.01.06.01.08c0,0-.02,0-.02.01,0,.02,0,.06-.03.07-.02,0-.02-.03-.03-.03-.03-.01-.03.03-.04.03,0,0-.04-.01-.06,0-.13,0-.07.07-.08.09,0,0-.06.03-.07.03-.01,0-.03-.01-.05,0-.04.02-.03.07-.03.07,0,0-.07,0-.09,0-.01,0,0,.04-.03.06-.04.04-.1.02-.1.11,0,.02.02.03.02.04,0,.02-.03.06,0,.1-.09-.02-.05.05-.07.08,0,0-.05.01-.07.02-.09.06-.06.12-.07.21,0,0,.06-.03.04.05,0,.03-.03.03-.04.04-.05.08-.02.14-.04.21-.01.04-.06.05-.06.1-.05,0,0-.06-.05-.04.01.08-.03.05-.06.07-.02.01-.02.05-.04.07-.01.02-.05.01-.03.07,0,.01.03.01.03.02.01.02-.02.02-.04.03-.01,0,0,.03-.01.03-.06.03-.08-.03-.14.02s-.03.07-.12,0c0,.04-.05.04-.05.05-.01.01.01.04,0,.05,0,0-.03.01-.04.03-.01.02-.02.05-.04.06-.02.02-.04,0-.06.01-.06.03-.1.06-.15.09-.02.01-.07,0-.08.05,0,.02,0,.03,0,.04,0,.05-.06,0-.07.01-.03.03.05.03.04.06-.01,0-.03.03-.03.04,0,0-.01,0-.02.01-.02.01-.06,0-.07.04h0s.1-.02.14-.02c.04,0,0,0,.03,0,0,0,.05-.01.06-.01.01,0,.04.12.11.07.02-.01,0-.05.03-.04.02.01.01.07.03.1-.14.06-.28.11-.41.18-.06.03-.23.11-.27.16-.08.12.07.26.15.34-.01.04-.09.05-.12.08-.03.04-.04.11-.07.14,0,.02.09.09.07.12l-.1-.05c-.11-.09-.23-.17-.34-.25-.03-.02-.05-.03-.09-.05,0,0,0,0-.01,0-.02-.03-.07-.05-.08-.09,0-.02,0-.05,0-.07,0,0-.02,0-.02-.01,0-.02.01-.05.01-.07,0-.04-.02-.06-.02-.12,0-.02.03-.03-.01-.03,0-.03.02-.02.02-.03,0-.01,0-.02,0-.04.04-.16.17-.2.29-.28.07-.05.13-.11.2-.16,0,0,.02,0,.03,0,.05-.03.09-.11.12-.13.02-.02.08-.02.07-.07.02-.02.04-.03.05-.04.03-.03.02-.03.04-.05.02-.02.07-.03.06-.08.03-.03.07-.07.11-.1.02-.02.05-.02.07-.04,0,0,0-.02.03-.03.06-.03.17-.07.24-.07.03.02.1.02.13,0,0,0,.01,0,.02,0,0,0,0,0,.01,0,.01.06.06.02.09.02,0,0,.01,0,.02,0,0,0,.06.03.04-.02,0-.02-.04-.02-.05-.03-.05-.03-.08-.07-.15-.07-.02,0-.03.01-.04,0-.04,0-.07-.02-.11-.02l-.04-.02s.1,0,.15-.01c-.03-.12.04-.07.05-.09,0,0,.01-.09.03-.11.01,0,.15.07.15,0s-.02-.06.07-.06c0-.02-.02-.03-.02-.05s0-.08-.01-.09c0,0-.05,0-.05-.05,0-.02.11-.1.07-.14,0,0-.05,0-.03-.03,0,0,.02,0,.02-.02,0,0-.03,0-.02-.03.01-.03.14,0,.17-.04-.08-.2-.06-.05-.07-.04-.06.04-.06-.07-.03-.09.02-.01.05.01.06,0,0,0,.08-.05.09-.05.02-.02.02-.05.04-.06.02-.01.06,0,.07-.02,0,0,.02-.07.02-.07,0,0-.04-.02-.02-.04,0,0,.17.05.12-.06.02.02.12,0,.13-.01,0,0,0-.03.01-.05,0,0,.06-.07.06-.07.02-.02.1-.02.08-.06,0,0-.08,0-.04-.06.03-.04.05,0,.08-.02.02,0,.02-.04.02-.04.01,0,.05.03.06.02,0,0,.02-.06.02-.06,0,0-.03,0-.02-.04,0,0,.05-.08.06-.09s.03-.02.04-.03c.01-.02,0-.05,0-.07,0-.02.03-.02.03-.03.01-.03-.03,0-.04-.02,0,0-.02-.05-.02-.06,0,0,.05-.09.05-.09.01-.01.03,0,.03,0,0,0,0-.09.02-.12,0,0,.04-.05.04-.05.01-.01.04.01.03-.05-.03-.01-.02.02-.03.02-.02,0-.04,0-.05-.02.03-.05.01-.1.02-.15,0-.02.02-.03.02-.08,0-.06-.03-.06-.04-.11l.06-.05ZM16.74,11.73v-.02s-.02-.02-.04-.02v.03s.04,0,.04,0Z" style="fill: #feeaaa;"/>
      <path d="M18.65,13.55c.11.02.21.11.32.15,0-.03-.03-.02-.04-.04-.06-.12.07-.14.15-.12.01-.03-.02-.02-.02-.03-.01-.06.06-.05.06-.06s0-.05,0-.06c0,0,.07-.03.08-.05,0-.01,0-.04,0-.06.01-.03.08-.02.04-.11-.02-.06-.19-.11-.04-.16.02-.03-.08-.08-.09-.07-.01,0-.02.09-.06,0-.1.06-.06-.04-.07-.05s-.05-.02-.06-.03c0-.01-.02-.09-.02-.1,0,0,.05,0,.05-.01,0-.01-.03-.06.01-.08.03-.02.04.02.06.02,0-.05-.08-.03-.06-.1.06-.02.05.05.12.03,0-.03-.01-.06,0-.08s.02-.04.02-.06c0-.02-.01-.04-.01-.05,0-.02.03-.03.03-.05,0-.03,0-.06,0-.09-.01-.01-.08.05-.06,0,0-.01.08-.02.11-.05,0,0,.05-.08.05-.08,0-.01-.01-.08.02-.09.03,0,.03.05.04.07.04.07.11.02.08-.02,0,0-.03,0-.03-.03,0-.06.07,0,.07,0,.05,0,.02-.05.12.03.02.01.04,0,.03.05.04-.03.08,0,.08.05s-.04.07.06.07c-.01.03-.01.1.03.11.02,0,.04,0,.05,0,.02,0,.03.01.07.02.02,0,.04.03.06.03,0,0,.01-.02.02-.03.02-.02.04-.04.04-.04.01,0,.07-.03.09-.03.02.02-.13.25-.14.28,0,.02,0,.04,0,.04-.03.12-.25.31-.31.42-.1.16-.03.28.1.39.1.08.33.15.31.31,0,.06-.16.27-.21.32-.09.09-.21.08-.32.11-.33.09-.72.22-1,.42-.11.08-.18.15-.18.3-.08,0-.17-.04-.25.01-.04.03-.03.1-.07.14-.03,0-.09-.05-.1-.05,0,0-.02.02-.04.03-.02.01-.11.04-.12.05,0,.01.01.04,0,.04,0,0-.05-.02-.05-.01-.02.03.02.03.02.03,0,0,0,0,.01.01,0,.02,0,.04-.02.03-.05-.01-.04-.06-.05-.06,0,0-.05,0-.06,0-.02.01,0,.06-.01.08,0,.01-.04,0-.05.02-.02.02-.05.05-.07.06l.04-.16c.05-.09.12-.15.17-.23.06-.1.07-.24.14-.33.09-.12.47-.24.62-.31.14-.06.58-.28.65-.4.04-.06,0-.08-.05-.11-.1-.07-.25-.14-.36-.21ZM19.08,12.7s-.05.04-.04.06h.05s0-.06-.01-.06ZM19.43,13.46c0,.05.03.09.06.13.02.03.18.19.21.19.01-.01.02-.02.02-.04,0-.07-.24-.22-.28-.28Z" style="fill: #fde395;"/>
      <path d="M18.5,10.35s.03.01.04.01c0,0,0,.01,0,.02-.02,0-.04.01-.05.03,0,0,.03.11.03.11.01.02.08.05.09.06.01.01,0,.04.02.06.02.02.08.02.09.03,0,0-.01.04-.01.06,0,.02.03.09-.01.08-.01,0,0-.04-.04-.03,0,0,0,.02-.01.02-.04.02-.09.06-.11.07-.01,0-.17.02-.14.05l.03.02h-.1c0,.06.06.04.11.07.04,0,.07.04.1.06-.02.02-.01.08-.01.1,0,.04.04.06.02.11,0,.01-.03.01-.04.03-.01.02-.01.06-.03.08-.03.03-.08-.02-.12.03-.01.01,0,.03-.01.04-.02.04-.11.13-.13.16-.02.02-.1.03-.12.06-.02.02,0,.05-.01.06-.02.03-.1-.03-.16.02,0,0,0,.03-.02.04-.02.02-.06.02-.08.04-.02.02-.02.05-.03.05-.04.01-.13-.05-.11.03-.02,0-.03-.03-.06-.02-.03.01-.09.15-.11.16-.03,0-.08-.02-.1-.02-.01,0-.02.02-.03.02-.01,0-.04,0-.05.02s0,.04,0,.04c0,0-.06-.01-.08-.01-.02,0-.07.03-.1.03-.01.02.01.04,0,.06,0,.01-.03.01-.03.02,0,.03.03.05,0,.09-.02.04-.06.02-.08.05-.02.02-.01.04-.03.06-.02.03-.09.08-.09.1-.01.05.07.08.06.11,0,.02-.05.04-.06.06,0,.01,0,.03,0,.04,0,.02-.04.02-.04.03,0,.02.02.03.02.06s-.07.14-.06.15c.02.02.04-.06.06-.03,0,0,0,.09-.04.08-.04,0-.03-.05-.06-.04,0,.03.02.17,0,.19,0,0-.06.07-.06.07-.02,0-.05,0-.07,0-.01.03.02.05.02.07,0,.07-.07.02-.07.03,0,0,0,.06-.01.07.04-.01.12,0,.16-.02.01,0,.01-.03.03-.03.03,0,.07.02.09.02v.02c-.15.03-.32.05-.47.05-.06-.02-.14-.01-.21-.01-.02,0-.05,0-.06.01-.04,0-.11,0-.14,0-.02,0-.06.09-.08.11-.15.17-.51.26-.72.34-.01-.02,0-.09-.03-.1-.02-.01-.01.03-.03.04-.06.05-.1-.06-.11-.07,0,0-.05,0-.06.01-.02,0,0,0-.03,0,.06-.05.14-.06.2-.09l-.02.05s.08.03.1-.01c.06.07.08.02.11.02.01,0,0,.03.03.03,0,0,.06-.01.07-.02.02,0,.02-.03.03-.03.02,0,.04,0,.06,0,.04-.01.08-.05.12-.05,0,0,0-.09.01-.11,0-.01.03,0,.04-.02,0,0,.04-.08.04-.09,0-.01,0-.03,0-.04.01-.02.07,0,.1-.01,0,0,.09-.03.09-.04.02-.02,0-.05.01-.06,0,0,.03,0,.05-.01.02-.02.02-.12.08-.13,0,.02-.04.09-.03.1.07-.04.15-.14.17-.21.02-.01.05-.08.05-.1v-.27s.03-.06-.02-.06c0-.03-.01-.06-.01-.07.03,0,.05-.04.01-.03,0-.09.03-.13.04-.19h.01s.09-.05.07-.1c.01-.01.07.04.09.02,0,0-.01-.07.04-.1.02-.01.04,0,.06-.02s.03-.04.05-.05c.02,0,.06,0,.07,0s0-.03,0-.04c0,0,.1-.03.11-.05.01-.01.01-.04.04-.06.03-.02.13-.03.17-.05,0,0,.06-.05.07-.05.01-.01.02-.05.03-.05.02-.01.04,0,.06-.01.01,0,.02-.03.02-.04,0,0,.11,0,.08-.05,0,0-.05-.01-.03-.03,0,0,.05,0,.07-.02.05-.04.03-.11.16-.06,0-.02-.03-.05-.02-.07,0,0,.09-.04.1-.04.04-.01.06.01.1-.04,0-.01.01-.04.01-.05,0,0,.03,0,.05,0,.02,0,.05-.05.06-.05.01,0,.03.02.04.02.02,0,.05-.03.07-.03.03,0,.06.02.09,0,0-.02-.01-.04-.02-.05-.02-.08.06-.05.07-.06,0,0,0-.03,0-.04.02-.07,0-.06,0-.08,0-.01.03-.05.04-.08s0-.07,0-.1.05-.07.06-.1c0-.01,0-.03,0-.03,0,0,.05.02.06,0,.03-.05-.01-.06-.01-.06,0-.04.08-.07.02-.12-.02-.02-.07-.01-.09-.04,0-.02.06-.03.04-.07-.03-.01-.04.04-.07.02,0,0-.02-.06-.02-.07,0-.07.09-.02.11-.03.02,0,.02-.04.02-.04,0,0-.12,0-.14.01,0-.03.05-.03.06-.03.05,0,.1-.01.14-.02.04,0,.07-.02.11-.03h0s.02,0,.02,0c0,0,0,0,.01-.01.02,0,.05,0,.07,0ZM16.87,12.7s0,.06.02.05c.03,0,.02-.06-.02-.05ZM15.27,13.9s-.03,0-.02.02.03,0,.02-.02Z" style="fill: #fee8a4;"/>
      <path d="M14.23,12.56c.03.15.06.26.15.39.1.14.21.23.36.31-.11.15-.26.2-.44.21-.06-.02-.15-.02-.2,0-.17,0-.34-.04-.51-.07-.06-.01-.12-.02-.18,0-.1.03-.16.08-.2.18-.03.07-.02.11-.01.18.03.18.08.52.16.67-.06.02-.07-.03-.08-.03-.01,0-.04.01-.05,0s-.02-.04-.05-.05c-.07-.02-.03.05-.03.06-.03,0-.06-.02-.09,0-.02,0-.02.03-.03.04,0,0-.02,0-.02.01-.01.02,0,.08-.02.12-.02-.18-.05-.37-.11-.53,0,0,0,0,0-.01,0-.04,0-.09-.03-.12,0,0,0,0,0-.01-.03-.14-.05-.2-.13-.32-.02-.03-.05-.05-.05-.1-.01-.08.1-.35.16-.43.03-.05.05-.08.11-.1.05-.02.11-.03.16-.04.18-.05.36-.1.54-.16.06-.02.21-.11.27-.11.05,0,.09.1.12.14.04.06.08.11.13.16,0-.06-.03-.12-.05-.17,0-.01,0-.02-.01-.03.05,0,.14.01.17.05.02.02,0,.04.03.04-.03-.11-.09-.23-.06-.34,0,.03,0,.04.01.06ZM13.29,13.2s-.03,0-.02.02c.05,0,.1,0,.15,0,.05,0,.09,0,.14-.01,0-.02-.04-.02-.05-.02-.07,0-.15,0-.22,0ZM13.3,14.34h-.03v.04h.03v-.04Z" style="fill: #feebad;"/>
      <path d="M14.86,8.95s.08.08.14.06c0,.03-.04.05-.04.08,0,.02.04.09.03.12.02,0,.03-.03.05-.03.01,0,.04.02.04.03,0,.01-.04.01-.05.02-.04.03.02.05.05.03.02-.02,0-.07.03-.07.04.03.01.05.02.09s.03.06.03.08c0,.01-.01.03,0,.04,0,0,.07-.02.09-.01,0,.03,0,.07,0,.09-.02.02-.07.02-.07.07,0,.02.07.1.06.13-.01.01-.1-.06-.12-.02,0,.02.03.05.04.05.02,0,.08,0,.09.01.01.05-.03.04-.06.05-.01.04.04.05.05.07.02.04-.03.02-.04.04,0,.01,0,.05-.02.07,0,.02.03.03.03.05,0,0-.04.05-.05.05-.02,0-.04-.03-.07-.02,0,.06,0,.15-.06.19,0,.04.05.02.05.03,0,0,0,.04,0,.05,0,.02,0,.03,0,.05,0,0-.07.11-.07.12-.01.01-.04.03-.04.03,0,0,.04.05.04.09,0,.02-.03.05-.02.08l-.05-.02s-.01.06-.02.06c0,0-.06,0-.06.03-.01.03.04,0,.06.03,0,0,0,.11,0,.13-.03.01-.04-.03-.05-.03-.08-.02,0,.12-.06.12-.06,0-.03-.05-.04-.06,0,0-.06,0-.06,0-.04.03.04.11.03.12-.02.02-.05-.06-.07-.03-.01.01.05.07,0,.1-.06.03-.05-.07-.09-.04,0,0,.01.05,0,.07,0,.04-.07.04-.07.04,0,.01.01.05.01.06,0,0-.03,0-.02.03.01.04.05.01.03-.03.03-.01.05.03.06.03.01,0,.04-.03.07-.02.01.07-.02.03-.06.05-.02.02-.04.09-.06.09-.02-.01-.02-.04-.03-.06,0-.01-.03-.02-.04-.03-.01-.02,0-.07-.03-.08-.02,0-.04,0-.05,0,0,0,0-.03-.02-.03-.02,0-.03.01-.04.02-.08.02-.05-.06.03-.04,0-.02-.02-.04-.02-.05,0-.03.03-.06-.01-.07.08-.1-.01-.05-.04-.07-.02-.01,0-.08,0-.08,0,0-.04-.01-.04-.03s.04-.03.04-.06c0-.04-.04-.13.01-.16.02-.01.03,0,.03-.02.01-.08-.03-.04-.04-.05s.03-.07-.04-.03c.01-.02,0-.06,0-.06s0,0,0-.01c.03,0,.03,0,.01-.02,0-.01,0-.02.01-.03.04-.05.05-.12.06-.18,0,0,0-.02,0-.02.02,0,.03,0,.02-.02h-.01s0-.02.01-.03v-.03s0,0,.01-.01c.04-.04.06-.11.07-.16.02-.04.05-.05.04-.1h.02s0-.08.04-.1l.03-.12s.03-.05.04-.09c.03,0,.02-.02.03-.03.08-.17.1-.26.13-.45,0-.02.02-.03-.01-.06.02-.06.05-.02.09-.03.02,0,.02-.01.03-.02,0,0,0,0,.01-.01ZM15.13,9.76h-.04v.02h.04v-.02ZM15.01,10.36s-.01-.06-.04-.04c0,.02.02.06.04.04ZM14.77,10.82h-.03v.02h.03v-.02Z" style="fill: #feedb5;"/>
      <path d="M16.11,10.62s.01-.02.03-.01c0,.03.01.05,0,.09-.01.08-.1.02-.11.11h.14s0,.04,0,.04c-.03,0-.06,0-.06.03,0,.03.03,0,.04.02,0,0,.01.03.01.03,0,.04-.07.03-.07.03,0,0,.02.08,0,.1-.01,0-.09-.05-.12,0-.01.03.07.02.07.03.02.01,0,.1,0,.11,0,0-.04-.02-.04-.01-.02.04.03.08.03.09,0,.01-.02.02-.02.04,0,.03.02.06,0,.1-.02.07-.05-.01-.09,0-.04.01.01.08-.02.09-.02,0-.1-.06-.09.03.08-.02.05,0,.06.04,0,.01.02.02.01.04-.03.05-.04,0-.05,0-.02-.01-.08-.03-.1-.01-.01.01,0,.04-.03.04-.07,0-.01-.09-.03-.11-.04.02-.1.03-.1.09.01,0,.04,0,.04,0,0,0,.04.17-.04.14v-.07c-.1,0-.05,0-.07.07,0,0-.03.05-.03.05-.02.02-.02-.04-.06-.03-.01,0-.02.04-.03.05-.02.02-.05.03-.06.07-.03,0,0-.04-.02-.04,0,0-.03,0-.03,0,0,0,.02.04,0,.06,0,0-.03.01-.04.03-.01.02-.03.06-.04.07-.01.01-.04,0-.04,0-.01.01.02.03.02.04,0,.01-.06.07-.08.08-.03,0-.02-.02-.03-.02-.06-.02-.02.03-.02.06,0,.01-.06.13.02.09.04-.02,0-.06.06-.05,0,.04-.02.05-.04.08,0,.01,0,.03-.01.04-.01.02-.04,0-.06.01-.01,0-.01.07-.01.08h-.03s0-.17-.03-.16.01.09.02.1c0,.05-.02.03-.04.06-.02.02-.05.07-.06.07-.05.03-.07-.02-.06.09,0,.06.02.15.03.21,0,.02.07.18.08.19h-.01c-.07-.09-.12-.23-.13-.35.02-.07,0-.16.01-.24,0,0,.01,0,.02-.01,0,0,.03.03.03-.03,0-.03,0-.02-.03-.02,0-.03,0-.06,0-.09,0-.01,0-.02,0-.03,0,0-.02.02-.03.02-.01,0-.02,0-.04.02-.02.03-.06.14-.07.17-.05,0-.06.04-.01.04,0,.01,0,.03,0,.04-.04-.02-.04.11-.03.12,0,0,.02,0,.02,0,0,0,0,.03.01.04-.08.02,0,.1,0,.14,0,.02,0,.03,0,.04,0,.04.04.09.03.14,0,0-.08.04-.09.04-.05,0-.18-.2-.21-.25s-.02-.05-.03-.09l.05-.05h-.09s-.01-.04-.02-.07c.03-.03.09.02.1.01,0,0,0-.02.01-.04.01-.02.07-.05.08-.06,0-.01-.02-.03-.02-.04,0-.03.03-.04.03-.06,0-.02-.02,0-.02-.06.01,0,.03,0,.04-.01.02-.02-.03-.09-.04.01-.02,0-.04.01-.06.01,0-.03.02-.05.03-.07,0-.01,0-.04,0-.04,0,0,.07,0,.08-.04,0-.02-.02-.05,0-.06.04-.03.14.01.15-.05,0-.05,0-.03.02-.07,0-.01.03-.1.03-.11,0,0-.04.02-.03-.03.05.02.07-.06.1-.02,0,0,.02.06.03.04,0,0,.01-.08.01-.09,0-.02-.03-.05-.02-.06,0-.01.03-.02.04-.03.02-.02.02-.07.03-.08.01-.01.04,0,.05-.02,0,0,.04-.08.06-.1,0,0,.04-.03.01-.04,0,0,0,0,.01-.01s0,0,.01-.01c0,0,0-.01.01-.02.09-.07.18-.14.28-.2.07-.05.12-.08.18-.13.04-.03.08-.06.13-.09.05-.03.05-.02.1-.06.03-.03.06-.05.1-.07.03-.02.07-.03.1-.05.03.05.07,0,.02-.02.01-.01.03-.04.03-.04.01,0,.04,0,.06,0,.05-.02.04-.06.04-.1Z" style="fill: #feecaf;"/>
      <path d="M18.22,13.97s.03.07.04.09c.02.02.06-.02.06.08,0,.03-.03,0-.05.02-.01,0,0,.03-.01.04,0,.02-.03.02-.03.05,0,0,0,0-.01,0-.03,0-.03,0-.05.03-.1.05-.19.1-.29.15-.02,0-.04,0-.06.02-.13.11-.13.26-.19.4-.06.12-.27.26-.37.36-.09.09-.29.3-.31.43-.01.07,0,.16,0,.23-.11,0-.21-.06-.31.02-.06.04-.06.09-.09.14-.02,0-.02,0-.02.02,0,0-.01,0-.02.01-.05-.05-.12-.09-.09.02-.02,0-.04,0-.06,0,0-.03.05-.09.04-.12-.03-.05-.11-.02-.16-.02.02.08,0,.04-.03.06-.03.01-.04.06-.07.07s-.05-.01-.09,0c-.06.04-.03.1-.04.11,0,0-.11.04-.12.05,0,0-.01.03-.02.04,0,0-.02,0-.02.01,0,.01.05.1-.08.08.07-.15.13-.32.27-.42l.03-.02s.02,0,.02-.01c.02-.01.04-.01.06-.03.12-.08.12-.23.17-.36.04-.09.29-.26.39-.34.23-.19.65-.54.82-.77.13-.18.09-.23-.02-.41.06.04.07.06.11.14.03.07.04.1,0,.18,0,.01-.05.06-.04.07.01.01.03-.02.05-.02,0,0,0,.02,0,.02.02.01.03-.02.05-.03.02,0,.04,0,.05,0,0,0,0-.02.01-.02.01,0,.05.02.06.01,0,0,0-.03.01-.04.01-.01.05,0,.07,0,.02,0,.03-.03.04-.03.01,0,.03.02.04.02.04,0,.05-.06.1,0-.02-.09.07-.12.1-.19.01-.03.01-.11.02-.14,0-.02.03-.02.03-.02ZM16.53,15.88s-.03,0-.02.02.03,0,.02-.02Z" style="fill: #fde494;"/>
      <path d="M16.23,8.68s.11.1.14.12c0,0,.01,0,.02.01,0,0,0,0,.01,0,.03.02.06.05.09.04h0s.04,0,.05.01c-.03.01.01,0,.01.02-.02.04-.08,0-.09.06-.01,0-.02,0-.03-.01,0-.11-.03-.03-.04-.02,0,0-.03-.01-.04,0-.03.04.11.08.12.09,0,.01,0,.08.02.08.02,0,.05-.04.07-.04.09,0,.04.09-.02.08-.02,0-.03-.02-.04-.02,0,0,0,.02-.01.02-.03,0-.08-.05-.1-.06-.03-.02-.09-.05-.11-.07,0,0-.02-.02-.02-.02-.03-.05,0-.05,0-.08.01-.06-.03-.14-.06-.19,0,0,.01,0,.02,0Z" style="fill: #fde9a5;"/>
      <path d="M15.79,7.75c.38.06.65-.3,1.03-.05.14.1.25.25.39.34v.05c-.2-.06-.41-.23-.63-.18-.02,0-.06.01-.06.03.26-.01.35.36.53.45h.01s0,.01.01.01c.03.03.07.02.11.01,0,.01,0,.03,0,.05,0,0-.1.07.03.05v.02s-.04,0-.05.01c-.01,0-.03,0-.02.02,0,.02.02,0,.02,0,.01,0,.02.01.02.01-.02.03-.06.05-.04.09,0,.03.09.02.08.05-.01.05-.14,0-.1.06.01.02.04,0,0,.05-.07,0-.1.04-.18.04s-.15-.02-.22,0c-.16-.03-.36-.15-.48-.17,0,0,0-.01,0-.02,0-.04,0-.08-.02-.12.12.08.35.14.49.13.02,0,.03,0,.04-.02-.11,0-.22-.04-.32-.07-.08-.03-.14-.06-.22-.07-.01,0-.04-.01-.03-.02.04-.02.08-.03.06-.09.1.04.27.09.38.1.01,0,.06,0,.06-.01l-.49-.16s0-.03.02-.02c.01,0,0,.04.05.03,0,0,.04-.05.04-.06,0-.03-.04-.01-.06-.02-.02,0-.02-.03-.03-.04.11.04.29.09.4.1.01,0,.05.01.05,0-.18-.1-.38-.12-.58-.17-.02-.01-.04-.03-.03-.06.01-.04.09.03.07-.04.15.02.27.01.43.07.04.02.11.06.14.07.02,0,.02-.01,0-.03-.13-.15-.49-.14-.67-.15l.02-.09s.03,0,.04,0c.03,0,.1.04.1-.01.01,0,.03,0,.04,0,0,0,.03.03.02-.01l.16-.06s-.05,0-.07,0c-.16.01-.28.03-.44.03,0-.05.05-.05.05-.05.02-.02-.01-.04-.04-.04-.03,0-.07,0-.1-.01h0ZM16.72,8.21l-.02-.02s0,.02.02.02Z" style="fill: #fde9a5;"/>
      <path d="M14.8,14.69s0,.02.01.03.03,0,.03,0c.09.03.16.12.26.12.03,0,.06-.01.1-.01.08,0,.08.04.13.07s.16.07.19.1.03.1.09.12c0-.07-.02-.15-.08-.19-.02-.01-.07-.01-.06-.03,0,0,.07-.09.08-.1.07-.08.1-.1.2-.06.15.05.38.25.5.37.03.03.08.09.04.11-.19.06-.38.18-.58.19-.07-.01-.15-.05-.22-.04-.19,0-.26.17-.48,0-.17-.13-.32-.32-.5-.46l.1.05s-.08-.1-.07-.12c.04-.03.04-.1.07-.14.03-.03.11-.04.12-.08.03.03.05.03.09.07ZM14.87,14.75h0s0,0,0,0ZM14.62,14.98h0s0,0,0,0Z" style="fill: #fee59b;"/>
      <path d="M20.47,10.04l.04.03h.21s0,0,.01,0,0,0,.01,0h0s.03.03.05.03c.04,0,.05.01.09.02,0,0,.03.04.06.05.02,0,.13.02.14.04.03.05-.04.09-.07.1.02.02-.02.13-.03.14-.04.04-.14,0-.15,0,.01.06.11.05.12.11-.13-.04-.26-.14-.41-.14h-.2,0s.09.03.13.03c0,.03.01.02.03.02.04,0,.2.03.21.04.01,0,0,.03.01.03.01.01.06.03.04.07,0,0-.08.02-.09.02-.04,0-.11-.08-.14-.08-.02,0-.04.01-.06.01-.05,0-.14-.04-.19,0-.03.02.02.04.03.04,0,0,0,.02.01.02.02,0,.06-.02.09,0,.01.1-.19.04-.2.05-.02.02.02.03.02.04.02.04,0,.06,0,.08,0,.03.05,0,.05,0,.02.02-.03.02-.04.03,0,0,0,.05,0,.05,0,0,.05,0,.07.01.01,0,0,.03,0,.03,0,0-.09,0-.11-.01-.07-.02-.15-.05-.22-.06-.05,0-.13.02-.16,0,0,0-.04-.06-.04-.07,0-.02.01-.04,0-.06,0,0-.06-.09-.06-.09-.02-.02-.06-.02-.07-.03-.05-.04.05-.13.07-.17,0-.02,0-.04.02-.06.02-.03.07.01.05-.07.19-.14.43-.28.67-.29Z" style="fill: #fde494;"/>
      <path d="M18.08,10.44s.13-.02.14-.01c0,0,0,.04-.02.04-.02,0-.12-.04-.11.03,0,.01.02.06.02.07.04.02.04-.03.07-.02.02.04-.05.04-.04.07.02.03.06.02.09.04.06.05-.03.08-.02.12,0,0,.05,0,.01.06-.02.03-.06,0-.06,0,0,0,0,.02,0,.03-.02.03-.05.06-.06.1s0,.07,0,.1-.04.07-.04.08c0,.03.02.01,0,.08,0,.01,0,.03,0,.04,0,0-.09-.03-.07.06,0,.01.03.03.02.05-.03.02-.06,0-.09,0-.02,0-.05.03-.07.03-.02,0-.03-.02-.04-.02,0,0-.04.04-.06.05-.02,0-.05,0-.05,0,0,0,0,.03-.01.05-.03.05-.05.03-.1.04-.02,0-.1.04-.1.04-.01.02.02.05.02.07-.12-.04-.11.02-.16.06-.02.01-.06.02-.07.02-.02.02.02.03.03.03.03.04-.07.04-.08.05,0,0,0,.03-.02.04-.02,0-.05,0-.06.01-.01,0-.02.04-.03.05,0,0-.06.05-.07.05-.03.02-.13.02-.17.05-.02.02-.02.05-.04.06-.02.01-.11.04-.11.05,0,.01,0,.04,0,.04s-.05,0-.07,0c-.02,0-.03.04-.05.05s-.04,0-.06.02c-.05.03-.03.09-.04.1-.01.01-.08-.03-.09-.02.01.04-.03.13-.07.1.01-.01.05-.07.04-.09h-.06s.05-.02.04-.06c-.02-.01-.11.06-.06-.02.04-.06.08-.04.12-.05.02,0,.03-.03.04-.03.01,0,.03.03.06.02,0-.12.07-.09.16-.07.01-.05-.03-.02-.04-.05,0-.01,0-.04.02-.05.03,0,.04.03.06.03.1.02.05-.05.08-.08.02-.01.04,0,.05,0,0,0,0-.02.02-.03.07-.04.05,0,.09-.08,0,0,.02,0,.02-.01.01-.05,0-.08.08-.08.03,0,.04.02.04.02.03,0,.02-.03.03-.04,0,0,.02,0,.02-.02,0-.02,0-.04,0-.06.01-.02.05,0,.07-.01.01,0,0-.04.02-.06.01-.02.07-.02.06-.06,0-.02-.05-.03-.03-.06,0,0,.14-.05.16-.06.03,0,.08,0,.1,0,0,0,.06-.04.06-.04.03-.03-.05,0-.03-.06,0-.02.07-.03.1-.03-.03-.07,0-.06.02-.08.02-.03-.01-.1,0-.13,0-.01.02-.02.02-.03.02-.04-.01-.05.06-.04.01-.04-.03-.07-.03-.11.02,0,.04-.02.06-.02s.08.01.1,0c0,0,.03-.05.04-.05.04-.01.02.04.06.03-.02-.04.03-.05.03-.06,0-.04-.06-.08-.1-.08-.04,0-.05.05-.09.04-.06-.02-.04-.07-.06-.09,0,0-.08-.05-.1-.05-.03-.01-.09,0-.07-.05.06-.01.14-.03.2-.04,0,.04.05.02.04-.02.02,0,.04,0,.05-.02,0,0,0,0,.01,0,.06,0,.15-.04.21-.05ZM17.92,10.72s.08-.06.03-.07c-.05-.02-.03.07-.03.07ZM17.88,10.65s-.03,0-.02.02.03,0,.02-.02ZM17.76,10.99s.05-.03.05-.04c.02-.08-.1-.04-.05.04ZM17.73,11.04s-.05.01-.03.03c.01.01.04-.02.03-.03ZM17.52,11.44h-.03v.02h.03v-.02Z" style="fill: #fde9a5;"/>
      <path d="M13.59,14.75s-.02.05-.03.07-.05.03-.04.06c.14.05.18.13.18.27.02,0,.02-.05.02-.07,0-.07,0-.13-.01-.2.1,0,.32.02.38.11.04.05.12.39.13.47,0,.04.03.22,0,.23-.03,0-.42-.12-.48-.14-.07-.03-.2-.07-.24-.13-.05-.08-.04-.17-.12-.23-.1-.07-.38-.16-.38-.3,0,0,0-.03.01-.05.1-.01.11.05.16.09.05.05.14.07.11.15.07.02.05-.07.11-.07.03.1.04.04.11.04,0-.04-.05-.02-.03-.08.01-.05.08-.01.07-.04,0,0-.05-.02-.04-.06,0,0,.02,0,.02-.02.02-.04.04-.05.08-.09ZM13.2,15.05s-.02-.07-.05-.07c0,.04,0,.08.05.07ZM13.26,15.07s-.03,0-.02.02.03,0,.02-.02Z" style="fill: #fee7a0;"/>
      <path d="M15.28,6.87s.11-.06.16-.07c.1-.02.34.05.44.07,0,0,0,.02.02.02.06.02.23-.04.28-.08.02-.02.02-.05.05-.05.01.18-.19.3-.33.37-.01,0-.02,0,0,.01.05.03.14,0,.19.01,0,0,0,0-.02,0-.01,0-.05,0-.06,0,0,0-.01.05-.01.06,0,0,.05.05.05.03,0-.05.07-.02.05-.09.02,0,.05,0,.06,0,0,.03-.07.08-.07.09,0,.02.01.03,0,.05,0,.04-.03.07-.07.06.02-.06,0-.07-.05-.06.02.07-.03.04-.06.09,0,0,0,0-.01,0-.02,0-.04.02-.04.02,0,0,0,0-.01,0-.01,0-.02,0-.03.01,0,0,0,0-.01,0-.02,0-.05,0-.06.02-.07.02-.17.03-.22.04-.02-.01-.02-.03-.03-.05.02,0,.04.01.03-.02,0,0,0,0,.01,0,.02,0,.03-.01.03-.01,0,0,0,0,.01,0,.01,0,.03,0,.04,0,0,0-.01,0-.01-.01,0,0,0,0,0-.01,0,0,.01,0,.02,0,.03.03.08,0,.11-.02.02,0,.05-.02.06-.03,0,0,0,0,.01-.01,0,0,.03-.01.03-.02.02-.06-.08,0-.1.01-.11.04-.23.07-.34.1,0-.04-.03-.03-.02.01-.01,0-.03,0-.04,0,.03-.05-.06-.03-.06-.03,0,0,0-.02,0-.03-.02-.01-.09-.01-.12-.02,0-.02.02,0,.03-.01.06,0,.1.02.16,0,0,0-.01.02-.01.03h.07s-.05-.04-.05-.04c0,0,.04,0,.05-.01l.2-.09c-.09,0-.18.03-.27.05-.04-.01-.05-.06-.09-.05.02,0,.05-.02.07-.03,0,0,.02,0,.02,0,.02-.03-.03-.05-.05-.06-.04,0-.03.02-.03.05h.05s-.08.02-.11.03c-.04-.1,0-.05.04-.09.02-.02.02-.03-.01-.03,0,0,.01-.01.02-.02.05-.02.11-.03.16-.03,0-.02-.06-.02-.07-.02l.04-.02s-.09.01-.12.01c-.02,0-.04-.02-.05-.02-.04,0-.11.07-.11-.03,0-.02,0-.04,0-.06,0,0,.03-.02.04-.01,0,0-.03.06.03.05.05,0,.03-.06.04-.06,0,0,.02,0,.03,0,.02,0,.02,0,.04-.01ZM15.86,7.26h0s0,0,0,0Z" style="fill: #feeaaa;"/>
      <path d="M16.36,16.07s-.06,0-.06.01c.06.02.27.04.3.09.03.04,0,.12-.02.16-.12.31-.64.27-.91.25-.02-.02.08-.18.1-.21.12.02.07-.07.08-.08,0,0,.02,0,.02-.01,0-.01.01-.03.02-.04.02-.02.12-.05.12-.05,0,0-.03-.07.04-.11.03-.02.05,0,.09,0s.04-.06.07-.07c.04-.02.05.02.03-.06.05,0,.12-.03.16.02.01.02-.03.09-.04.12Z" style="fill: #fde18f;"/>
      <path d="M17.48,15.14l-.04.16s.05-.05.07-.06c.02-.01.05,0,.05-.02.01-.02,0-.07.01-.08,0,0,.05,0,.06,0,0,0,0,.05.05.06.03,0,.02,0,.02-.03.12.04.25-.02.37-.03.02.1.08.24.02.33-.1.16-.54.31-.72.32-.01,0-.02,0-.03,0,.02-.11.02-.22.04-.32,0-.04.02-.08.03-.12v.05s.01,0,.01,0c0-.03.03-.06-.01-.05.02-.08,0-.1.05-.18ZM17.91,15.19h-.17s.17.01.17.01h0Z" style="fill: #fde18f;"/>
      <path d="M16.35,7.21c.19.06.38.2.53.33.02.02.06.04.06.06-.15-.01-.3-.06-.45-.05-.2.01-.38.17-.59.17.02,0,.04-.02.05-.02,0,0-.04,0-.05,0v-.04s-.04.01-.04.01v-.04s0,0,.01-.01c.02,0,.05-.01.07-.02-.02.06.05.06.08.05.04-.02.02-.05.01-.09h0s.09-.05.13-.06h0s.03.02.03,0h-.01c.05-.03.1-.05.16-.06,0-.02-.04,0-.06,0-.24.04-.41.18-.68.19-.02-.06.04-.05.08-.04,0,0,0,.03.04.02.03,0-.03-.06-.03-.06-.04,0-.09.03-.12,0,.14-.02.3-.05.41-.14-.02,0-.04,0-.05.01.04-.04.08-.01.06-.09.06,0,.07,0,.05.06.04.02.07-.02.07-.06,0-.02-.01-.04,0-.05,0,0,.07-.06.07-.09.05,0,.12.03.17.04ZM15.75,7.56h0s0,0,0,0ZM15.64,7.58s-.03,0-.02.01c.02,0,.03,0,.02-.01Z" style="fill: #fee9a7;"/>
      <path d="M17.39,8.33c.1-.02.18-.02.28.02,0,0,.07.03.05.05-.16-.03-.32.01-.46.09-.01,0-.03,0-.02.03.15-.04.43-.12.57-.01.05.03,0,.02-.02.02-.12.03-.22.04-.32.12-.11.09-.16.24-.26.34-.11.11-.3.17-.45.15.02-.02.06,0,.09-.01,0-.02-.03,0-.03-.01,0,0,.01-.04.01-.05,0,0,.04-.01.04-.02-.14.02-.26-.04-.38-.09,0-.05.06-.02.09-.06,0,0-.04,0-.01-.02.16.04.45.09.57-.05.04-.05.02-.03,0-.05-.03-.06.09,0,.1-.06,0-.03-.07-.03-.08-.05-.01-.04.02-.06.04-.09.02,0,.08,0,.06-.03,0,0-.02,0-.02,0,0,0,0-.02,0-.03,0,0,0,.01-.01.01-.13.02-.03-.04-.03-.05,0-.01,0-.03,0-.05-.04,0-.07.02-.11-.01.09,0,.15-.05.24-.05,0,0-.02,0-.02.02.02-.01.1,0,.1-.04Z" style="fill: #fee7a0;"/>
      <path d="M12.98,14.59s0-.1.02-.12c0,0,.02,0,.02-.01.01-.02,0-.04.03-.04.03-.01.06,0,.09,0,0,0-.04-.08.03-.06.03,0,.03.04.05.05s.04-.01.05,0c.01,0,.03.05.08.03.01.02.06.08.08.1.04.03.16.08.18.11.03.05,0,.08-.02.11-.04.03-.05.05-.08.09,0,0-.02,0-.02.02,0,.04.04.05.04.06.01.03-.06,0-.07.04-.02.06.03.04.03.08-.07,0-.09.06-.11-.04-.07,0-.05.09-.11.07.04-.09-.05-.11-.11-.15-.05-.04-.06-.11-.16-.09,0,0,0-.01,0-.02.02-.02,0-.03,0-.04,0-.02,0-.03-.01-.04,0-.04-.02-.07-.02-.11,0,0,0-.01.01-.02Z" style="fill: #fee9a7;"/>
      <path d="M17.07,9.43c.08.02.17.02.26-.01.06-.02.12-.07.18-.1.03.04-.12.18-.14.2-.21.18-.42.19-.68.12-.1-.03-.19-.08-.29-.1,0,0,0,0-.01,0,0-.03,0-.03-.03-.04,0,0-.02,0,0-.01.08.02,0-.09.06-.12.01.01.03.02.04.03,0,0,.02.07.03.01.03.01.02.02.03.03,0,0,.02,0,.03,0,.12.05.22.09.35.1.02,0,.07,0,.08-.01-.21-.06-.45-.13-.63-.26.07.01,0-.05.03-.08.01-.01.09-.02.06-.05,0,0-.08-.01-.05-.05.03.02.08.07.12.1.17.12.37.19.57.23Z" style="fill: #fee7a0;"/>
      <path d="M16.19,8.22s.01.04.03.04c.02,0,.06-.01.06.02,0,0-.03.06-.04.06-.04.01-.04-.03-.05-.03-.02-.01-.01.02-.02.02,0,0-.01,0-.02,0,0,0,0,.02,0,.03,0,0-.02.02,0,.03,0,.01.07.04.05,0,.01,0,.03.02.03.02.01.06-.02.06-.06.09,0,0,.02.02.03.02,0,.02,0,.02.02.03.02.04.02.08.02.12-.03-.02-.04-.01-.02.02.03.05.08.12.06.19,0,.03-.03.03,0,.08,0,.03.02.02.02.02,0,0,0,.03,0,.05,0,.02.04.04.05.06-.02,0-.05,0-.06.02,0,0-.03.09-.03.09,0,.02.02.04.02.05,0,0,0,0,0,.01-.03.1,0,.12,0,.21,0,.05-.01.13,0,.17,0,0,.04.03.04.03h0c-.06.03-.05.09-.03.14.01.03.04.03.07.03,0,0,0,0,0,.01,0,.05.1.15.14.17,0,.05-.04.02-.06.03,0,0,0,.02-.02.03,0,0-.02,0-.02,0,0,0,.02.04.02.05h-.01s.03.04.03.04c0,0,0,0,0,.01,0,.01,0,.02.01.03,0,.01.02.05.02.05,0,.04,0,.06-.04.05-.06-.02-.04-.08-.06-.1-.01-.01-.04,0-.06-.03-.05-.06.02-.07,0-.1,0,0-.05-.02-.05-.04,0-.01,0-.03,0-.04,0-.07-.03-.12-.04-.19h-.04s.03-.05.03-.08c0-.03-.04-.04-.04-.06,0-.07.03-.11.03-.15,0-.03-.04-.09-.04-.12,0-.05.02-.12.02-.16,0-.04-.04-.12-.03-.16,0-.03.03-.08.03-.13,0-.09-.07-.14-.07-.19,0-.02.02-.11.03-.12.02,0,.06.01.05-.02,0,0-.02-.04-.03-.04-.02,0-.05.07-.08-.05,0-.03,0-.09-.01-.12,0-.01-.03-.01-.03-.02,0-.01,0-.03,0-.04,0-.01-.08-.08-.02-.12.03-.02.09.06.09-.02,0,0,.03,0,.05.01Z" style="fill: #feeaaa;"/>
      <path d="M16.44,9.6c.09.02.17.07.26.09.25.06.53.01.61.34-.01.01-.11-.07-.13-.08-.12-.06-.31-.07-.45-.11-.06-.02-.3-.1-.34-.13,0,0,0-.04-.03-.03,0-.01-.01,0-.03,0h0s.06-.02.06-.02c0,0,0-.05.06-.05Z" style="fill: #fee7a0;"/>
      <path d="M16.4,9.05s.07.07.1.06c0,0,0-.02.01-.02.02,0,.03.02.04.02.06,0,.11-.09.02-.08-.02,0-.05.05-.07.04-.03,0,0-.07-.02-.08,0,0-.15-.05-.12-.09.01,0,.03,0,.04,0,0,0,.04-.09.04.02-.01,0-.03-.01-.04-.01.1.1.26.13.4.13-.03,0-.05.02-.09.01,0,.06,0,.05.03.06.14.09.44.15.6.11.06-.02.1-.05.16-.08-.03.13-.16.2-.29.21-.04-.02-.11-.02-.15,0-.21-.02-.47-.15-.63-.28-.01-.01-.03-.03-.04-.04ZM16.68,9.05s-.03,0-.02.01c.02,0,.03,0,.02-.01Z" style="fill: #fee7a0;"/>
      <path d="M16.39,9.73c.14.1.27.14.44.18.07.01.25.02.3.07.02.02.02.06,0,.06-.02,0-.14-.03-.18-.03-.03,0-.06,0-.09,0,.02.03.04.05.06.07-.04.04-.06-.02-.09-.02-.02,0-.04.02-.05.02,0,0,0,0-.01,0-.13-.08-.28-.13-.4-.24,0,0,0,0,0-.01.01-.05.07-.02.02-.11Z" style="fill: #fee7a0;"/>
      <path d="M16.51,10.02s.1.03.13.05c.02,0,.04,0,.03.03-.06,0,.01.05.01,0,0,0,.02,0,.03,0,.03.04.09.05.06-.01.01,0,.03-.02.05-.02.03,0,.05.06.09.02,0,0,0,0,.01.01l.03.02s0,0,.01.01c.01.01.04.03.05.04,0,.01,0,.03,0,.04.01.02.04,0,.06.01,0,0,0,.02.01.02,0,0,.02,0,.03.01,0,0,.01.02.02.03v.02s-.03,0-.03-.01c0-.03,0-.03-.02-.01-.01,0-.03,0-.04-.01,0-.03,0-.02-.03-.02h0s-.03,0-.03,0c-.09-.02-.2,0-.3-.02,0-.06-.02-.02-.04-.02s-.04,0-.05-.01c-.01,0-.02-.01-.03-.02,0-.05-.02-.02-.04-.03-.01,0-.01,0-.02-.01.03-.03-.01-.06-.03-.03,0,0-.02,0-.02-.02.02-.01.02-.03.02-.03.02-.01.06.01.06-.03Z" style="fill: #fee8a4;"/>
      <path d="M14.33,12.52s0,.03.01.04c0,.03.02.05.02.09,0,.03.03.03.03.04.01.04,0,.05.03.09s.16.25.21.25c.01,0,.09-.03.09-.04.01-.05-.02-.1-.03-.14,0,0,0-.03,0-.04,0-.03-.09-.12,0-.14.01.07.03.16.06.23.02.04.05.1.09.11,0,.02-.01.03.02.02,0,0,0,0,0,.01h.01s.05.04.03.06c0,0-.08.04-.09.04-.11,0-.29-.17-.35-.25-.05-.08-.16-.3-.16-.38h.02Z" style="fill: #feeaaa;"/>
      <path d="M16.28,9.26s.08.08.12.12c-.06.03.02.14-.06.12-.02,0,0,.01,0,.01,0,.02,0,.04.03.04,0,0,0,0,.01,0l.05.05c-.05,0-.05.05-.06.05,0,0-.06.01-.06.01,0,0-.04-.03-.04-.03,0-.04,0-.12,0-.17,0-.09-.03-.11,0-.21Z" style="fill: #fee9a7;"/>
      <path d="M17.86,10.49s-.04.02-.05.02c-.01,0-.03.02-.04.02-.07.02-.15.03-.2.04-.13.03-.17.02-.29.02-.04,0-.08.02-.12.01-.02,0-.01-.02-.02-.02-.04,0-.13.02-.16-.01-.02-.01-.01-.02-.05-.03.07,0,.13.02.2.03.25.03.51-.04.75-.09Z" style="fill: #fde18f;"/>
      <path d="M16.35,9.09s.01,0,.02.01c-.03.04.05.05.05.05.03.04-.05.04-.06.05-.02.02.04.09-.03.08-.01,0-.02-.02-.02-.02,0,0,0,0-.01-.01,0,0-.01,0-.02,0,0-.01-.02-.02-.02-.05,0,0,.02-.09.03-.09.01-.02.04-.02.06-.02Z" style="fill: #fee9a7;"/>
      <path d="M17.98,15.07c-.06.06-.2.07-.28.09,0,0-.05,0-.02-.03,0,0,.05.02.05.01,0,0-.02-.03,0-.04,0,0,.09-.03.12-.05.01,0,.03-.03.04-.03.01,0,.07.05.1.05ZM17.78,15.12s-.03,0-.02.01c.02,0,.03,0,.02-.01Z" style="fill: #fde18f;"/>
      <path d="M14.69,9s.03-.07.03-.07c.03-.02.03.02.04.02.03.02.05,0,.09.01,0,0,0,.02-.03.02-.05,0-.07-.03-.09.03,0,.02-.03.07.01.06-.03.19-.06.28-.13.45,0,.02,0,.04-.03.03.07-.16.12-.29.12-.47,0-.03-.02-.06-.01-.08Z" style="fill: #fee8a4;"/>
      <path d="M16.36,9.68s.03.03.03.03c0,0,0,.02,0,.02.05.09,0,.06-.02.11-.03,0-.06,0-.07-.03-.02-.05-.03-.11.03-.13.02,0,.03-.01.03,0Z" style="fill: #fee9a7;"/>
      <path d="M18.22,14.24s.02-.04.03-.05c0,0,0-.03.01-.04.02-.01.05.01.05-.02,0-.1-.04-.06-.06-.08-.01-.01,0-.07-.04-.09,0,0,0-.04.02-.05,0,0,.01,0,.02.02.07.14.15.24-.04.31Z" style="fill: #fde395;"/>
      <path d="M17.63,13.19h-.01c.07-.05.16-.09.24-.14.08-.05.16-.12.25-.15-.17.12-.28.2-.48.29Z" style="fill: #fde395;"/>
      <path d="M14.71,12.69c.03.13.11.24.13.33,0,0,.02,0,.02,0s0,.02,0,.02c-.03,0-.02,0-.02-.02-.04-.01-.07-.07-.09-.11-.03-.07-.05-.16-.06-.23,0-.01,0-.04-.01-.04,0-.02,0-.04.02-.05,0,.05,0,.07.01.11Z" style="fill: #fee9a7;"/>
      <path d="M18.28,12.88s.02.07.02.1c0,.07.03.15.06.21,0,.02.03.07.02.09-.08-.15-.08-.2-.1-.36v-.02s0,0,0,0c0,0,0-.01,0-.02Z" style="fill: #fde18f;"/>
      <path d="M13.81,11.62s0,.02-.01.04c0,.03,0,.05-.01.09,0,.01,0,.03,0,.04,0,.03,0,.06,0,.1,0,.04,0,.1.01.14,0,.02,0,.02.02.02,0,.01,0,.02,0,.03,0,.04.04.26.07.29,0,.01,0,.02.01.03,0,.01.02.02.02.03v.03s0,.01.02.02c0,.01,0,.02,0,.03-.13-.27-.22-.58-.16-.88,0-.02,0-.04.02-.05,0,0,0,.02,0,.03Z" style="fill: #fde18f;"/>
      <path d="M14.81,12.24c-.03.09-.09.19-.1.29-.01,0,0,.02-.01.03-.02,0-.01-.03-.01-.04s0-.03,0-.04c0,0,0-.03.01-.04,0-.04.05-.14.07-.17.01-.02.02-.01.04-.02Z" style="fill: #fee9a7;"/>
      <path d="M13.97,11.28s.08-.15.11-.13c0,.1.01.19.03.29h-.01s-.02-.01-.02-.02c-.02-.07-.01-.14-.03-.22-.04,0-.04.06-.06.07,0,0-.02,0-.02,0Z" style="fill: #fee59b;"/>
      <path d="M18.42,10.35s0,.01-.01.01c0,0-.02,0-.02,0-.04,0-.07.02-.11.03-.04,0-.09.01-.14.02-.02,0-.07,0-.06.03-.06.01-.16.05-.21.05,0-.03.02-.03.04-.03.14-.05.38-.11.52-.11Z" style="fill: #fde18f;"/>
      <path d="M20.19,11.97c-.02-.09,0-.18-.01-.27,0-.06-.02-.13-.03-.19.06.14.06.31.04.46Z" style="fill: #fde18f;"/>
      <path d="M16.82,9.05s-.01.05-.01.05c0,0,.04-.01.03.01-.03,0-.06,0-.09.01h-.01s-.04,0-.03-.06c.03,0,.06,0,.09-.01,0,0,.02,0,.02,0Z" style="fill: #fde9a5;"/>
      <path d="M15.89,7.7s.05,0,.05,0c-.02,0-.04.01-.05.02-.04.01-.08.01-.13.01,0,.01.03.02.03.02h0s-.06.05-.05-.04c.05,0,.1,0,.15-.01Z" style="fill: #feedb5;"/>
      <path d="M13.95,12.49s.02,0,.02,0c.02.03,0,.12.09.09l-.02.05s-.04-.01-.04-.03c-.01-.03-.04-.05-.04-.09,0,0,0-.02,0-.03Z" style="fill: #feebad;"/>
      <path d="M12.98,14.59s0,.02-.01.02c-.03-.19-.06-.37-.1-.56.06.17.09.36.11.53Z" style="fill: #fde18f;"/>
      <path d="M15.53,13.06h0s-.14-.05-.18-.05h0s.02-.02.04-.02c.06,0,.1.04.15.07Z" style="fill: #fee8a4;"/>
      <path d="M20.53,10.05c.06,0,.12.01.18.02h-.21s-.04-.03-.04-.03c.03,0,.04,0,.06.01Z" style="fill: #fde698;"/>
      <path d="M16.51,16.05s-.06.02-.09.02c-.04-.11.04-.07.09-.02Z" style="fill: #fde18f;"/>
      <path d="M14.43,13.7c.06-.08.15-.15.22-.21,0,.05-.05.05-.07.07-.03.03-.07.1-.12.13-.01,0-.03,0-.03,0Z" style="fill: #fde18f;"/>
      <path d="M15.34,12.99h0c-.07,0-.16.01-.24.01,0,0,0,0,.01-.01.04,0,.09-.02.12-.02.04,0,.07.02.11.02Z" style="fill: #fde18f;"/>
      <path d="M12.98,9.31c-.04-.09,0-.14-.01-.24.05.06,0,.16.01.24Z" style="fill: #fde395;"/>
      <path d="M14.27,12.31h.02s.02.19.02.19h-.01s-.02,0-.02,0c0,0,.01-.03.01-.04,0-.05-.03-.1-.02-.15Z" style="fill: #feeaaa;"/>
      <path d="M15.09,13s-.1.05-.13.02c-.01,0-.01-.03-.01-.03h.01s.09.01.14.01Z" style="fill: #fde18f;"/>
      <path d="M16.97,10.26c-.1-.01-.22.02-.31-.02,0,0,0,0,.01,0,.1.01.21,0,.3.02Z" style="fill: #fde18f;"/>
      <path d="M13.93,14.21s.01,0,.01.03c0,.06.02.08.02.12,0,.03-.01.05-.01.07,0,0,.02,0,.02.01,0,.02,0,.05,0,.07.01.04.06.06.08.09-.12-.07-.14-.27-.13-.4Z" style="fill: #fde18f;"/>
      <path d="M13.96,11.3c-.05.08-.09.16-.12.25,0,.02,0,.04-.03.03.02-.1.08-.2.15-.28Z" style="fill: #fde18f;"/>
      <path d="M13,8.8c-.08.1-.05.12-.04.24h-.01c-.04-.08-.03-.19.05-.24Z" style="fill: #fde18f;"/>
      <path d="M15.19,6.63c.08-.06.16-.04.07.05.02-.08,0-.07-.07-.05Z" style="fill: #fde395;"/>
      <path d="M17.32,9.42c-.08.03-.17.03-.26.01h.26Z" style="fill: #fde18f;"/>
      <path d="M14.24,11.73s.01,0,.02,0c0,0,.05.09.06.11-.03,0-.06-.04-.07-.07,0-.01,0-.03,0-.03-.05-.02-.03-.01-.04-.05h.01s.02.02.03.05Z" style="fill: #fee8a4;"/>
      <path d="M18.82,10.33s-.04.01-.06.01c-.07,0-.15,0-.21-.01.08,0,.19,0,.27,0Z" style="fill: #fde18f;"/>
      <path d="M16.44,13.49c-.09,0-.18,0-.27,0,.01-.02.04-.01.06-.01.07,0,.15,0,.21.01Z" style="fill: #fde18f;"/>
      <path d="M14.23,12.56s0-.03-.01-.06c0-.06,0-.12.02-.17-.01.08-.01.16-.01.24Z" style="fill: #fde18f;"/>
      <path d="M21.4,11.82c-.09.02-.2.01-.29-.02.1.02.19.03.29.02Z" style="fill: #fde18f;"/>
      <path d="M14.84,12.34v.04s-.02,0-.02.01h-.01s.01-.1.03-.14c0,.03,0,.06,0,.09Z" style="fill: #fee59b;"/>
      <path d="M13.09,12.92c-.05.01-.11.02-.16.04,0-.03.02-.02.03-.02.04-.01.08-.02.13-.02Z" style="fill: #fde18f;"/>
      <path d="M14.81,12.63c0-.07,0-.17,0-.24h.01c0,.08.01.16-.01.24Z" style="fill: #fde18f;"/>
      <path d="M15.1,13c-.01-.07.01-.05.07-.05,0,.03-.03.02-.05.04,0,0-.01,0-.01.01,0,0,0,0-.01,0Z" style="fill: #feeaaa;"/>
      <path d="M21.81,11.29c-.08.02-.15.01-.22,0h.22Z" style="fill: #fde18f;"/>
      <path d="M15.4,13.07h0s-.09,0-.13.01c-.08,0-.18.04-.24.07-.02,0-.02.03-.03.03-.02.01-.05.01-.07.04.17-.13.25-.16.47-.15Z" style="fill: #fde18f;"/>
      <path d="M12.84,13.91c-.05-.11-.06-.22-.13-.32.08.12.1.18.13.32Z" style="fill: #fde18f;"/>
      <path d="M14.15,11.06c0-.06,0-.15,0-.21.02.06.02.15,0,.21Z" style="fill: #fde18f;"/>
      <path d="M16.35,7.21s-.12-.04-.17-.04c-.02,0-.04,0-.06,0,0,0,0-.01-.02-.01-.05,0-.15.02-.19-.01.15,0,.31,0,.45.06Z" style="fill: #fee59b;"/>
      <path d="M13.19,13.75c-.01-.07-.02-.11.01-.18v.18Z" style="fill: #fde18f;"/>
      <path d="M14.3,12.46s-.02,0-.02,0c0,0,0-.13-.01-.15h.01c0,.05.02.1.02.15Z" style="fill: #fde395;"/>
      <path d="M14.31,13.46c-.06,0-.14,0-.2,0,.06-.02.14-.02.2,0Z" style="fill: #fde18f;"/>
      <path d="M22.24,9.89c0-.07,0-.14,0-.2.02.06.01.14,0,.2Z" style="fill: #fde18f;"/>
      <path d="M22.33,10.01c0-.06-.01-.14.01-.19,0,.06,0,.13-.01.19Z" style="fill: #fde18f;"/>
      <path d="M14.23,10.41c.02-.06.02-.13.06-.18-.02.06-.03.13-.06.18Z" style="fill: #feecb1;"/>
      <path d="M15.51,13.1s-.07.04-.09-.02c.03,0,.06,0,.09.02Z" style="fill: #fee59b;"/>
      <path d="M21.66,11.69s-.13,0-.18,0c.05-.02.13-.02.18,0Z" style="fill: #fde18f;"/>
      <path d="M13.59,13.39h-.18c.06-.02.12-.01.18,0Z" style="fill: #fde18f;"/>
      <path d="M16.48,10.23s.03.04.04.06c-.01,0-.04-.01-.04-.02,0,0-.02-.04-.02-.05,0,0,.01,0,.02.01Z" style="fill: #fde9a5;"/>
      <path d="M17.09,10.25s0-.01-.01-.02c-.02,0-.05,0-.06-.01,0-.01,0-.03,0-.04,0-.01-.04-.03-.05-.04.05.02.1.07.12.12Z" style="fill: #fee7a0;"/>
      <path d="M18.51,13.44s0-.01.02,0c.04,0,.04.01.04.05-.01,0-.02-.02-.04-.02,0,0,0,0-.01-.01h0Z" style="fill: #fee59b;"/>
      <path d="M17.39,8.33s-.07.03-.1.04c0-.01.01-.02.02-.02.04-.03.04-.01.07-.02Z" style="fill: #feeaaa;"/>
      <path d="M20.72,10.07s0,0-.01,0c-.06,0-.12-.02-.18-.02.05-.02.14,0,.19.02Z" style="fill: #fde18f;"/>
      <path d="M13,14.76s0,.03,0,.04c0,0,0,.01,0,.02,0,.02-.01.05-.01.05v-.16s0,.03.01.04Z" style="fill: #fde18f;"/>
      <path d="M15.53,13.06s.04,0,.05.03c.02.05-.04.02-.04.02h.02s-.02-.03-.03-.03h0Z" style="fill: #fee59b;"/>
      <path d="M14.71,12.69s-.01-.06-.01-.11c0,0,0-.01,0-.02,0-.01,0-.02.01-.03,0,.05,0,.11,0,.16Z" style="fill: #fde18f;"/>
      <path d="M17.21,9.37s-.11,0-.15,0c.04-.02.11-.02.15,0Z" style="fill: #fde18f;"/>
      <path d="M14.71,13.44s.01-.03.02-.05c.03-.03.05-.06.08-.08,0,.05-.04.06-.06.08-.02.02,0,.02-.04.05Z" style="fill: #fde395;"/>
      <path d="M14.21,11.68h-.01c-.03-.07-.04-.06-.06-.15.03.04.05.1.07.15Z" style="fill: #fde18f;"/>
      <path d="M18.61,13.53s-.03-.02-.04-.03h0s.05-.02.04.03Z" style="fill: #fde395;"/>
      <path d="M16.48,10.14s-.02-.02-.03-.03c.02-.03.06,0,.03.03Z" style="fill: #feeaaa;"/>
      <path d="M14,12.61s.04.03.04.03c0,0,.03.08.04.11,0,.01,0,.02.01.03-.03-.05-.07-.11-.1-.17Z" style="fill: #fde18f;"/>
      <path d="M16.63,10.21s.05-.04.04.02c0,0,0,0-.01,0s0,0-.01,0l-.02-.02Z" style="fill: #feeaaa;"/>
      <path d="M14.54,9.64l-.03.12s-.05.07-.04.12h-.02s-.02.05-.04.09c.04-.11.09-.21.14-.32Z" style="fill: #fde18f;"/>
      <path d="M15.24,6.82s.01.05.04.04c-.02,0-.02,0-.04.01v-.05Z" style="fill: #fde395;"/>
      <path d="M20.86,10.11s-.09-.02-.13-.02h0s.09,0,.13.02Z" style="fill: #fde18f;"/>
      <path d="M16.5,10.15s.05-.02.04.03c-.02-.01-.05,0-.04-.03Z" style="fill: #feeaaa;"/>
      <path d="M14.84,14.73s-.02,0-.03,0,0-.02-.01-.03c.02,0,.03.01.04.03Z" style="fill: #feeaaa;"/>
      <path d="M14.11,11.44s.01.05.02.07c-.02,0-.02-.03-.03-.05,0,0-.02,0-.02-.01s.01-.01.01-.01h.01Z" style="fill: #fde18f;"/>
      <path d="M21.13,10.16s-.06,0-.07-.01c.02,0,.06,0,.07.01Z" style="fill: #fde18f;"/>
      <path d="M14.32,12.5s.01.02.01.02h-.02s0-.02,0-.02h.01Z" style="fill: #feecaf;"/>
      <path d="M17.12,10.31v-.02s.05.02.02.03c-.01,0-.01-.01-.02-.01Z" style="fill: #fee7a0;"/>
      <path d="M16.63,10.21l.02.02s-.04-.02-.07-.03c.02,0,.03.01.05.01Z" style="fill: #fde18f;"/>
      <path d="M15.27,6.69s-.01.04-.03.05c0-.02,0-.06.03-.05Z" style="fill: #fde395;"/>
      <path d="M18.21,14.24s-.04.02-.05.03c.02-.03.03-.02.05-.03Z" style="fill: #fde395;"/>
      <path d="M15.24,6.81s-.02-.05,0-.05c0,.02,0,.04,0,.05Z" style="fill: #fde395;"/>
      <path d="M16.55,10.34s-.04.03-.01-.01c0,0,0,0,.01.01Z" style="fill: #feeaaa;"/>
      <path d="M14.1,7.52s0,.01,0,.02c0,0-.08.03-.09.05l.1-.06Z" style="fill: #feecb1;"/>
      <path d="M17,10.27h0s.03-.01.03.01c-.01,0-.02,0-.03-.01Z" style="fill: #fee7a0;"/>
      <path d="M14.31,10.18h.01s0,.02-.02.02c0-.01,0-.02.01-.02Z" style="fill: #feecb1;"/>
      <path d="M17.08,10.29s.02-.01.02.01c0,0-.02,0-.02-.01Z" style="fill: #fee7a0;"/>
      <path d="M12.87,14.04s-.02-.08-.03-.12c.03.03.03.08.03.12Z" style="fill: #fde18f;"/>
      <path d="M19.52,10.58s.02,0,.01.02c-.01.01-.02-.01-.02-.01h.01Z" style="fill: #fde494;"/>
      <path d="M20.98,10.14s-.08,0-.11-.03c.04,0,.08,0,.11.03Z" style="fill: #fde18f;"/>
      <path d="M14.22,10.44s.01.02-.01.02c0-.02.01-.02.01-.02Z" style="fill: #feecb1;"/>
      <path d="M21.03,10.15h-.04s.04,0,.04,0Z" style="fill: #fde18f;"/>
      <path d="M15.18,6.63s-.05.05-.06.03c.02-.01.04-.03.06-.03Z" style="fill: #fde395;"/>
      <path d="M20.13,11.45s-.02-.04-.02-.05c.02.01.02.03.02.05Z" style="fill: #fde18f;"/>
      <path d="M14.33,10.12c.02-.05.05-.11.07-.16-.02.05-.03.12-.07.16Z" style="fill: #feecb1;"/>
      <path d="M14.25,12.29s0,.02,0,.02c-.02,0-.01-.02-.01-.03.01,0,0,0,.01.01Z" style="fill: #feecaf;"/>
      <path d="M14.32,10.16s0-.02.01-.03v.03Z" style="fill: #feecb1;"/>
      <path d="M20.14,11.5v-.03s0,.01,0,.03Z" style="fill: #fde18f;"/>
      <path d="M16.55,16.02s-.01.01-.02.02c0-.02,0-.02.02-.02Z" style="fill: #fde18f;"/>
      <path d="M19.27,10.45h-.03s.02,0,.03,0Z" style="fill: #fde18f;"/>
      <path d="M18.43,13.37s.03.03.04.04c0,0,.02.03.03.03h0s-.07-.04-.07-.07Z" style="fill: #fde18f;"/>
      <path d="M18.28,12.92s0-.02,0-.02h.01s-.01.02-.01.02Z" style="fill: #fee59b;"/>
      <path d="M16.48,10.23s-.01,0-.02-.01c0,0,0-.02-.01-.03l.03.04Z" style="fill: #fde18f;"/>
      <path d="M16.44,10.18l-.03-.04h.01s.02.02.02.04Z" style="fill: #fde18f;"/>
      <path d="M12.97,9.07s-.02-.02-.02-.03h.01s0,.02.01.03Z" style="fill: #fde395;"/>
      <path d="M15.42,13.08s-.01,0-.02,0h0s.02-.01.02,0Z" style="fill: #fee59b;"/>
      <path d="M17.63,13.19s-.01,0-.02.01c0,0,0,0,.01-.01h.01Z" style="fill: #fde698;"/>
      <path d="M17.6,13.2s-.02.01-.04.02l.04-.02Z" style="fill: #fde698;"/>
      <path d="M18.56,13.49h0s-.03,0-.04-.02c.02,0,.03.02.04.02Z" style="fill: #fde18f;"/>
      <path d="M14.16,14.66s-.07-.02-.09-.05c.03.02.05.03.09.05Z" style="fill: #fde18f;"/>
      <path d="M19.39,10.51s-.06-.03-.09-.05c.03.01.07.03.09.05Z" style="fill: #fde18f;"/>
      <path d="M16.96,10.12l-.03-.02s.02,0,.03.02Z" style="fill: #fee7a0;"/>
      <path d="M16.16,15.89s-.04.02-.06.03l.06-.03Z" style="fill: #fde18f;"/>
      <path d="M16.07,15.93l-.03.02s.01-.01.03-.02Z" style="fill: #fde18f;"/>
      <path d="M17.07,8.41h-.01s0,0,.01,0Z" style="fill: #fee7a0;"/>
      <path d="M18.63,13.54s0,0-.01-.01h.01Z" style="fill: #fde395;"/>
      <path d="M14.87,13.07h-.01s0,0,.01,0Z" style="fill: #fee9a7;"/>
      <path d="M13.96,11.29s0,0,.01-.01c0,0,0,0-.01.01Z" style="fill: #fde18f;"/>
      <path d="M13.81,11.62c.15.03.03.14.03.16,0,.02.04.04.04.06,0,.02-.02.08-.01.1,0,.05.05.18-.05.14,0-.01,0-.02,0-.03,0-.02,0-.02-.02-.02,0-.04,0-.1-.01-.14.03-.03.06-.09,0-.1,0-.01,0-.03,0-.04.03.01.03-.07.01-.09,0-.02,0-.03.01-.04Z" style="fill: #feecaf;"/>
      <path d="M15.03,6.87s-.01,0,0-.02c0-.08.04-.04.08-.07,0,0,.05-.1.08-.07.03.03-.07.1-.1.12-.02.01-.03.03-.05.03Z" style="fill: #feeaaa;"/>
      <path d="M15.1,6.9s0,.04,0,.06c-.03,0-.02.02-.02.04,0,.02,0,.05,0,.07.02-.02.04-.02.06-.02,0,.02-.06.03-.06.03,0,0-.01.05-.01.05,0,0,.01,0,.02.01.03.06,0,.03-.04.06.02-.11.02-.21.03-.32,0,0,.02.01.02.01Z" style="fill: #fee59b;"/>
      <path d="M15.14,7.05s.01-.02.02-.01c0,0,0,.02,0,.02-.02,0,0,.03,0,.03,0,0,0,.02-.01.02,0,0-.02.03-.02.03,0,0,0,0-.01.01h-.01s-.02,0-.02-.01c0,0-.02-.01-.02-.01,0,0,.01-.05.01-.05,0,0,.05-.01.06-.03Z" style="fill: #feedb5;"/>
      <path d="M15.77,10.77s0-.04.02-.05c.07-.02.04.06-.02.05Z" style="fill: #feebad;"/>
      <path d="M14.81,11.69s0,.02,0,.03c-.01.02-.05.03-.06,0-.01-.04.02-.02.03-.03.01,0,.02,0,.03-.01Z" style="fill: #feecaf;"/>
      <path d="M15.53,7.41s-.02.02-.03.02c-.06.02-.04.01-.1.01.04-.02.09-.02.13-.03Z" style="fill: #fee8a4;"/>
      <path d="M15.2,8.5v-.21c.01.08.02.13,0,.21Z" style="fill: #fde18f;"/>
      <path d="M15.39,7.44l-.11.03s.02-.03.03-.04c.01.02.05,0,.07.01Z" style="fill: #fee7a0;"/>
      <path d="M15.97,10.77c.05.03,0,.07-.02.02,0,0,.01-.01.02-.02Z" style="fill: #feebad;"/>
      <path d="M14.23,12.26s-.05.04-.05.03c-.02-.02.05-.03.05-.03Z" style="fill: #feecaf;"/>
      <path d="M15.17,7.11s-.01.04-.04.03c0,0,.02-.03.02-.03,0,0,.01,0,.02,0Z" style="fill: #feeaaa;"/>
      <path d="M15.07,11.42h-.01s0,.02-.01.02c-.07.05-.11.09-.17.16.05-.08.13-.14.2-.2,0,0,0,.02-.01.02Z" style="fill: #fde395;"/>
      <path d="M13.9,12.37s.03-.01.02.03h-.01s0-.02-.01-.03Z" style="fill: #feebad;"/>
      <path d="M13.94,12.47v-.03s0,.02,0,.03Z" style="fill: #feebad;"/>
      <path d="M15.01,6.91s.02-.03.02-.03c0,.02,0,.03-.02.03Z" style="fill: #feeaaa;"/>
      <path d="M15.23,7.09s-.02.02-.04.02l.04-.02Z" style="fill: #feeaaa;"/>
      <path d="M14.96,6.97s.02-.03.03-.04c0,.01-.02.03-.03.04Z" style="fill: #feeaaa;"/>
      <path d="M15.11,7.15h.01s0,.01,0,.01c0,0,0,0,0-.01Z" style="fill: #feeaaa;"/>
      <path d="M15.86,10.84s-.07.05-.1.07h-.02s.08-.06.12-.09h0Z" style="fill: #fde18f;"/>
      <path d="M14.34,11.85s0,0,0,.01h0Z" style="fill: #fee8a4;"/>
      <path d="M14.24,7.34s0,0,0,.01h0Z" style="fill: #fefdfa;"/>
      <path d="M18.85,10.36s0,.05.01.07c.04.06.12,0,.07-.06,0,0,.02-.02.03-.01,0,.01,0,.02,0,.03,0,.02.06.13.07.14.01.01.05.01.07.03.01.01.02.03.03.05.03.03.06.04.07.09.02.06-.02.08-.01.12,0,0,.02.07.02.07,0,.01.03.02.04.03.02.04.03.17-.05.13,0,.02,0,.04,0,.05.02.04.03-.01.03-.01.03,0,0,.06,0,.07-.01,0-.03,0-.04.01,0,0,0,.04,0,.06-.01.05,0,.05-.01.1,0,.06-.06.06-.09.08s-.03.08-.05.1c0,.01-.03,0-.03,0,0,0,0,.06-.04.07-.02,0-.01-.02-.03-.04,0,0-.03-.02-.04-.02-.04.03.03.06,0,.1-.02.03-.06,0-.08-.01.03-.06,0-.12,0-.18,0-.02.03-.09-.02-.09-.05-.21-.24-.41-.46-.41l.07.06s-.12-.01-.11-.09h.1s-.03-.01-.03-.01c-.03-.03.12-.05.14-.05.03,0,.08-.05.11-.07,0,0,0-.02.01-.02.04,0,.03.03.04.03.04.01.02-.06.01-.08,0-.02.01-.06.01-.06,0,0-.07,0-.09-.03-.02-.02-.01-.05-.02-.06-.02-.01-.08-.04-.09-.06,0,0-.03-.11-.03-.11,0-.02.03-.02.05-.03,0,0,0-.02,0-.02.04-.02.25,0,.31,0Z" style="fill: #fee7a0;"/>
      <path d="M19.94,11.67s.04-.04.04-.04c0,0,.03.01.05,0,.01,0,.02-.03.03-.03.01,0,.04.03.07.02l-.02.29c-.07-.03-.1.05-.1.11.03,0,.03-.04.07-.03,0,0,.06.06.06.07,0,.02,0,.01-.01.02-.03.02-.17.05-.18,0,0-.05.05-.11-.01-.13,0,0,0,0-.01-.01,0,0,0,0,0-.01.04-.12.03-.12.01-.25Z" style="fill: #fee59b;"/>
      <path d="M18.9,13.24s.02.03,0,.04c-.01.02-.05,0-.07.01,0,0-.02.08-.05.07-.05-.01.02-.07.01-.08,0-.02-.03-.04-.04-.06,0-.01-.01-.08,0-.09.02-.04.09,0,.09.03,0,.02-.03.03-.02.05,0,.03.06,0,.07.02Z" style="fill: #fee59b;"/>
      <path d="M20.06,11.4s0,.04,0,.04c0,0,.05,0,.05,0,0,0,.01.05,0,.05,0,0-.05.03-.06.03-.07.03-.04,0-.05-.02,0,0-.02,0-.02-.02,0-.03,0-.06,0-.09.01,0,.06,0,.06,0Z" style="fill: #fee59b;"/>
      <path d="M19.72,12.3s.02-.1.02-.11c0-.01.03-.01.04-.03,0,0,.03-.11.03-.11,0-.03-.04-.03-.02-.09.01-.05.05-.04.06-.06s0-.05.03-.06c-.02.18-.07.3-.15.46Z" style="fill: #fde395;"/>
      <path d="M18.94,10.37c.04.06-.03.12-.07.06-.01-.02-.01-.05-.01-.07.04,0,.03.02.09.01Z" style="fill: #fee59b;"/>
      <path d="M19.87,11.83c-.03-.06,0-.15,0-.21,0-.02-.02-.02-.02-.02,0-.02.03-.04.04-.06,0,.1,0,.19-.01.29Z" style="fill: #fde395;"/>
      <path d="M19.93,11.59s0,.05.01.07c.02.13.02.12-.01.25.02-.13,0-.24-.03-.36,0,.01.02.03.03.04Z" style="fill: #fde18f;"/>
      <path d="M19.82,12.19c.05.06-.01.1-.07.07.02-.02.05-.06.06-.07h.01Z" style="fill: #fde395;"/>
      <path d="M20.93,10.59s-.02.01-.03,0c-.02,0-.08-.02-.07-.04.03,0,.08,0,.11.03Z" style="fill: #fee59b;"/>
      <path d="M19.04,12.2s-.07.06-.06-.01c.01,0,.06,0,.06.01Z" style="fill: #fee59b;"/>
      <path d="M18.8,12.63s-.05.01-.06.01c-.03-.06.08-.05.06-.01Z" style="fill: #fee59b;"/>
      <path d="M21.41,10.29s-.16,0-.2,0c.06-.02.15-.02.2,0Z" style="fill: #fde18f;"/>
      <path d="M21.5,10.33c-.05.02-.12.04-.17.01.06,0,.11-.01.17-.01Z" style="fill: #fde18f;"/>
      <path d="M19.09,12.99s-.04.07-.05.03c0-.03.05-.03.05-.03Z" style="fill: #fde395;"/>
      <path d="M18.93,12.21s-.02.06-.05.03c-.01-.03.04-.04.05-.03Z" style="fill: #fee59b;"/>
      <path d="M19.94,11.93s0,.04-.01.05c-.02,0-.02.02-.02.03h-.01s.03-.07.03-.1c0,0,0,0,.01.01Z" style="fill: #fde18f;"/>
      <path d="M21.33,10.55s-.05.04-.05.01c0-.03.04-.03.05-.01Z" style="fill: #fde395;"/>
      <path d="M18.95,12.34s-.01-.06.03-.04c.04.02,0,.06-.03.04Z" style="fill: #fee59b;"/>
      <path d="M18.72,12.59h-.03s0-.05,0-.05c.03,0,.03.03.03.05Z" style="fill: #fee59b;"/>
      <path d="M21.13,10.18s0,.01,0,.02c-.11,0-.03-.06,0-.02Z" style="fill: #fde494;"/>
      <path d="M21.12,10.28s-.01-.05.02-.04c.01,0,0,.02,0,.03,0,0,.03,0,.04.01h-.06,0s.02.02.02.02c0,0,0,.02-.03,0-.04-.03,0-.02.01-.03Z" style="fill: #fde494;"/>
      <path d="M19.58,12.05h-.04s0-.03,0-.03c.02,0,.03,0,.04.02v.02Z" style="fill: #fde395;"/>
      <path d="M19.66,11.72v.04s-.03,0-.03,0c0-.02,0-.03.02-.04h.02Z" style="fill: #fee59b;"/>
      <path d="M20.95,10.57s.04-.02.03.04h-.02s-.01-.02-.02-.02v-.02Z" style="fill: #fee59b;"/>
      <path d="M20.79,10.54s-.05.02-.04-.02c.02,0,.03.02.04.02Z" style="fill: #fde494;"/>
      <path d="M19.9,12.03s-.02.08-.04.12h-.01s-.02.03-.02.04h-.01s.05-.11.09-.16Z" style="fill: #fde18f;"/>
      <path d="M18.97,13.31s.01.04.01.04h-.03s0-.04,0-.04c0,0,.02,0,.02,0Z" style="fill: #fee59b;"/>
      <path d="M19.25,11.92s-.05-.01-.03-.03c.01-.01.04.02.03.03Z" style="fill: #fee59b;"/>
      <path d="M18.69,13.5s-.05-.01-.03-.03c.01-.01.04.02.03.03Z" style="fill: #fde395;"/>
      <path d="M19.89,11.51s.01.01.02.03c.01.02.01,0,.02.05,0-.01-.02-.03-.03-.04,0,0,0,0-.01-.02,0,0,0-.01,0-.02Z" style="fill: #fee59b;"/>
      <path d="M18.92,12.3s-.02.04-.03.03c-.02-.02.01-.05.03-.03Z" style="fill: #fee59b;"/>
      <rect x="18.73" y="13.47" width=".02" height=".03" style="fill: #fde395;"/>
      <path d="M19.93,11.99s.01.04-.02.03c0-.02,0-.03.02-.03Z" style="fill: #fee59b;"/>
      <path d="M19.54,10.73s0,.03-.02.02,0-.03.02-.02Z" style="fill: #fee59b;"/>
      <path d="M20.07,12.28s0,.03-.02.02,0-.03.02-.02Z" style="fill: #fde395;"/>
      <path d="M19.89,11.51s0,.01,0,.02h-.01s-.02,0-.01-.02c0,0,.01,0,.02,0Z" style="fill: #fde395;"/>
      <path d="M19.43,11.97s0,.03-.02.02,0-.03.02-.02Z" style="fill: #fde395;"/>
      <path d="M18.97,12.9s0,.03-.02.02,0-.03.02-.02Z" style="fill: #fde395;"/>
      <path d="M19.85,12.16h.01s0,0-.01,0Z" style="fill: #fee59b;"/>
      <path d="M18.64,11.2c.04.07.06.14.09.21-.04.03,0,.09-.01.13,0,.02-.04.02-.05.04,0,.02,0,.04-.01.05,0,.01-.04.02-.06.03-.02.01-.04.05-.05.06-.01,0-.03,0-.05,0-.01,0-.04.06-.06.06,0,.03.06.04.06.05,0,.01,0,.04,0,.05,0,0-.02,0-.02,0,0,0-.01,0-.02.01,0,0-.02-.06-.03-.06,0,0-.1.03-.1.03,0,0,0,.07,0,.09,0,.02-.12.05-.09.13-.04.01-.03-.03-.06-.04-.06-.02-.14.1-.11.16-.1-.02-.09.09-.19.08-.03,0-.04-.02-.06-.02-.05,0-.11.08-.12.08-.02,0-.06-.04-.09,0-.02.03.02.06.02.09s-.06.03-.07.05c0,0-.04.05-.04.06,0,.02.02.06-.03.05,0,0-.02-.05-.05-.02-.02.02.04.07.04.08,0,.01-.02.03-.02.04,0,.03.01.08-.03.05,0,0,0-.02,0-.02-.05-.04-.05.05.02.09.02.01.08.01.05.04-.03.02-.03.01-.01.06.12-.04.05,0,.06.06,0,.01.03.01.03.02,0,.01-.02.03-.02.04,0,.02.05.05-.01.06-.02,0-.03,0-.05,0,0,0-.08.02-.08.02,0,0,0,.04-.03.05-.01,0-.03,0-.05,0-.02,0-.06.04-.09.04-.02,0-.04-.03-.07-.02.02.05-.03.1-.03.11,0,.02.03.03.02.05-.07.02-.13.03-.2.04h-.02s-.01.01-.02.01c-.02,0-.07-.02-.09-.02-.02,0-.02.03-.03.03-.04.02-.12,0-.16.02,0-.01,0-.07.01-.07,0,0,.08.04.07-.03,0-.02-.03-.04-.02-.07.02,0,.06,0,.07,0,0,0,.06-.07.06-.07.01-.02,0-.16,0-.19.03,0,.03.04.06.04.03,0,.04-.08.04-.08-.02-.03-.05.05-.06.03-.01-.01.06-.12.06-.15s-.02-.04-.02-.06c0,0,.03-.01.04-.03,0-.01,0-.03,0-.04,0-.02.05-.04.06-.06,0-.04-.07-.07-.06-.11,0-.02.07-.07.09-.1.01-.02.01-.04.03-.06.02-.03.06-.01.08-.05.03-.05,0-.07,0-.09,0-.01.03,0,.03-.02,0-.02-.02-.04,0-.06.03,0,.08-.03.1-.03s.07.02.08.01c0,0,0-.03,0-.04s.03,0,.05-.02c.01,0,.02-.02.03-.02.02,0,.08.03.1.02.02,0,.08-.15.11-.16.02,0,.03.03.06.02-.02-.09.07-.02.11-.03.02,0,.02-.04.03-.05.02-.02.06-.02.08-.04.01-.01,0-.03.02-.04.05-.05.14.01.16-.02,0-.01,0-.04.01-.06.02-.03.09-.05.12-.06.03-.02.11-.12.13-.16,0-.01,0-.03.01-.04.04-.04.1,0,.12-.03.02-.02.01-.06.03-.08.01-.02.03-.02.04-.03.01-.05-.02-.08-.02-.11,0-.03,0-.08.01-.1.05.04.08.07.11.12Z" style="fill: #fee7a0;"/>
      <path d="M18.73,11.37v.02s.02,0,.02.01v.02s-.02.03-.03-.01c-.03-.07-.05-.15-.09-.21.06.04.07.11.1.17Z" style="fill: #fde698;"/>
      <path d="M18.82,11.36s.02.07.02.09c0,.06.03.12,0,.18,0,0,0,0-.01,0,0-.09,0-.18-.01-.27Z" style="fill: #fde18f;"/>
      <path d="M18.39,12.2s0,.07-.02.1c0,.02-.03.03-.03.03,0-.02.03-.12.03-.13,0,0,.02,0,.02,0Z" style="fill: #fee7a0;"/>
      <path d="M18.5,11.89s.01.01.01.03c0,.03.01.12-.02.1,0-.03,0-.08-.01-.1v-.03s.01,0,.02,0Z" style="fill: #fde9a5;"/>
      <path d="M18.79,11.53s.04.07.02.1c-.05-.03-.03-.07-.04-.11h0s0,0,.01.02Z" style="fill: #fee8a4;"/>
      <path d="M18.49,12.02c0,.05,0,.09-.01.14,0-.08,0-.16,0-.24.02.02.01.07.01.1Z" style="fill: #fde18f;"/>
      <path d="M18.26,12.57s-.01.03-.03.04c-.02.01-.04.01-.05.02,0,0,0,.02,0,.02-.01,0-.03,0-.02-.02.05,0,.07-.05.11-.06Z" style="fill: #fde18f;"/>
      <path d="M18.79,11.53s0-.01-.01-.02c0-.02-.04-.05-.01-.07.01.02.02.07.02.1Z" style="fill: #fde18f;"/>
      <path d="M18.41,12.14s-.03,0-.02-.02.03,0,.02.02Z" style="fill: #fee7a0;"/>
      <path d="M18.43,11.99s0,.03-.02.02,0-.03.02-.02Z" style="fill: #fee7a0;"/>
      <path d="M18.19,12.58s.03-.03.04-.05c0,.03-.02.04-.04.05Z" style="fill: #fde18f;"/>
      <path d="M18.36,12.45s0-.04.02-.04c0,.01-.01.03-.02.04Z" style="fill: #fde18f;"/>
      <path d="M18.4,12.36l.02-.04s-.01.03-.02.04Z" style="fill: #fde18f;"/>
      <path d="M16.96,13.4s0,0-.02.01h.02Z" style="fill: #fee8a4;"/>
      <path d="M18.75,11.42s0,0-.01,0v-.02s0,.01.01.02Z" style="fill: #fde18f;"/>
      <path d="M18.25,12.49s.02-.03.03-.04c0,.02,0,.04-.03.04Z" style="fill: #fde18f;"/>
      <path d="M18.38,12.39h.01s0,0-.01,0Z" style="fill: #fde18f;"/>
      <path d="M18.24,12.51s0,0,.01-.01h-.01Z" style="fill: #fde18f;"/>
      <path d="M14.3,7.88s0-.08.05-.08c.01,0,.04.02.05.03.01.03-.04,0-.03.03.03,0,.06,0,.09,0,.04,0,.05-.03.07-.04.07-.02.14,0,.21.01.01,0,.02.02.04.02.02,0,.02-.04.04-.02.02.02-.04.05-.04.05-.05-.01-.11,0-.15,0-.12,0-.18-.03-.31,0Z" style="fill: #feecb1;"/>
      <path d="M14.68,7.91c-.04.05-.03.12-.11.13v-.02s.02-.03,0-.02c0,0,0,0,0,0-.01,0-.07.02-.08.02-.01,0-.04-.03-.06-.02-.03-.04.08-.08.11-.08,0,0,0,0,.01,0-.02.05.08.03.1.02.02,0,0-.01.04-.03Z" style="fill: #feecb1;"/>
      <path d="M15.07,8.63c-.03.06-.07.1-.11.15,0,0,0,.02-.01.03-.06,0-.05-.05-.01-.07.01,0,.04,0,.04,0,0,0-.01-.07.05-.11.03-.02.03,0,.04,0Z" style="fill: #feecb1;"/>
      <path d="M15.09,8.63c-.07.16-.15.23-.3.31,0-.03.05-.06.07-.07,0,0,.02,0,.03,0v-.02s.03,0,.05-.03c0,0,0-.02.01-.03.04-.05.08-.09.11-.15,0,0,.01,0,.02,0Z" style="fill: #feeaaa;"/>
      <path d="M14.13,7.55s0,.08.01.1c-.05.02-.07-.08-.05-.1,0,0,.04,0,.04,0Z" style="fill: #feecb1;"/>
      <path d="M14.49,7.91s-.05,0-.07.01c.01-.02.05-.01.07-.01Z" style="fill: #feecb1;"/>
      <path d="M14.7,7.9s.03-.02.04-.02c0,0,0,.04-.04.03h0Z" style="fill: #feecb1;"/>
      <path d="M14.88,8.84v.02s-.01,0-.02,0v-.03s.02.01.02.01Z" style="fill: #feecb1;"/>
      <path d="M14.39,7.64s-.04-.02-.03-.03.04.02.03.03Z" style="fill: #feecb1;"/>
      <rect x="14.8" y="7.74" width=".02" height=".03" style="fill: #feecb1;"/>
      <path d="M14.4,7.92l-.1.04s.04-.03.1-.04Z" style="fill: #feecb1;"/>
      <path d="M14.28,7.88h-.02s.01,0,.02,0Z" style="fill: #feecb1;"/>
      <path d="M15.81,7.62s-.13.02-.18.01c.06,0,.12,0,.18-.01Z" style="fill: #fde698;"/>
      <path d="M15.56,12.59s-.02.05-.03.03.02-.05.03-.03Z" style="fill: #feeaaa;"/>
      <path d="M16.02,8.04s0,.03-.02.02,0-.03.02-.02Z" style="fill: #fde9a5;"/>
      <path d="M15.6,7.62s-.03.03-.02-.01h.02Z" style="fill: #feecb1;"/>
      <path d="M16.1,11.77s0,.03-.02.02,0-.03.02-.02Z" style="fill: #feeaaa;"/>
      <path d="M16.96,10.58s.13,0,.16.01c0,0,0,.02.02.02.04,0,.08-.01.12-.01.12,0,.17,0,.29-.02-.01.05.04.04.07.05.02,0,.09.05.1.05.02.02,0,.07.06.09.04.01.05-.04.09-.04.04,0,.11.04.1.08,0,.01-.05.02-.03.06-.03,0-.02-.04-.06-.03,0,0-.04.05-.04.05-.01,0-.08,0-.1,0s-.04.02-.06.02c0,.04.04.06.03.11-.07,0-.04,0-.06.04,0,.01-.02.02-.02.03,0,.03.02.1,0,.13-.01.02-.05,0-.02.08-.02,0-.09,0-.1.03-.02.06.06.03.03.06,0,0-.06.04-.06.04-.02,0-.07,0-.1,0-.01,0-.15.05-.16.06-.02.03.02.04.03.06.01.04-.05.04-.06.06,0,.02,0,.05-.02.06-.02.01-.06,0-.07.01,0,.01,0,.04,0,.06,0,0-.01,0-.02.02,0,.01,0,.05-.03.04,0,0-.02-.02-.04-.02-.09,0-.07.03-.08.08,0,0-.02,0-.02.01-.04.08-.02.04-.09.08,0,0-.01.02-.02.03-.01,0-.03-.01-.05,0-.03.03.01.1-.08.08-.03,0-.04-.04-.06-.03-.02,0-.02.03-.02.05,0,.03.06,0,.04.05-.09-.02-.16-.04-.16.07-.02,0-.04-.02-.06-.02-.01,0-.02.02-.04.03-.04.01-.08,0-.12.05-.05.08.05,0,.06.02,0,.04-.06.03-.04.07h.06s-.03.06-.04.07h-.01s-.01-.04,0-.06h-.01s-.06.08-.06.08l-.02.09s-.02.06-.02.09c-.03,0-.04.07-.04.1-.03,0-.06.03-.07.05,0,.03.04.05.07.05,0,.02-.01.04-.01.04-.04-.02-.07.11-.06.12,0,.01.03,0,.04.02.06.05-.12.05-.12.05-.03.03.05.05.04.07,0,.02-.05.03-.06.05-.04.05-.04.15-.08.19-.03.02-.04-.01-.07-.02-.05-.01-.04.03-.06.07,0,.01-.02.02-.03.04,0,.01,0,.04-.01.05s-.05,0-.07,0-.04.02-.07.03c-.02,0-.04,0-.06,0-.02,0-.02.04-.02.04,0,0-.03,0-.05,0-.03.01-.04.05-.08.05-.02,0-.05-.01-.06,0s0,.02,0,.03c0,0-.03,0-.05.01-.01,0,0,.02,0,.02-.08.03-.14.05-.21.1h0s-.02,0-.03.01c0,0,0,.01-.01.02,0,0,0,0-.01,0-.02,0-.05,0-.06.01,0-.03-.07-.03-.04-.06.01-.01.07.03.07-.01,0-.01-.01-.02,0-.04,0-.05.06-.04.08-.05.05-.03.09-.07.15-.09.02,0,.04,0,.06-.01.01,0,.02-.04.04-.06,0-.01.03-.02.04-.03,0-.01-.01-.04,0-.05,0-.01.05,0,.05-.05.09.07.06.05.12,0s.08.01.14-.02c.01,0,0-.03.01-.03.01,0,.05,0,.04-.03,0-.01-.03-.01-.03-.02-.02-.06.02-.05.03-.07.01-.02.02-.06.04-.07.03-.02.07,0,.06-.07.06-.02,0,.05.05.04,0-.04.05-.06.06-.1.02-.07-.01-.13.04-.21,0-.01.03,0,.04-.04.02-.07-.03-.04-.04-.05,0-.09-.02-.16.07-.21.02-.01.06-.02.07-.02.02-.03-.02-.11.07-.08-.02-.04.01-.08,0-.1,0-.01-.02-.02-.02-.04,0-.09.06-.07.1-.11.02-.02.01-.05.03-.06.02-.01.08,0,.09,0,0,0,0-.05.03-.07.02,0,.04,0,.05,0,0,0,.07-.03.07-.03,0-.01-.05-.08.08-.09.02,0,.06.01.06,0,.02,0,.01-.04.04-.03.02,0,0,.04.03.03.03-.01.02-.05.03-.07,0,0,.02,0,.02-.01,0-.02-.02-.06-.01-.07h.09c0-.06-.06,0-.05-.06.05.01.1-.06.1-.1,0-.02-.03-.03-.02-.06.02,0,.07.02.07.01,0,0,0-.02,0-.03.01-.03.03-.06.04-.08.02-.05-.02-.08.08-.07,0-.04-.02-.06-.02-.1,0-.03.02-.05.02-.06,0-.02-.04-.03-.04-.03,0-.07.09-.06.1-.09.01-.04-.02-.12,0-.16.01-.01.09.07.11.03.01-.04-.02-.02-.04-.03-.05-.03.02-.05.01-.09-.08.02-.11,0-.09-.09-.02,0-.05.01-.07,0-.02,0-.12-.04-.08-.07Z" style="fill: #fee9a7;"/>
      <path d="M15.02,13.76s-.06.04-.1.05c0-.02.02-.04.03-.04s.04,0,.06-.01Z" style="fill: #fde18f;"/>
      <path d="M15.4,13.08s-.1.02-.13,0c.04,0,.09,0,.13,0Z" style="fill: #feecb1;"/>
      <path d="M16.74,11.73h-.04s0-.03,0-.03c.02,0,.03,0,.04.02v.02Z" style="fill: #fee9a7;"/>
      <path d="M14.9,13.83s-.05.04-.07.04c.02-.04.05-.03.07-.04Z" style="fill: #fde18f;"/>
      <path d="M19.08,12.7s0,.04.01.05h-.05s.01-.08.04-.05Z" style="fill: #fde698;"/>
      <path d="M16.16,12.82c0,.05,0,.1.01.14,0,0,0,.01,0,.02h-.01s.01.01.01.01c0,.03-.01.07-.02.11h-.01s.01.01.01.01c0,0,0,0,0,.01s0,0,0,.01c-.03,0-.04.03-.02.05,0,0,0,.01-.01.02-.01,0,0,.01-.01.02,0,0,0,0,0,.01-.06,0-.06.11-.08.13-.02.02-.04,0-.05.01,0,0,0,.04-.01.06,0,0-.09.04-.09.04-.03,0-.08,0-.1.01,0,0,0,.03,0,.04,0,0-.04.09-.04.09-.01.02-.04.01-.04.02,0,.02,0,.1-.01.11-.05,0-.08.04-.12.05-.02,0-.04,0-.06,0,0,0-.01.02-.03.03,0,0-.06.02-.07.02-.03,0-.02-.03-.03-.03-.03,0-.05.05-.11-.02,0-.02.01-.06.02-.07.02,0,.04-.03.05-.03.01,0,.03.01.03,0,.05-.03.1-.08.14-.13,0,0,.01-.01.02-.02.04,0,.13-.03.06-.06-.01.02-.04.03-.05.04v-.02s-.02-.03,0-.04c.02,0,.04,0,.06,0,.02,0,.04-.03.07-.03s.05.02.07,0,0-.04.01-.05c0-.02.02-.02.03-.04.02-.03,0-.08.06-.07.03,0,.04.04.07.02.04-.03.04-.14.08-.19.01-.02.06-.02.06-.05,0-.02-.07-.04-.04-.07,0,0,.18,0,.12-.05,0,0-.04,0-.04-.02,0-.01.02-.14.06-.12ZM15.59,13.6s-.03,0-.02.02.03,0,.02-.02Z" style="fill: #fde9a5;"/>
      <path d="M16.27,12.69s.02.04.02.06v.27s-.03.09-.05.1c.01-.05.02-.11.03-.16.01-.07.01-.09,0-.16,0-.06,0-.06,0-.11Z" style="fill: #fee9a7;"/>
      <path d="M15.28,13.73s-.01.06-.02.07c-.02.04-.06.02-.1.01l.02-.05s.04-.02.06-.03c0,0,.02,0,.03,0Z" style="fill: #feeaaa;"/>
      <path d="M16.87,12.7s.05.05.02.05c-.02,0-.05-.04-.02-.05Z" style="fill: #fee7a0;"/>
      <path d="M16.27,12.59s.02.03-.01.03c0-.02.01-.03.01-.03Z" style="fill: #fee9a7;"/>
      <path d="M15.27,13.9s0,.03-.02.02,0-.03.02-.02Z" style="fill: #feeaaa;"/>
      <path d="M18.41,10.36h-.02s0,0,0,0c0,0,.01,0,.02,0Z" style="fill: #fde698;"/>
      <path d="M13.29,13.2s.09,0,.13.02c-.05,0-.1,0-.15,0,0-.02,0-.03.02-.02Z" style="fill: #fde395;"/>
      <rect x="13.27" y="14.34" width=".03" height=".04" style="fill: #fee9a7;"/>
      <path d="M14.74,9.07s-.02-.04-.01-.06c.03.03.01.04.01.06Z" style="fill: #feecb1;"/>
      <path d="M15.01,10.36s-.05-.02-.04-.04c.03-.01.06.03.04.04Z" style="fill: #feecb1;"/>
      <rect x="15.09" y="9.76" width=".04" height=".02" style="fill: #feecb1;"/>
      <rect x="14.73" y="10.82" width=".03" height=".02" style="fill: #feecb1;"/>
      <path d="M14.69,12.52s0,.04.01.04c0,0,0,.01,0,.02-.02.01-.02.03-.02.05,0,0-.02,0-.02,0,0,0-.01-.13.03-.12Z" style="fill: #feeaaa;"/>
      <path d="M14.36,12.65h.09s-.05.04-.05.04c0-.02-.03-.02-.03-.04Z" style="fill: #feecb1;"/>
      <path d="M15.76,10.92s-.05.04-.1.06c0-.02.05-.04.07-.06h.02Z" style="fill: #feedb5;"/>
      <path d="M15.54,11.07c-.06.05-.12.08-.18.13,0-.03.04-.05.06-.06.03-.02.08-.06.12-.07Z" style="fill: #fde18f;"/>
      <path d="M14.84,12.34s.03,0,.03.02c0,.06-.03.03-.03.03v-.04Z" style="fill: #feebad;"/>
      <path d="M14.7,12.44s0,.04-.01.04c-.05,0-.04-.05.01-.04Z" style="fill: #feeaaa;"/>
      <path d="M15.05,11.43h.01s0,0-.01,0Z" style="fill: #feedb5;"/>
      <path d="M16.53,15.88s0,.03-.02.02,0-.03.02-.02Z" style="fill: #fde18f;"/>
      <path d="M16.94,8.85c-.07.02-.16.01-.22,0,.07-.02.15,0,.22,0Z" style="fill: #fde18f;"/>
      <path d="M16.17,7.91s-.07.01-.1.01c.03-.03.06-.01.1-.01Z" style="fill: #feedb5;"/>
      <path d="M17.23,8.53s.02,0,.02,0c.02.03-.04.03-.06.03,0,0,0,0-.02-.01h0s.04,0,.05-.02h.01Z" style="fill: #feeaaa;"/>
      <path d="M16.23,7.9s-.02.01-.02.01h.02Z" style="fill: #feedb5;"/>
      <path d="M17.16,8.54h0s-.02.03-.02.02c0-.02,0-.01.02-.02Z" style="fill: #fee7a0;"/>
      <path d="M14.87,14.75s0,0,0,.01h0Z" style="fill: #feeaaa;"/>
      <path d="M14.62,14.98s0,0,0,.01h0Z" style="fill: #feeaaa;"/>
      <path d="M17.76,10.99c-.05-.08.07-.12.05-.04,0,.01-.04.05-.05.04Z" style="fill: #fee9a7;"/>
      <path d="M17.92,10.72s-.03-.09.03-.07c.06.02,0,.1-.03.07Z" style="fill: #fee9a7;"/>
      <path d="M17.8,10.51s-.05.07-.04.02c0,0,.03-.02.04-.02Z" style="fill: #fee9a7;"/>
      <path d="M17.73,11.04s-.02.04-.03.03c-.02-.02.01-.05.03-.03Z" style="fill: #fee9a7;"/>
      <rect x="17.49" y="11.44" width=".03" height=".02" style="fill: #fee9a7;"/>
      <path d="M17.88,10.65s0,.03-.02.02,0-.03.02-.02Z" style="fill: #fee9a7;"/>
      <path d="M13.2,15.05s-.06-.04-.05-.07c.04,0,.06.04.05.07Z" style="fill: #fee9a7;"/>
      <path d="M13.26,15.07s0,.03-.02.02,0-.03.02-.02Z" style="fill: #fee9a7;"/>
      <path d="M15.1,6.96c0,.1.07.03.11.03.02,0,.03.02.05.02.03,0,.08-.02.12-.01l-.04.02s-.08.02-.11.02c-.02,0-.06.03-.07.01,0,0,0-.02,0-.02,0,0-.02.01-.02.01-.02,0-.04,0-.06.02,0-.02,0-.05,0-.07,0-.02-.01-.04.02-.04Z" style="fill: #feecb1;"/>
      <path d="M16.11,7.17c.02.06-.05.04-.05.09,0,.02-.05-.03-.05-.03,0,0,0-.06.01-.06,0,0,.04,0,.06,0,0,0,.02,0,.02,0,.01,0,.02.01.02.01Z" style="fill: #fee9a7;"/>
      <path d="M15.31,7.18h-.05s0-.06.03-.05c.03,0,.08.03.05.06,0,0-.02,0-.02,0,0,0,0-.01-.01-.01Z" style="fill: #feecb1;"/>
      <path d="M15.35,7.31l.05.03h-.07s0-.01.01-.02c0,0,0,0,.01-.01Z" style="fill: #feecb1;"/>
      <path d="M15.74,7.36s-.08.05-.11.02c.03-.01.07-.02.11-.02Z" style="fill: #fee7a0;"/>
      <path d="M15.39,7.42s.02-.05.02-.01c0,0-.01,0-.02.01Z" style="fill: #feecb1;"/>
      <path d="M15.61,7.39s0,0,.01.01c-.01,0-.03,0-.04,0h.03Z" style="fill: #fee7a0;"/>
      <path d="M15.81,7.42s-.04.02-.06.02c.02-.02.04-.02.06-.02Z" style="fill: #fee9a7;"/>
      <path d="M15.86,7.41h-.03s.02,0,.03,0Z" style="fill: #fee9a7;"/>
      <path d="M15.57,7.4s-.02,0-.03.01h.03Z" style="fill: #fee7a0;"/>
      <path d="M15.91,7.39l-.04.02s.02-.02.04-.02Z" style="fill: #fee9a7;"/>
      <path d="M15.86,7.26s0,0,0,.01h0Z" style="fill: #fefdfa;"/>
      <path d="M15.8,7.33h.01s0,0-.01,0Z" style="fill: #fee9a7;"/>
      <rect x="17.74" y="15.19" width=".17" height=".01" style="fill: #fde395;"/>
      <path d="M17.43,15.32s0,.02.01.05h-.01s0-.05,0-.05Z" style="fill: #fde395;"/>
      <path d="M16.03,7.55s.03.07-.01.09c-.04.02-.1.01-.08-.05.03-.01.06-.04.1-.04Z" style="fill: #feebad;"/>
      <path d="M16.18,7.48h.01s0,.02-.03.02h0s.01-.02.02-.02Z" style="fill: #feebad;"/>
      <path d="M16.03,7.54h0s-.06.04-.1.05c-.02,0-.05.01-.07.02.06-.02.11-.05.17-.07Z" style="fill: #fde395;"/>
      <path d="M15.75,7.56s0,0,0,.01h0Z" style="fill: #feecb1;"/>
      <path d="M13,14.8s0-.03,0-.04c0,.01.02.02,0,.04Z" style="fill: #fee7a0;"/>
      <path d="M16.48,9.42c0,.06-.02,0-.03-.01.01,0,.02,0,.03.01Z" style="fill: #fee9a7;"/>
      <path d="M16.19,8.38c.02.05-.04.02-.05,0,0-.01,0-.03,0-.03.02,0,.03.01.04.02Z" style="fill: #fde9a5;"/>
      <path d="M16.68,9.05s0,.02-.02.01c0,0,0-.02.02-.01Z" style="fill: #fde9a5;"/>
      <path d="M16.77,10.08s0,0,.01,0c.03.06-.03.05-.06.01.01,0,.04,0,.05-.01Z" style="fill: #feeaaa;"/>
      <path d="M16.67,10.1s0,0,.01,0c0,.05-.07,0-.01,0Z" style="fill: #feeaaa;"/>
      <path d="M16.5,8.84h0s-.06-.01-.09-.03c.03.01.06.02.1.03Z" style="fill: #fee7a0;"/>
      <path d="M16.39,8.81s-.01,0-.02-.01h.02Z" style="fill: #fee7a0;"/>
      <path d="M16.32,9.26h-.01s0,0,.01,0Z" style="fill: #fee7a0;"/>
      <path d="M17.78,15.12s0,.02-.02.01c0,0,0-.02.02-.01Z" style="fill: #fde395;"/>
      <path d="M13.79,11.89s0-.06,0-.1c.06,0,.03.07,0,.1Z" style="fill: #feecb1;"/>
      <path d="M13.8,11.67s.02.1-.01.09c0-.03,0-.06.01-.09Z" style="fill: #feecb1;"/>
      <path d="M13.8,12.03s.02,0,.02.02c-.03,0-.02,0-.02-.02Z" style="fill: #feecb1;"/>
      <path d="M15.24,7.05l-.07.04s-.02-.03,0-.03c.02.02.05,0,.07-.01Z" style="fill: #fde9a5;"/>
      <path d="M15.64,7.58s0,.02-.02.01c0,0,0-.02.02-.01Z" style="fill: #feecb1;"/>
      <path d="M18.74,11.39v-.02s0,.01,0,.02Z" style="fill: #fde18f;"/>
      <path d="M14.64,7.95s-.12.03-.1-.02c.03,0,.09,0,.1.02Z" style="fill: #feedb5;"/>
      <path d="M16.21,12.59s-.02.1-.02.14c0,0,0,0-.01.03,0,.07.01.14-.01.21,0-.04-.01-.09-.01-.14,0,0,0-.03.01-.04,0-.03,0-.07,0-.1,0-.03.01-.11.04-.1Z" style="fill: #feecb1;"/>
      <path d="M16.17,12.68s0,.07,0,.1c-.03,0-.07-.01-.07-.05.02-.02.04-.05.07-.05Z" style="fill: #fde9a5;"/>
      <path d="M15.53,13.52v.02s0,.02,0,.02c0,0-.01.01-.02.02,0,0-.01,0-.01-.01,0-.02.03-.03-.02-.02-.04.01-.13.06-.18.08,0,0,0-.02,0-.02.01,0,.04,0,.05-.01,0,0,0-.03,0-.03s.04.01.06,0c.03,0,.05-.04.08-.05.02,0,.05,0,.05,0Z" style="fill: #fde395;"/>
      <path d="M15.29,13.64s-.2.11-.26.13c0,0,0-.01.01-.02.02,0,.02,0,.03-.01.08-.04.13-.06.21-.1Z" style="fill: #fde18f;"/>
      <path d="M16.31,12.34c-.02.05-.06.1-.07.16l.02-.09.06-.07Z" style="fill: #fde18f;"/>
      <path d="M15.08,13.73s-.02.02-.03.01c0-.02-.01-.03.03-.02h0Z" style="fill: #feecb1;"/>
      <path d="M15.5,13.58s-.09.09-.14.13c0,0-.02,0-.03,0,0,0-.02.02-.05.03,0,0-.02,0-.03,0l.25-.16s0,.01.01.01Z" style="fill: #fee8a4;"/>
      <path d="M16.15,13.12s0,0,0-.01,0,0,0-.01c0-.03.02-.08.02-.11,0,0,0,0,0-.01,0,0,0-.01,0-.02.02-.07,0-.14.01-.21,0-.02.01-.02.01-.03,0,.13.02.28-.04.4Z" style="fill: #fde18f;"/>
      <path d="M15.53,13.56s0-.02.01-.02c.01-.01.04-.03.05-.04.07.03-.02.07-.06.06Z" style="fill: #fee9a7;"/>
      <path d="M16.15,13.13s-.01.03-.02.05c-.01-.02,0-.06.02-.05Z" style="fill: #fde18f;"/>
      <path d="M15.59,13.6s0,.03-.02.02,0-.03.02-.02Z" style="fill: #fee8a4;"/>
      <path d="M16.1,13.23s0-.02.01-.02c0,0,0,.02-.01.02Z" style="fill: #fee8a4;"/>
      <polygon points="16.17 12.99 16.16 12.99 16.17 12.98 16.17 12.99" style="fill: #feecb1;"/>
      <polygon points="16.15 13.11 16.13 13.11 16.15 13.1 16.15 13.11" style="fill: #fee9a7;"/>
      <path d="M16.27,12.96v-.16c.01.07.01.09,0,.16Z" style="fill: #fde18f;"/>
    </g>
  </g>
  <g id="for_export_create_outline_" data-name="for export (create outline)">
    <g>
      <path d="M21.51,25.51c.08-.07.17-.1.27-.09.09,0,.18.05.26.14.04.04.07.08.1.12.06.11.13.28.2.5.07.22.15.51.23.85,0,.03.01.05.03.06,0,0,.01,0,.02,0,.01-.01.01-.04,0-.08-.01-.15-.02-.31-.02-.48,0-.17,0-.35,0-.55.02-.53.09-.88.22-1.06.02-.03.04-.05.07-.05.03,0,.06,0,.1,0,.05,0,.09,0,.11.03.03.02.05.04.07.06.01,0,.02.02.03.03,0,0,.01.02.02.03.05.17.09.33.13.49.04.16.09.33.14.49.02.08.06.19.1.33.04.13.1.28.15.44.06.16.12.32.18.48.07.16.13.31.19.44.06.13.12.25.18.33.05.09.1.14.14.15.01,0,.02.01.03.02,0,.01.01.02.02.03.05.05.08.06.11.03.07-.07.11-.28.12-.62,0-.04,0-.06,0-.06,0,0,.01,0,.01,0,0,0,.01.03.02.06.02.07.01.18,0,.33-.02.16-.06.26-.1.31-.02.02-.04.03-.06.03-.03,0-.05,0-.08,0-.03,0-.05-.01-.08-.03-.02-.01-.04-.03-.06-.04-.02-.03-.06-.09-.11-.18-.05-.09-.11-.2-.17-.33-.06-.13-.13-.27-.2-.42-.07-.15-.14-.3-.2-.45-.06-.15-.12-.28-.17-.41-.05-.13-.09-.23-.12-.31l-.34-1.06s-.04-.09-.06-.12c-.03-.03-.07-.03-.11.01-.02.03-.05.06-.07.12-.09.21-.15.52-.17.92,0,.17,0,.33,0,.5,0,.17.01.34.03.52.01.15.03.28.04.39.01.11.03.19.04.26,0,.04,0,.08-.02.1-.02.02-.04.02-.06,0,0,0,0,0-.01-.02,0,0,0-.02-.01-.03-.23-1.04-.42-1.71-.56-1.99-.02-.03-.04-.06-.06-.09-.02-.03-.04-.05-.06-.07-.13-.13-.27-.13-.4-.01-.12.11-.23.33-.33.66-.05.17-.08.33-.11.48-.02.15-.04.31-.04.46,0,.33.05.56.17.67.04.04.09.04.14,0,.03-.02.06-.05.09-.07s.05-.05.07-.08c.02-.02.03-.03.04-.02,0,0,0,.02-.01.05-.04.08-.09.13-.14.17-.09.07-.19.05-.29-.06-.1-.1-.15-.31-.15-.63,0-.16,0-.32.03-.47.02-.16.05-.31.1-.47.05-.17.11-.32.17-.44s.13-.22.21-.29Z" style="fill: blue;"/>
      <path d="M24.69,25.73c-.03-.07-.09-.17-.16-.29-.03-.05-.06-.09-.08-.13-.02-.03-.04-.06-.06-.08-.01.12-.03.25-.07.41-.04.21-.09.36-.14.46,0,.01-.01.02-.02.02-.01.01-.02.02-.04.02-.02,0-.03,0-.04-.02-.02-.03-.06-.2-.14-.49,0,0-.01-.02-.03-.03-.02-.01-.03-.03-.03-.04,0-.01,0-.05.03-.12.03-.07.04-.11.05-.12.02-.02.04-.02.06,0-.02.04-.01.13,0,.28.02.13.04.22.06.3,0,.01.01.02.02.03.01.01.03.02.04,0,.02-.01.03-.02.04-.04.02-.04.04-.1.06-.16.02-.07.04-.14.06-.24.01-.07.02-.13.03-.19s.01-.1.02-.13c0-.02,0-.03,0-.05,0-.02,0-.03.01-.04.02-.02.04-.04.06-.04.02,0,.04,0,.05.02,0,.01,0,.02,0,.03,0,.01,0,.03.01.04.06.11.15.27.25.49.16-.24.33-.45.51-.64.06-.07.12-.11.16-.14.02-.01.04-.02.06-.03.02,0,.05-.01.07-.01.02,0,.05,0,.07,0,.02,0,.04.02.06.03.02.02.03.03.03.05.01.05.01.13,0,.25,0,.02,0,.03-.01.04,0,0,0,0,0,0,0,0,0-.02,0-.04,0-.15-.01-.24-.07-.3-.04-.04-.1-.03-.17.03-.02.02-.04.04-.07.06-.02.02-.05.05-.08.08-.24.24-.41.46-.53.64.65,1.4.72,2.39.21,2.99-.17.2-.4.33-.67.38-.27.05-.48,0-.63-.13-.05-.05-.08-.1-.11-.16-.12-.31-.02-.84.31-1.57.11-.25.24-.5.37-.74.13-.24.28-.48.44-.72ZM23.67,28.75s.02.05.04.08c.02.02.03.05.05.07.13.12.31.16.55.12.25-.05.46-.17.63-.36.3-.33.38-.86.23-1.57-.05-.22-.11-.44-.18-.66-.08-.22-.17-.44-.28-.65-.38.57-.67,1.11-.86,1.63-.24.62-.3,1.07-.18,1.35Z" style="fill: blue;"/>
      <path d="M25.82,24.58c-.21.21-.43.35-.66.42-.25.08-.46.05-.6-.09-.17-.17-.26-.47-.25-.89,0-.37.08-.78.22-1.21.13-.41.28-.72.43-.92.04-.05.08-.1.13-.15.13-.13.24-.2.35-.21v-.07s0-.02.01-.03c.01,0,.02,0,.03,0,0,0,0,.03.01.08.05,0,.11.04.17.1.06.06.11.13.14.21.03.08.05.18.05.3.01.15,0,.3-.05.45,0,0-.02.02-.04.04-.03.02-.05.03-.06.03-.09-.09-.16-.25-.21-.49-.04-.18-.06-.35-.06-.49-.09-.03-.21.03-.35.17-.02.02-.04.04-.06.06-.02.02-.04.05-.06.08-.23.34-.4.8-.5,1.38-.1.61-.07,1.07.1,1.38.03.05.06.09.1.13.12.11.27.15.45.11.21-.05.42-.19.64-.42.12-.13.24-.28.34-.45.1-.16.2-.34.29-.53.08-.18.14-.35.18-.51.04-.16.07-.31.08-.46,0-.02,0-.04.01-.05,0,0,.01,0,.02,0,0,0,0,.02,0,.04,0,.3-.09.64-.25,1.02-.09.2-.18.38-.29.55s-.22.31-.35.44ZM25.73,22.51s.02.02.03.01c.01,0,.02,0,.02-.02.05-.21.04-.4-.03-.58-.01-.04-.03-.07-.05-.1-.02-.03-.04-.06-.07-.08-.04-.04-.09-.07-.13-.08,0,.07,0,.13.01.21,0,.07.03.15.05.24.05.16.1.3.17.4Z" style="fill: blue;"/>
    </g>
  </g>
  <g id="hand_and_baby" data-name="hand and baby">
    <g id="tay_phai" data-name="tay phai">
      <path d="M24.68,14.61c.17,1.01-.13,1.92-.57,2.81-.27.55-.5,1.12-.73,1.69-.2.49-.52.89-.94,1.21-.53.41-1.07.82-1.59,1.26-.12.1-.21.29-.21.44-.02.58-.01,1.16,0,1.73,0,.21.08.21-.23.51-.4.44-.36.6-.35-.49,0-.67-.01-1.35.01-2.02,0-.16.11-.37.24-.48.59-.49,1.23-.94,1.8-1.44.29-.25.55-.58.71-.93.43-.89.8-1.8,1.18-2.71.06-.15.1-.32.1-.49.01-.7.02-1.4,0-2.1,0-.15-.07-.37-.18-.43-.22-.12-.48-.05-.59.19-.14.29-.22.61-.3.92-.05.21-.02.44-.08.64-.04.12-.18.21-.27.32-.1-.1-.29-.21-.28-.3.02-.64.05-1.28.41-1.85.27-.44.72-.62,1.21-.51.46.1.67.36.67.84,0,.4,0,.8,0,1.19Z" style="fill: #fff;"/>
      <path d="M22.26,16.42c-.51-.29-.92-.25-1.41.19-.43.39-.82.82-1.24,1.21-.19.17-.42.32-.65.4-1.04.37-1.79,1.35-1.8,2.47-.01.95,0,1.9,0,2.85,0,.08.08,4.19.04,4.26-.07.14-.33.27-.42.4-.1-.12-.18-4.26-.19-4.39-.04-.37-.02-.75-.01-1.12.01-.83-.04-1.67.07-2.49.17-1.23.94-2.04,2.08-2.52.18-.08.36-.19.51-.32.41-.38.78-.79,1.19-1.16.79-.7,1.65-.75,2.35-.16.32.27.33.4.03.7-.76.76-1.52,1.51-2.28,2.27-.16.16-.34.33-.55.1-.19-.2-.03-.37.12-.52.64-.64,1.28-1.28,1.92-1.91.08-.08.16-.17.25-.26Z" style="fill: #fff;"/>
    </g>
    <g id="tay_trai" data-name="tay trai">
      <path d="M7.32,14.53c0-.35.01-.7,0-1.05-.02-.35.04-.65.38-.83.37-.19.77-.25,1.09.01.26.21.49.51.6.82.15.41.19.87.22,1.31,0,.13-.14.36-.26.39-.21.06-.29-.13-.31-.34-.03-.35-.07-.7-.15-1.03-.04-.19-.13-.42-.27-.54-.13-.11-.37-.15-.55-.13-.07,0-.13.25-.18.39-.02.05,0,.12,0,.18-.32,2.01.62,3.69,1.41,5.41.11.25.35.46.57.64.59.49,1.2.96,1.82,1.43.19.14.27.31.27.55-.01.66,0,1.33,0,1.99v.91c-.4-.44-.6-.66-.6-.66,0-.6.03-1.45.01-2.05,0-.13-.09-.3-.19-.38-.54-.44-1.12-.84-1.63-1.31-.35-.33-.66-.73-.89-1.15-.3-.53-.47-1.13-.75-1.68-.46-.91-.74-1.85-.58-2.88Z" style="fill: #fff;"/>
      <path d="M9.72,16.41c.72.72,1.41,1.42,2.11,2.12.08.08.18.15.21.24.03.1.04.27-.02.32-.08.07-.23.08-.35.07-.07,0-.13-.1-.19-.16-.76-.76-1.52-1.51-2.27-2.27-.3-.3-.29-.43.03-.7.64-.53,1.42-.55,2.12,0,.48.38.89.85,1.34,1.26.18.16.4.31.62.4,1.27.5,2.1,1.68,2.1,3.05,0,1.02,0,6.65,0,7.67,0,0-.14-.15-.47-.51l-.1-4.09c0-.06,0-.14,0-.21,0-.91,0-1.83,0-2.74,0-1.33-.71-2.28-1.99-2.68-.13-.04-.25-.14-.35-.24-.46-.44-.9-.91-1.37-1.33-.49-.44-.89-.48-1.42-.19Z" style="fill: #fff;"/>
    </g>
  </g>
</svg>