<?xml version="1.0" encoding="UTF-8"?>
<svg xmlns="http://www.w3.org/2000/svg" xmlns:xlink="http://www.w3.org/1999/xlink" viewBox="0 0 32 32">
  <defs>
    <style>
      .cls-1 {
        stroke-linecap: round;
        stroke-width: .15px;
      }

      .cls-1, .cls-2, .cls-3 {
        fill: #fff;
      }

      .cls-1, .cls-4 {
        stroke: #fff;
        stroke-linejoin: round;
      }

      .cls-5 {
        fill: url(#linear-gradient);
      }

      .cls-5, .cls-2, .cls-6, .cls-7 {
        stroke-width: 0px;
      }

      .cls-6 {
        fill: url(#linear-gradient-2);
      }

      .cls-4 {
        fill: none;
        stroke-linecap: square;
        stroke-width: .2px;
      }

      .cls-7 {
        fill: url(#linear-gradient-3);
      }

      .cls-3 {
        font-family: CommercialScriptBT-Regular, 'CommercialScript BT';
        font-size: 9px;
      }
    </style>
    <linearGradient id="linear-gradient" x1="2" y1="16" x2="30" y2="16" gradientUnits="userSpaceOnUse">
      <stop offset="0" stop-color="#ae150b"/>
      <stop offset="1" stop-color="#f33e41"/>
    </linearGradient>
    <linearGradient id="linear-gradient-2" x1="3" x2="29" xlink:href="#linear-gradient"/>
    <linearGradient id="linear-gradient-3" x1="24.24" y1="6.84" x2="26.32" y2="6.84" gradientTransform="translate(4.69 -8.88) rotate(22.19)" gradientUnits="userSpaceOnUse">
      <stop offset="0" stop-color="#fff"/>
      <stop offset=".12" stop-color="#fdeeee"/>
      <stop offset=".37" stop-color="#fac2c3"/>
      <stop offset=".71" stop-color="#f47c7e"/>
      <stop offset="1" stop-color="#f03c3f"/>
    </linearGradient>
  </defs>
  <g id="Proposal_ori">
    <text class="cls-3" transform="translate(4.38 13.29)"><tspan x="0" y="0">06/5</tspan></text>
    <text class="cls-3" transform="translate(8.7 20.1)"><tspan x="0" y="0">2023</tspan></text>
    <line class="cls-4" x1="5.82" y1="14.93" x2="23.82" y2="14.93"/>
  </g>
  <g id="Layer_2" data-name="Layer 2">
    <rect class="cls-2" width="32" height="32" rx="7" ry="7"/>
  </g>
  <g id="Layer_3" data-name="Layer 3">
    <path class="cls-5" d="m27.54,4.67c-3.17-3.45-8.26-3.56-11.54-.31-1.59-1.58-3.59-2.36-5.61-2.36-2.15,0-4.29.89-5.93,2.67-3.18,3.44-3.28,8.94-.29,12.51.08.12.18.24.29.35l11.21,12.16c.11.11.21.23.33.31.12-.08.22-.2.32-.31l11.22-12.16c.1-.11.21-.23.29-.35,1.45-1.72,2.17-3.91,2.17-6.08,0-2.33-.82-4.66-2.46-6.43Zm-.14,12.47c-.07.12-.17.23-.27.34l-10.82,11.72c-.1.11-.2.22-.31.3-.11-.08-.21-.19-.31-.3l-10.82-11.72c-.1-.11-.2-.22-.28-.34-2.88-3.45-2.78-8.75.28-12.07,1.58-1.71,3.65-2.57,5.72-2.57,1.95,0,3.88.75,5.41,2.27,3.16-3.13,8.07-3.02,11.13.3,1.58,1.71,2.37,3.96,2.37,6.2,0,2.1-.69,4.21-2.1,5.87Z"/>
    <path class="cls-2" d="m27.13,5.07c-3.06-3.32-7.97-3.43-11.13-.3-1.53-1.52-3.46-2.27-5.41-2.27-2.07,0-4.14.86-5.72,2.57-3.06,3.32-3.16,8.62-.28,12.07.08.12.18.23.28.34l10.82,11.72c.1.11.2.22.31.3.11-.08.21-.19.31-.3l10.82-11.72c.1-.11.2-.22.27-.34,1.41-1.66,2.1-3.77,2.1-5.87,0-2.24-.79-4.49-2.37-6.2Zm-.15,12.02c-.07.12-.17.23-.26.33l-10.42,11.29c-.1.11-.19.21-.3.29-.11-.08-.21-.18-.3-.29l-10.42-11.29c-.09-.1-.19-.21-.26-.33-2.78-3.31-2.69-8.42.26-11.61,1.53-1.65,3.52-2.48,5.51-2.48,1.87,0,3.74.72,5.21,2.19,3.04-3.02,7.77-2.91,10.72.29,1.52,1.65,2.28,3.81,2.28,5.97,0,2.02-.66,4.05-2.02,5.64Z"/>
    <path class="cls-6" d="m29,11.45c0,2.02-.66,4.05-2.02,5.64-.07.12-.17.23-.26.33l-10.42,11.29c-.1.11-.19.21-.3.29-.11-.08-.21-.18-.3-.29l-10.42-11.29c-.09-.1-.19-.21-.26-.33-2.78-3.31-2.69-8.42.26-11.61,1.53-1.65,3.52-2.48,5.51-2.48,1.87,0,3.74.72,5.21,2.19,3.04-3.02,7.77-2.91,10.72.29,1.52,1.65,2.28,3.81,2.28,5.97Z"/>
  </g>
  <g id="Layer_5" data-name="Layer 5">
    <path class="cls-2" d="m23.22,4.54c-.14-.08-.3-.03-.36.12-.07-.04-.14-.04-.2-.02-.07.02-.12.08-.15.16-.05.15.01.34.15.43,0,0,0,0,.01,0l.49.29s0,0,.01,0c0,0,0,0,0-.01l.19-.54s0-.01,0-.02c.02-.08.02-.16,0-.23-.03-.08-.08-.15-.15-.19Zm.15.43s0,.01,0,.01l-.18.52s0,0,0,.01c0,0,0,0-.01,0l-.47-.28s0,0-.01,0c-.13-.09-.19-.27-.14-.41.03-.08.08-.13.14-.15.06-.02.13-.02.19.02.06-.14.21-.19.34-.11.07.04.12.11.15.19.03.07.03.15,0,.22Z"/>
    <path class="cls-7" d="m26.6,7.12c-.05.12-.15.23-.29.28,0,0-.02,0-.03.01l-1.05.37s-.02,0-.03,0c0,0-.01-.02-.02-.03l-.49-1s0-.02-.01-.03c-.12-.29.01-.6.31-.7.15-.05.32-.05.47.02.14.06.26.16.33.29.3-.09.65.06.79.34.07.15.07.3.02.43Z"/>
  </g>
  <g id="Memories_NyC" data-name="Memories NyC">
    <g id="NyC">
      <g>
        <path class="cls-1" d="m13.08,15.26c.17,0,.3.08.4.21.09.11.13.26.13.44,0,.08,0,.16-.03.24-.05.19-.17.44-.34.76s-.41.71-.71,1.18c-.03.04-.04.07-.04.09,0,.01,0,.02.02.02.03,0,.06-.03.09-.08.16-.18.33-.36.51-.55s.4-.38.62-.58c.61-.55,1.09-.85,1.42-.9.05-.01.1,0,.13.02s.08.06.12.11c.05.05.08.11.09.15,0,.05.01.09.01.14,0,.02,0,.04,0,.06s0,.04-.01.05c-.14.23-.27.46-.41.68s-.27.45-.4.68c-.07.12-.16.27-.26.47-.1.2-.21.41-.33.65-.11.24-.23.48-.34.73-.11.25-.21.48-.29.7s-.14.4-.18.56c-.04.16-.04.26-.01.32,0,.02,0,.04,0,.05,0,.02-.01.04-.01.06,0,.1.03.15.09.15.16,0,.44-.18.83-.54.04-.04.07-.06.08-.06,0,0,.01.01.01.02,0,.01-.02.04-.05.09-.06.1-.19.21-.37.35-.2.14-.35.22-.45.22-.04,0-.08-.01-.11-.04-.03-.02-.06-.05-.08-.09-.02-.04-.04-.07-.05-.11-.01-.04-.02-.08-.02-.12,0-.06.03-.16.08-.32s.11-.34.18-.56c.08-.21.16-.44.26-.69s.19-.48.29-.71.19-.44.28-.64c.09-.19.16-.35.22-.46l.82-1.53c.04-.07.06-.14.06-.2,0-.07-.04-.11-.13-.11-.06,0-.12.02-.2.05-.34.13-.75.4-1.22.8-.19.17-.38.35-.57.54-.19.19-.37.39-.56.6-.16.18-.29.33-.39.46-.1.13-.19.24-.24.32-.04.06-.09.08-.14.08-.05,0-.07-.02-.07-.06,0,0,0-.02,0-.03,0-.01.01-.03.02-.04.92-1.39,1.46-2.32,1.63-2.79.02-.06.03-.11.04-.16s.01-.1.01-.15c0-.29-.14-.44-.42-.46-.26-.01-.63.1-1.1.34-.24.13-.46.26-.66.4s-.39.29-.56.46c-.38.36-.57.67-.57.93,0,.09.05.15.15.17.06.01.12.02.18.02s.11,0,.17-.01c.05,0,.07,0,.07.02,0,.02-.02.03-.07.04-.13.04-.24.05-.34.03-.18-.03-.27-.16-.25-.39,0-.22.19-.51.55-.85.18-.18.37-.34.57-.48s.41-.28.63-.4c.25-.13.48-.22.68-.29.2-.06.39-.09.55-.08Z"/>
        <path class="cls-1" d="m16.28,19.07c.05-.12.1-.28.15-.49.02-.09.04-.17.05-.23.01-.06.02-.11.03-.15-.14.11-.32.24-.53.37-.28.17-.5.29-.67.35-.02,0-.03,0-.04,0-.03,0-.05,0-.07-.03-.02-.02-.02-.04-.02-.06.02-.05.15-.29.4-.7,0-.01,0-.03,0-.07,0-.03,0-.06,0-.08.01-.02.07-.05.17-.09.1-.04.17-.07.19-.07.04,0,.06.02.07.06-.06.02-.16.13-.31.31-.12.16-.21.29-.26.39,0,.02-.01.04-.01.05,0,.03.01.04.03.05.03,0,.06,0,.08,0,.07-.02.15-.06.24-.11.1-.05.2-.11.33-.19.1-.06.18-.12.25-.16s.12-.09.16-.12c.01-.02.03-.05.05-.06s.04-.03.06-.03c.05,0,.09,0,.11.03s.03.05.03.08c-.01.01-.02.03-.03.04s-.02.03-.04.06c-.06.19-.15.46-.28.8.44-.08.87-.11,1.27-.11.14,0,.25,0,.33.03.03,0,.06.02.1.04s.06.04.09.07c.03.03.05.06.07.09s.03.07.03.1,0,.06-.03.09c-.04.07-.13.16-.28.26-.02.02-.04.03-.06.03,0,0,0,0,0,0,0-.02.01-.03.04-.05.17-.15.26-.28.26-.4,0-.09-.07-.15-.21-.16-.04,0-.09,0-.14,0-.05,0-.11,0-.18,0-.53,0-.96.03-1.29.1-.86,2.24-1.9,3.4-3.13,3.47-.42.02-.8-.09-1.15-.35-.35-.25-.53-.54-.53-.85,0-.1.02-.2.07-.3.22-.48.92-.93,2.1-1.35.4-.14.81-.27,1.23-.38s.84-.21,1.28-.28Zm-4.5,2.13s-.03.08-.04.12c-.01.04-.02.08-.02.13,0,.28.15.53.46.75.32.23.69.33,1.09.31.7-.02,1.37-.5,2.01-1.44.2-.29.38-.6.54-.92s.31-.66.43-1.02c-1.05.2-1.97.46-2.77.79-.95.4-1.52.82-1.71,1.27Z"/>
        <path class="cls-1" d="m18.79,19.09c-.46,0-.86-.1-1.18-.28-.37-.2-.55-.46-.55-.78,0-.38.25-.79.74-1.25.42-.4.96-.75,1.59-1.07.6-.3,1.1-.47,1.51-.52.1-.01.21-.02.31-.02.29,0,.5.05.62.16l.08-.07s.02-.02.04-.02c.02,0,.03.01.03.04,0,.01-.02.04-.07.1.05.06.08.16.08.3s-.02.26-.07.38c-.05.12-.14.25-.28.39-.15.17-.34.31-.55.43-.01,0-.04,0-.1,0-.06-.01-.09-.02-.09-.04,0-.2.11-.45.33-.76.16-.24.33-.44.49-.6-.07-.14-.26-.21-.56-.21-.04,0-.08,0-.13,0s-.1,0-.15.02c-.64.11-1.34.42-2.09.93-.79.55-1.27,1.08-1.45,1.61-.03.08-.04.17-.04.25,0,.26.12.46.36.62.28.18.67.27,1.17.26.29,0,.58-.04.88-.1.3-.06.6-.15.91-.26.28-.11.54-.23.77-.35.23-.12.43-.26.61-.41.02-.02.04-.04.06-.04.02,0,.02,0,.02.03,0,.01-.01.03-.04.06-.35.32-.82.6-1.41.83-.32.12-.63.21-.93.27s-.59.09-.88.08Zm2.23-2.34s0,.04.01.04c.01.01.03.01.05,0,.29-.17.49-.39.62-.67.02-.06.04-.11.06-.16.01-.05.02-.11.02-.16,0-.1-.02-.17-.06-.23-.07.07-.14.15-.22.24-.07.09-.14.2-.21.32-.13.23-.22.44-.27.62Z"/>
      </g>
    </g>
    <g id="Memories">
      <path class="cls-2" d="m7.55,8.34c-.18.13-.44.43-.8.91-.36.48-.77,1.09-1.23,1.83-.02.04-.06.09-.1.16-.51.81-.95,1.22-1.32,1.22-.19,0-.35-.06-.47-.17s-.18-.26-.18-.44c0-.19.06-.35.17-.48s.25-.2.4-.2c.11,0,.19.03.24.08.06.05.08.13.08.23,0,.09-.02.16-.07.21s-.15.09-.29.12c-.11.02-.19.06-.24.1-.05.05-.08.1-.08.18,0,.06.04.13.13.18.08.06.18.09.29.09.32,0,.75-.43,1.3-1.3.21-.33.38-.6.51-.79.43-.64.81-1.15,1.13-1.53.32-.38.53-.57.63-.57.02,0,.04,0,.06.02.02.01.02.03.02.05,0,.08-.11.37-.33.88-.06.15-.11.26-.14.34-.37.88-.63,1.51-.77,1.9-.14.38-.22.67-.24.84.58-1.11,1.18-2.06,1.78-2.85.61-.79.99-1.19,1.16-1.19.02,0,.04,0,.06.02.02.01.02.03.02.04,0,.02-.11.27-.33.76-.22.49-.42.98-.62,1.48-.18.47-.31.84-.39,1.11-.08.28-.12.48-.12.6,0,.02,0,.04.02.06.01.02.03.03.05.03.04,0,.12-.05.25-.16s.35-.32.66-.64c.31-.31.54-.53.71-.66s.28-.21.35-.21c0,0,.02,0,.05,0,.01,0,.02,0,.02,0-.16.09-.46.35-.9.8-.14.14-.24.25-.32.33h-.01c-.47.49-.8.73-.99.73-.14,0-.25-.06-.34-.17s-.13-.27-.13-.45c0-.21.05-.45.16-.71.11-.27.29-.61.55-1.04.08-.13.28-.44.6-.91.24-.36.43-.64.58-.86-.24.16-.52.46-.86.89s-.72.99-1.15,1.68c-.17.27-.36.6-.56.99-.2.38-.36.58-.47.58-.1,0-.19-.06-.25-.17-.06-.12-.1-.27-.1-.45,0-.43.52-1.47,1.56-3.1l.25-.38Z"/>
      <path class="cls-2" d="m9.63,11.71c-.05.14-.09.25-.11.32-.02.07-.03.12-.03.16,0,.05.02.08.05.1s.09.03.16.03c.17,0,.36-.05.55-.15.19-.1.47-.31.82-.62.12-.1.27-.24.46-.41.4-.37.65-.55.74-.55,0,0,.02,0,.03,0,.02,0,.03,0,.04,0-.15.08-.37.27-.67.56-.15.15-.27.27-.36.35-.43.39-.76.65-.99.77-.22.12-.44.18-.66.18-.23,0-.41-.06-.55-.19-.14-.13-.21-.3-.21-.51,0-.17.05-.35.16-.51.1-.17.26-.33.47-.49.18-.14.36-.24.54-.32.18-.08.35-.11.5-.11.14,0,.24.04.32.11.08.08.12.18.12.31,0,.21-.13.41-.39.59-.26.18-.59.31-1.01.37Zm.04-.11c.28-.04.53-.16.74-.36s.33-.4.33-.58c0-.05-.02-.1-.04-.14-.03-.04-.07-.06-.11-.06-.11,0-.26.11-.45.33-.19.22-.34.49-.47.81Z"/>
      <path class="cls-2" d="m11.15,12.45l.71-1.05c.09-.14.16-.24.2-.32.04-.08.06-.13.06-.17,0-.02,0-.04-.02-.06s-.02-.03-.04-.03c-.03,0-.09.05-.2.16-.11.11-.18.16-.22.16,0,0-.02,0-.02,0s0-.01-.01-.02c0-.02.01-.05.04-.08.03-.04.11-.12.23-.24.02-.02.06-.06.1-.11.21-.22.37-.33.47-.33.09,0,.16.04.21.11s.08.18.08.32c0,.07,0,.15-.03.22s-.05.17-.09.28c.31-.36.56-.62.74-.76.18-.14.34-.21.47-.21.12,0,.21.04.29.13.07.09.11.2.11.35,0,.04-.01.1-.03.18s-.06.2-.13.36c.27-.35.51-.6.72-.77s.4-.25.57-.25c.13,0,.24.05.33.14.08.1.13.22.13.37,0,.12-.03.25-.1.39-.07.14-.2.33-.38.57-.03.04-.06.08-.11.14-.12.15-.18.25-.18.3,0,.02,0,.04.02.05.01,0,.03.01.07.01.07,0,.16-.04.26-.11.1-.07.26-.21.47-.41.09-.09.21-.21.38-.37.56-.55.9-.83,1.01-.83,0,0,.02,0,.05,0,.01,0,.02,0,.02,0-.17.1-.46.36-.87.78-.08.09-.15.16-.2.21-.38.39-.64.64-.78.73s-.29.14-.45.14c-.13,0-.24-.05-.32-.14-.08-.09-.13-.21-.13-.35,0-.19.16-.49.47-.91l.06-.07c.04-.06.09-.13.16-.21.1-.13.15-.21.15-.24,0-.04,0-.06-.02-.07-.01-.01-.04-.02-.07-.02-.19,0-.45.18-.78.54-.33.36-.66.84-1,1.43l-.8.04.5-.86c.15-.26.26-.46.33-.62.07-.15.11-.26.11-.33,0-.04,0-.07-.02-.09,0-.02-.02-.03-.04-.03-.1,0-.3.16-.59.49-.29.33-.66.79-1.09,1.39l-.81.04Z"/>
      <path class="cls-2" d="m18.06,11.97c.2-.03.45-.19.75-.49.05-.05.08-.08.11-.11.28-.28.5-.48.65-.6s.26-.18.32-.18c0,0,.02,0,.05,0,.01,0,.02,0,.02,0-.16.09-.43.32-.79.68-.18.18-.32.33-.42.42-.15.15-.3.26-.43.33s-.27.1-.42.1h-.04c-.15.12-.29.2-.42.25s-.26.07-.4.07c-.2,0-.36-.06-.49-.19-.12-.12-.18-.29-.18-.49,0-.18.06-.37.18-.56.12-.2.29-.37.5-.53.16-.12.33-.21.51-.28.18-.07.34-.1.48-.1.2,0,.35.05.46.16s.16.25.16.44c0,.17-.05.33-.14.49-.09.16-.24.35-.45.57Zm-.43.13s-.02-.04-.02-.06c0-.01,0-.03,0-.03,0-.07.03-.13.1-.18.07-.05.15-.08.24-.08h.01c.15-.18.27-.36.35-.52.08-.17.12-.31.12-.42,0-.11-.02-.19-.07-.25-.04-.06-.11-.09-.19-.09-.11,0-.25.09-.42.27-.17.18-.34.42-.52.72-.08.14-.15.27-.19.38-.04.11-.06.21-.06.28,0,.07.02.12.05.15.03.03.08.05.14.05s.14-.02.22-.05c.08-.04.16-.09.23-.16Z"/>
      <path class="cls-2" d="m20.41,10.7c-.12.01-.22.02-.27.03s-.11,0-.14,0h-.02s-.08,0-.11,0h-.11l-.27.25s-.09.09-.15.15c-.1.11-.17.16-.21.16-.02,0-.03,0-.04-.02-.01,0-.02-.02-.02-.04,0-.02.06-.09.18-.21.06-.06.1-.1.14-.14l.24-.23v-.03c.09-.31.15-.46.2-.46.03,0,.05,0,.06.03s.02.05.02.08c0,0,0,.01,0,.03,0,.02,0,.04,0,.05,0,.06.02.09.05.12.04.02.14.04.3.06.22.02.37.06.46.12.09.06.14.14.14.25s-.13.34-.39.69c-.05.07-.09.12-.12.16-.01.02-.03.04-.06.08-.15.21-.23.34-.23.4,0,.01,0,.02.02.03s.03.01.04.01c.08,0,.39-.25.91-.76l.09-.08c.31-.31.55-.53.71-.66.16-.13.27-.19.33-.19,0,0,.02,0,.05,0,.01,0,.02,0,.02,0-.18.1-.45.34-.82.72-.1.11-.18.19-.24.25l-.05.05c-.55.56-.94.84-1.16.84-.14,0-.25-.04-.33-.13s-.12-.2-.12-.35c0-.2.08-.43.25-.68.17-.25.38-.45.63-.59Z"/>
      <path class="cls-2" d="m21.93,10.82l-.2.2s-.07.07-.12.12c-.1.1-.15.14-.17.14-.02,0-.04,0-.05,0-.01,0-.02-.01-.02-.02,0-.03.04-.08.13-.15.06-.06.11-.1.15-.14l.22-.22s.02-.02.04-.04c.13-.13.23-.24.3-.33l.71-.05-.69,1.26c-.1.19-.18.34-.24.45s-.08.18-.08.21c0,.02,0,.03.02.04.01.01.03.02.04.02.06,0,.17-.06.33-.19.16-.13.35-.31.58-.55.41-.41.69-.68.83-.8.15-.12.26-.18.32-.18,0,0,.02,0,.05,0,.01,0,.02,0,.03,0-.17.09-.46.35-.85.76-.13.14-.23.24-.3.31-.3.31-.54.52-.7.63s-.32.17-.47.17c-.13,0-.23-.04-.3-.11-.07-.08-.11-.18-.11-.32,0-.18.15-.52.44-1.02.05-.08.08-.15.11-.19Zm.62-1.18c0-.09.04-.17.11-.24.08-.07.16-.11.26-.11.08,0,.15.02.2.07.05.05.07.11.07.19,0,.1-.04.18-.11.25-.07.07-.15.1-.25.1-.09,0-.16-.02-.21-.07-.05-.05-.07-.11-.07-.2Z"/>
      <path class="cls-2" d="m23.8,11.71c-.05.14-.09.25-.11.32-.02.07-.03.12-.03.16,0,.05.02.08.05.1s.09.03.16.03c.17,0,.36-.05.55-.15.19-.1.47-.31.82-.62.12-.1.27-.24.46-.41.4-.37.65-.55.74-.55,0,0,.02,0,.03,0,.02,0,.03,0,.04,0-.15.08-.37.27-.67.56-.15.15-.27.27-.36.35-.43.39-.76.65-.98.77-.22.12-.44.18-.66.18-.23,0-.41-.06-.55-.19-.14-.13-.21-.3-.21-.51,0-.17.05-.35.16-.51.1-.17.26-.33.47-.49.18-.14.36-.24.54-.32.18-.08.35-.11.5-.11.13,0,.24.04.32.11.08.08.12.18.12.31,0,.21-.13.41-.39.59-.26.18-.59.31-1,.37Zm.04-.11c.28-.04.53-.16.74-.36s.33-.4.33-.58c0-.05-.02-.1-.04-.14-.03-.04-.06-.06-.1-.06-.11,0-.26.11-.45.33-.19.22-.34.49-.47.81Z"/>
      <path class="cls-2" d="m26.4,10.67c-.14.1-.28.22-.43.38-.15.16-.24.24-.27.24-.02,0-.03,0-.04-.02-.01,0-.02-.02-.02-.04,0-.03.05-.09.15-.18.05-.04.08-.08.11-.1l.2-.19s.06-.05.1-.09c.16-.15.26-.25.29-.31.02-.02.04-.06.06-.1.05-.09.1-.14.14-.14.02,0,.04,0,.05.02.02.02.02.03.02.05s-.03.06-.09.12c-.06.07-.09.12-.09.17,0,.04.06.15.19.34s.19.39.19.6c0,.1-.02.2-.05.28-.04.08-.1.18-.18.27.28-.22.61-.51.98-.87.38-.36.61-.54.71-.54.05,0,.09,0,.11-.03,0,0,0,0-.02,0s-.01.02-.02.03c-.17.1-.42.31-.73.63-.11.12-.2.21-.26.27-.41.4-.72.67-.93.79-.21.12-.42.18-.64.18-.17,0-.31-.04-.43-.13-.12-.09-.17-.2-.17-.32,0-.08.03-.15.08-.21.06-.06.13-.09.21-.09.07,0,.13.02.17.07.04.05.06.11.06.18,0,.06-.02.11-.06.16-.04.05-.09.07-.14.07-.02,0-.04,0-.05,0s-.03,0-.04,0c.03.04.07.07.1.08.04.02.08.03.12.03.18,0,.32-.13.43-.39.11-.26.16-.61.16-1.05v-.17Z"/>
    </g>
  </g>
</svg>