<?xml version="1.0" encoding="UTF-8"?>
<svg xmlns="http://www.w3.org/2000/svg" xmlns:xlink="http://www.w3.org/1999/xlink" viewBox="0 0 32 32">
  <defs>
    <style>
      .cls-1 {
        fill: url(#linear-gradient);
      }

      .cls-1, .cls-2, .cls-3, .cls-4 {
        stroke-width: 0px;
      }

      .cls-2, .cls-5, .cls-6 {
        fill: #fff;
      }

      .cls-3 {
        fill: url(#linear-gradient-2);
      }

      .cls-5 {
        font-family: CommercialScriptBT-Regular, 'CommercialScript BT';
        font-size: 7px;
      }

      .cls-4 {
        fill: url(#linear-gradient-3);
      }

      .cls-6 {
        font-family: UTM-Scriptina-KT, 'UTM Scriptina KT';
        font-size: 4px;
        stroke: #fff;
        stroke-linecap: round;
        stroke-linejoin: round;
        stroke-width: .15px;
      }
    </style>
    <linearGradient id="linear-gradient" x1="2" y1="16" x2="30" y2="16" gradientUnits="userSpaceOnUse">
      <stop offset="0" stop-color="#ae150b"/>
      <stop offset="1" stop-color="#f33e41"/>
    </linearGradient>
    <linearGradient id="linear-gradient-2" x1="3" x2="29" xlink:href="#linear-gradient"/>
    <linearGradient id="linear-gradient-3" x1="24.24" y1="6.84" x2="26.32" y2="6.84" gradientTransform="translate(4.69 -8.88) rotate(22.19)" gradientUnits="userSpaceOnUse">
      <stop offset="0" stop-color="#fff"/>
      <stop offset=".12" stop-color="#fdeeee"/>
      <stop offset=".37" stop-color="#fac2c3"/>
      <stop offset=".71" stop-color="#f47c7e"/>
      <stop offset="1" stop-color="#f03c3f"/>
    </linearGradient>
  </defs>
  <g id="Layer_2" data-name="Layer 2">
    <rect class="cls-2" width="32" height="32" rx="7" ry="7"/>
  </g>
  <g id="Layer_3" data-name="Layer 3">
    <path class="cls-1" d="m27.54,4.67c-3.17-3.45-8.26-3.56-11.54-.31-1.59-1.58-3.59-2.36-5.61-2.36-2.15,0-4.29.89-5.93,2.67-3.18,3.44-3.28,8.94-.29,12.51.08.12.18.24.29.35l11.21,12.16c.11.11.21.23.33.31.12-.08.22-.2.32-.31l11.22-12.16c.1-.11.21-.23.29-.35,1.45-1.72,2.17-3.91,2.17-6.08,0-2.33-.82-4.66-2.46-6.43Zm-.14,12.47c-.07.12-.17.23-.27.34l-10.82,11.72c-.1.11-.2.22-.31.3-.11-.08-.21-.19-.31-.3l-10.82-11.72c-.1-.11-.2-.22-.28-.34-2.88-3.45-2.78-8.75.28-12.07,1.58-1.71,3.65-2.57,5.72-2.57,1.95,0,3.88.75,5.41,2.27,3.16-3.13,8.07-3.02,11.13.3,1.58,1.71,2.37,3.96,2.37,6.2,0,2.1-.69,4.21-2.1,5.87Z"/>
    <path class="cls-2" d="m27.13,5.07c-3.06-3.32-7.97-3.43-11.13-.3-1.53-1.52-3.46-2.27-5.41-2.27-2.07,0-4.14.86-5.72,2.57-3.06,3.32-3.16,8.62-.28,12.07.08.12.18.23.28.34l10.82,11.72c.1.11.2.22.31.3.11-.08.21-.19.31-.3l10.82-11.72c.1-.11.2-.22.27-.34,1.41-1.66,2.1-3.77,2.1-5.87,0-2.24-.79-4.49-2.37-6.2Zm-.15,12.02c-.07.12-.17.23-.26.33l-10.42,11.29c-.1.11-.19.21-.3.29-.11-.08-.21-.18-.3-.29l-10.42-11.29c-.09-.1-.19-.21-.26-.33-2.78-3.31-2.69-8.42.26-11.61,1.53-1.65,3.52-2.48,5.51-2.48,1.87,0,3.74.72,5.21,2.19,3.04-3.02,7.77-2.91,10.72.29,1.52,1.65,2.28,3.81,2.28,5.97,0,2.02-.66,4.05-2.02,5.64Z"/>
    <path class="cls-3" d="m29,11.45c0,2.02-.66,4.05-2.02,5.64-.07.12-.17.23-.26.33l-10.42,11.29c-.1.11-.19.21-.3.29-.11-.08-.21-.18-.3-.29l-10.42-11.29c-.09-.1-.19-.21-.26-.33-2.78-3.31-2.69-8.42.26-11.61,1.53-1.65,3.52-2.48,5.51-2.48,1.87,0,3.74.72,5.21,2.19,3.04-3.02,7.77-2.91,10.72.29,1.52,1.65,2.28,3.81,2.28,5.97Z"/>
  </g>
  <g id="Layer_5" data-name="Layer 5">
    <path class="cls-2" d="m23.22,4.54c-.14-.08-.3-.03-.36.12-.07-.04-.14-.04-.2-.02-.07.02-.12.08-.15.16-.05.15.01.34.15.43,0,0,0,0,.01,0l.49.29s0,0,.01,0c0,0,0,0,0-.01l.19-.54s0-.01,0-.02c.02-.08.02-.16,0-.23-.03-.08-.08-.15-.15-.19Zm.15.43s0,.01,0,.01l-.18.52s0,0,0,.01c0,0,0,0-.01,0l-.47-.28s0,0-.01,0c-.13-.09-.19-.27-.14-.41.03-.08.08-.13.14-.15.06-.02.13-.02.19.02.06-.14.21-.19.34-.11.07.04.12.11.15.19.03.07.03.15,0,.22Z"/>
    <path class="cls-4" d="m26.6,7.12c-.05.12-.15.23-.29.28,0,0-.02,0-.03.01l-1.05.37s-.02,0-.03,0c0,0-.01-.02-.02-.03l-.49-1s0-.02-.01-.03c-.12-.29.01-.6.31-.7.15-.05.32-.05.47.02.14.06.26.16.33.29.3-.09.65.06.79.34.07.15.07.3.02.43Z"/>
  </g>
  <g id="Layer_6" data-name="Layer 6">
    <text class="cls-6" transform="translate(9.96 19.07) scale(1.09 1)"><tspan x="0" y="0">NyC</tspan></text>
  </g>
  <g id="Layer_7" data-name="Layer 7">
    <text class="cls-5" transform="translate(3.41 12.48)"><tspan x="0" y="0">Memories</tspan></text>
  </g>
</svg>