<?xml version="1.0" encoding="UTF-8"?>
<svg id="Layer_1_copy" data-name="Layer 1 copy" xmlns="http://www.w3.org/2000/svg" xmlns:xlink="http://www.w3.org/1999/xlink" viewBox="0 0 32 32">
  <defs>
    <style>
      .cls-1 {
        fill: url(#linear-gradient-2);
      }

      .cls-2 {
        fill: #fff;
      }

      .cls-3 {
        fill: blue;
      }

      .cls-4 {
        fill: none;
        stroke: #fff;
        stroke-linecap: round;
        stroke-linejoin: round;
        stroke-width: .25px;
      }

      .cls-5 {
        fill: url(#linear-gradient);
      }
    </style>
    <linearGradient id="linear-gradient" x1="2.1" y1="16.42" x2="30.1" y2="16.42" gradientUnits="userSpaceOnUse">
      <stop offset="0" stop-color="#fd8f52"/>
      <stop offset="1" stop-color="#ffbd71"/>
    </linearGradient>
    <linearGradient id="linear-gradient-2" x1="3.1" x2="29.1" xlink:href="#linear-gradient"/>
  </defs>
  <rect id="nen" class="cls-2" x="0" width="32" height="32" rx="7" ry="7"/>
  <path id="vien" class="cls-5" d="M27.64,5.09c-3.17-3.45-8.26-3.56-11.54-.31-1.59-1.58-3.59-2.36-5.61-2.36-2.15,0-4.29.89-5.93,2.67-3.18,3.44-3.28,8.94-.29,12.51.08.12.18.24.29.35l11.21,12.16c.11.11.21.23.33.31.12-.08.22-.2.32-.31l11.22-12.16c.1-.11.21-.23.29-.35,1.45-1.72,2.17-3.91,2.17-6.08,0-2.33-.82-4.66-2.46-6.43ZM27.5,17.56c-.07.12-.17.23-.27.34l-10.82,11.72c-.1.11-.2.22-.31.3-.11-.08-.21-.19-.31-.3l-10.82-11.72c-.1-.11-.2-.22-.28-.34-2.88-3.45-2.78-8.75.28-12.07,1.58-1.71,3.65-2.57,5.72-2.57,1.95,0,3.88.75,5.41,2.27,3.16-3.13,8.07-3.02,11.13.3,1.58,1.71,2.37,3.96,2.37,6.2,0,2.1-.69,4.21-2.1,5.87Z"/>
  <path class="cls-1" d="M29.1,11.87c0,2.02-.66,4.05-2.02,5.64-.07.12-.17.23-.26.33l-1.24,1.35-5.21,5.64-.26.28-3.71,4.02c-.1.11-.19.21-.3.29-.11-.08-.21-.18-.3-.29l-.44-.48-3.25-3.52-4.74-5.14-1.99-2.15c-.09-.1-.19-.21-.26-.33-2.78-3.31-2.69-8.42.26-11.61,1.53-1.65,3.52-2.48,5.51-2.48,1.87,0,3.74.72,5.21,2.19,3.04-3.02,7.77-2.91,10.72.29,1.52,1.65,2.28,3.81,2.28,5.97Z"/>
  <g id="NyC">
    <path class="cls-3" d="M21.61,25.93c.08-.07.17-.1.27-.09.09,0,.18.05.26.14.04.04.07.08.1.12.06.11.13.28.2.5.07.22.15.51.23.85,0,.03.01.05.03.06,0,0,.01,0,.02,0,.01-.01.01-.04,0-.08-.01-.15-.02-.31-.02-.48,0-.17,0-.35,0-.55.02-.53.09-.88.22-1.06.02-.03.04-.05.07-.05.03,0,.06,0,.1,0,.05,0,.09,0,.11.03.03.02.05.04.07.06.01,0,.02.02.03.03,0,0,.01.02.02.03.05.17.09.33.13.49.04.16.09.33.14.49.02.08.06.19.1.33.04.13.1.28.15.44.06.16.12.32.18.48.07.16.13.31.19.44.06.13.12.25.18.33.05.09.1.14.14.15.01,0,.02.01.03.02,0,.01.01.02.02.03.05.05.08.06.11.03.07-.07.11-.28.12-.62,0-.04,0-.06,0-.06,0,0,.01,0,.01,0,0,0,.01.03.02.06.02.07.01.18,0,.33-.02.16-.06.26-.1.31-.02.02-.04.03-.06.03-.03,0-.05,0-.08,0-.03,0-.05-.01-.08-.03-.02-.01-.04-.03-.06-.04-.02-.03-.06-.09-.11-.18-.05-.09-.11-.2-.17-.33-.06-.13-.13-.27-.2-.42-.07-.15-.14-.3-.2-.45-.06-.15-.12-.28-.17-.41-.05-.13-.09-.23-.12-.31l-.34-1.06s-.04-.09-.06-.12c-.03-.03-.07-.03-.11.01-.02.03-.05.06-.07.12-.09.21-.15.52-.17.92,0,.17,0,.33,0,.5,0,.17.01.34.03.52.01.15.03.28.04.39.01.11.03.19.04.26,0,.04,0,.08-.02.1-.02.02-.04.02-.06,0,0,0,0,0-.01-.02,0,0,0-.02-.01-.03-.23-1.04-.42-1.71-.56-1.99-.02-.03-.04-.06-.06-.09-.02-.03-.04-.05-.06-.07-.13-.13-.27-.13-.4-.01-.12.11-.23.33-.33.66-.05.17-.08.33-.11.48-.02.15-.04.31-.04.46,0,.33.05.56.17.67.04.04.09.04.14,0,.03-.02.06-.05.09-.07s.05-.05.07-.08c.02-.02.03-.03.04-.02,0,0,0,.02-.01.05-.04.08-.09.13-.14.17-.09.07-.19.05-.29-.06-.1-.1-.15-.31-.15-.63,0-.16,0-.32.03-.47.02-.16.05-.31.1-.47.05-.17.11-.32.17-.44s.13-.22.21-.29Z"/>
    <path class="cls-3" d="M24.79,26.15c-.03-.07-.09-.17-.16-.29-.03-.05-.06-.09-.08-.13-.02-.03-.04-.06-.06-.08-.01.12-.03.25-.07.41-.04.21-.09.36-.14.46,0,.01-.01.02-.02.02-.01.01-.02.02-.04.02-.02,0-.03,0-.04-.02-.02-.03-.06-.2-.14-.49,0,0-.01-.02-.03-.03-.02-.01-.03-.03-.03-.04,0-.01,0-.05.03-.12.03-.07.04-.11.05-.12.02-.02.04-.02.06,0-.02.04-.01.13,0,.28.02.13.04.22.06.3,0,.01.01.02.02.03.01.01.03.02.04,0,.02-.01.03-.02.04-.04.02-.04.04-.1.06-.16.02-.07.04-.14.06-.24.01-.07.02-.13.03-.19s.01-.1.02-.13c0-.02,0-.03,0-.05,0-.02,0-.03.01-.04.02-.02.04-.04.06-.04.02,0,.04,0,.05.02,0,.01,0,.02,0,.03,0,.01,0,.03.01.04.06.11.15.27.25.49.16-.24.33-.45.51-.64.06-.07.12-.11.16-.14.02-.01.04-.02.06-.03.02,0,.05-.01.07-.01.02,0,.05,0,.07,0,.02,0,.04.02.06.03.02.02.03.03.03.05.01.05.01.13,0,.25,0,.02,0,.03-.01.04,0,0,0,0,0,0,0,0,0-.02,0-.04,0-.15-.01-.24-.07-.3-.04-.04-.1-.03-.17.03-.02.02-.04.04-.07.06-.02.02-.05.05-.08.08-.24.24-.41.46-.53.64.65,1.4.72,2.39.21,2.99-.17.2-.4.33-.67.38-.27.05-.48,0-.63-.13-.05-.05-.08-.1-.11-.16-.12-.31-.02-.84.31-1.57.11-.25.24-.5.37-.74.13-.24.28-.48.44-.72ZM23.77,29.17s.02.05.04.08c.02.02.03.05.05.07.13.12.31.16.55.12.25-.05.46-.17.63-.36.3-.33.38-.86.23-1.57-.05-.22-.11-.44-.18-.66-.08-.22-.17-.44-.28-.65-.38.57-.67,1.11-.86,1.63-.24.62-.3,1.07-.18,1.35Z"/>
    <path class="cls-3" d="M25.92,25c-.21.21-.43.35-.66.42-.25.08-.46.05-.6-.09-.17-.17-.26-.47-.25-.89,0-.37.08-.78.22-1.21.13-.41.28-.72.43-.92.04-.05.08-.1.13-.15.13-.13.24-.2.35-.21v-.07s0-.02.01-.03c.01,0,.02,0,.03,0,0,0,0,.03.01.08.05,0,.11.04.17.1.06.06.11.13.14.21.03.08.05.18.05.3.01.15,0,.3-.05.45,0,0-.02.02-.04.04-.03.02-.05.03-.06.03-.09-.09-.16-.25-.21-.49-.04-.18-.06-.35-.06-.49-.09-.03-.21.03-.35.17-.02.02-.04.04-.06.06-.02.02-.04.05-.06.08-.23.34-.4.8-.5,1.38-.1.61-.07,1.07.1,1.38.03.05.06.09.1.13.12.11.27.15.45.11.21-.05.42-.19.64-.42.12-.13.24-.28.34-.45.1-.16.2-.34.29-.53.08-.18.14-.35.18-.51.04-.16.07-.31.08-.46,0-.02,0-.04.01-.05,0,0,.01,0,.02,0,0,0,0,.02,0,.04,0,.3-.09.64-.25,1.02-.09.2-.18.38-.29.55s-.22.31-.35.44ZM25.83,22.93s.02.02.03.01c.01,0,.02,0,.02-.02.05-.21.04-.4-.03-.58-.01-.04-.03-.07-.05-.1-.02-.03-.04-.06-.07-.08-.04-.04-.09-.07-.13-.08,0,.07,0,.13.01.21,0,.07.03.15.05.24.05.16.1.3.17.4Z"/>
  </g>
  <g id="ban_tay" data-name="ban tay">
    <path class="cls-4" d="M18.03,9.48c-.07.22-.17.38-.32.53-.84-.56-1.05-.46-1.75-1.02t-.02-.02c.45-.3.93-.59,1.36-.78.09-.05.28-.13.45-.05.34.15.43.84.28,1.34Z"/>
    <path class="cls-4" d="M23.67,7.43c-.11.39-.37.6-.74.94-.34.32-.65.68-1.01.98-.77.67-1.67,1.6-2.28,2.26-.07-.05-.15-.11-.23-.17-.83-.65-.87-.87-1.59-1.36.66-.56,1.36-1.1,2-1.68,1.18-1.07,1.99-1.96,3-1.98.15,0,.58-.01.79.26.19.26.09.64.06.75Z"/>
    <path class="cls-4" d="M26.25,7.8c-.32.76-.76,1.1-2.19,2.45-.6.57-.91.86-1.15,1.12-.54.58-1,1.15-1.28,1.53-.12-.12-.25-.22-.38-.32-.59-.43-.84-.43-1.55-.92.29-.29.66-.65,1.11-1.07,2.02-1.91,2.34-2.02,2.83-2.73.28-.42.48-.62.87-1,.44-.43.63-.54.85-.58.31-.07.78-.03,1,.26.26.35.04.91-.11,1.26Z"/>
    <path class="cls-4" d="M27.25,9.69c-.44.95-1.06,1.55-1.55,2.02,0,0-1.37,1.35-2.73,2.89-.36-.61-.74-1.15-1.23-1.6.34-.35.94-.98,2-2.08.54-.56,1.21-1.02,1.7-1.63.25-.32.52-.71,1.01-.82.3-.07.74-.06.93.2.14.2.1.51-.13,1.02Z"/>
    <path class="cls-4" d="M26.16,13.31c-.68,1.35-1.94,2.66-2.11,2.84-.07.07-.13.14-.19.2-.28-.59-.54-1.13-.82-1.62.25-.24.53-.52.81-.82.9-.95,1.4-1.58,2.04-1.59.08,0,.3,0,.41.14.16.2-.02.61-.14.85Z"/>
    <path class="cls-4" d="M14.07,23.94s-.03.01-.05.02c-.55.24-.91.43-1.31.7-.24.16-.44.32-.6.47l-4.74-5.14c.07-.05.16-.11.24-.18.71-.56.8-.62.93-.78.49-.64.33-1.29.4-2.23,0-.11.02-.3.05-.56.26.28.61.63,1.03,1.02.8.74,1.07.89,1.74,1.6.11.12.51.49.92,1.07.42.6.54.98,1.03,1.51.02.19.07.72.24,1.85.03.19.05.34.08.49.01.06.02.11.04.16Z"/>
    <path class="cls-4" d="M14.9,10.32c-.04.06-.08.1-.11.14-.07.09-.14.2-.19.31-.17-.12-.35-.24-.52-.38.06-.05.13-.1.22-.18,0,0,.12-.1.32-.26.05.09.1.15.14.2.04.05.09.11.14.17Z"/>
    <path class="cls-4" d="M25.58,19.19l-5.21,5.64c-.13-.15-.3-.32-.54-.52-.08-.06-.15-.13-.23-.18-.03-.05-.06-.1-.09-.15-.41-.68-.73-1.19-.95-1.68-.15-.33-.26-.65-.34-1-.18-.82-.1-1.5-.06-1.8.1-.82.32-1.04.57-2.3.11-.55.15-.93.17-1.16,0-.06.01-.14.01-.22.02-.42.05-1.18-.34-1.86-.15-.26-.35-.61-.73-.69-.08-.02-.17-.03-.26-.03-.15-.15-.33-.33-.51-.52,0-.04.01-.08.01-.12.05-.45.16-.7.11-1.23-.03-.34-.09-.52-.16-.62-.05-.08-.1-.11-.12-.12-.2-.09-.44.06-.5.1-.24.15-.37.38-.46.64-.02.04-.03.08-.04.12-.02.07-.04.14-.06.21,0,.01-.01.03-.01.04t-.02,0s.01.01.02.02c-.24.99-.29,1.88-.28,2.15-.05-.22-.18-1.01.03-1.98h.01c.02-.11.05-.21.08-.31,0,0,0-.02.01-.03,0-.02,0-.03,0-.05.02-.07.05-.14.07-.21.2-.55.42-1.03.2-1.26-.12-.13-.32-.12-.38-.12-.31,0-.54.2-.69.36-.05-.06-.1-.12-.14-.17-.04-.05-.09-.11-.14-.2-.13-.2-.28-.51-.29-.89-.02-.47.18-1.02.46-1.08.31-.07.47.44,1.15.99t.02.02c.7.56.91.46,1.75,1.02.01,0,.03.01.04.02.02.02.05.03.07.05.72.49.76.71,1.59,1.36.08.06.16.12.23.17.02.02.04.03.06.05.71.49.96.49,1.55.92.13.1.26.2.38.32.04.02.07.06.11.1.49.45.87.99,1.23,1.6.02.05.05.09.07.13.28.49.54,1.03.82,1.62.01.01.01.03.02.04.48,1,.59,1.45,1.18,2.21.2.26.37.45.52.59Z"/>
    <path class="cls-4" d="M14.6,10.77c-.61,1.16-.56,3.31-.61,3.31-.04,0-.21-.65-.1-1.53.11-.79.38-1.25.15-1.46-.13-.13-.39-.12-.57-.04-.22.11-.38.35-.5,1-.19-.18-.38-.34-.56-.49-.84-.7-1.55-1.24-2.11-1.63,0,0-1.99-1.41-2.07-2.34-.01-.1-.03-.35.12-.51.15-.15.38-.15.49-.15.73,0,1.81.81,2,.95.49.4.99.81,1.51,1.21.58.45,1.16.89,1.73,1.3.17.14.35.26.52.38Z"/>
    <path class="cls-4" d="M13.7,21.35c-.02-.17-.02-.32-.07-.54-.16-.56-.57-.9-1.17-2.48-.29-.75-.43-1.39-.54-1.91,0-.02-.01-.04-.01-.06-.01-.07-.03-.14-.04-.21-.1-.49-.2-1.11-.25-1.85-.02-.16-.03-.44.08-.71h0c-.29-.22-.62-.47-1-.74-1.03-.76-2.37-1.76-4.03-2.99-.35-.28-.87-.23-1.14.1-.26.3-.25.77.03,1.08.33.28.83.71,1.45,1.21.76.62,1.26,1,1.68,1.34-.44-.32-.82-.56-1.05-.63-.1-.04-.37-.12-.55.01-.22.17-.16.57-.14.7.56.85,1.1,1.51,1.5,1.97.06.07.25.29.54.6.26.28.61.63,1.03,1.02.8.74,1.07.89,1.74,1.6.11.12.51.49.92,1.07.42.6.54.98,1.03,1.51-.01-.06-.01-.09-.01-.09ZM8.69,13.59c.76.63,1.53,1.27,2.29,1.9"/>
    <path class="cls-4" d="M12.8,14.32v.06c0,.54.02.87-.01.88-.03,0-.16-.43-.19-1.02h0s-.01-.05-.01-.08v-.07c-.02-.38.02-.67-.18-.84-.01-.02-.16-.14-.33-.11-.03.01-.15.04-.28.24-.02.04-.04.08-.06.12-.28-.21-.59-.45-.95-.72-1.23-.94-2.92-2.22-5.08-3.86-.22-.32-.24-.73-.04-1.03.24-.37.75-.52,1.19-.31,1.25.8,2.56,1.71,3.91,2.74.56.42,1.1.85,1.61,1.26.2.17.4.33.59.49-.04.21-.07.45-.1.74-.06.58-.07,1.1-.07,1.51Z"/>
    <path class="cls-4" d="M20.06,24.91c-.05-.14-.03-.09-.46-.78-.03-.05-.06-.1-.09-.15-.41-.68-.73-1.19-.95-1.68-.15-.33-.26-.65-.34-1-.18-.82-.1-1.5-.06-1.8.1-.82.32-1.04.57-2.3.11-.55.15-.93.17-1.16,0-.06.01-.14.01-.22.02-.42.05-1.18-.34-1.86-.15-.26-.35-.61-.73-.69-.08-.02-.17-.03-.26-.03-.02,0-.03,0-.05,0h-.01c-.16.02-.3.09-.37.2-.03.05-.03.1-.03.15-.04-.28-.06-.51-.05-.76,0-.04,0-.08,0-.12s.01-.08.01-.12c.05-.45.16-.7.11-1.23-.03-.34-.09-.52-.16-.62-.05-.08-.1-.11-.12-.12-.2-.09-.44.06-.5.1-.24.15-.37.38-.46.64-.02.04-.03.08-.04.12-.02.07-.04.14-.06.21,0,.01-.01.03-.01.04v.03c-.24.99-.29,1.88-.28,2.15-.05-.22-.18-1.01.03-1.98h.01c.02-.11.05-.21.08-.31,0,0,0-.02.01-.03,0-.02,0-.03,0-.05.02-.07.05-.14.07-.21.2-.55.42-1.03.2-1.26-.12-.13-.32-.12-.38-.12-.31,0-.54.2-.69.36-.04.06-.08.1-.11.14-.07.09-.14.2-.19.31-.61,1.16-.56,3.31-.61,3.31-.04,0-.21-.65-.1-1.53.11-.79.38-1.25.15-1.46-.13-.13-.39-.12-.57-.04-.22.11-.38.35-.5,1v.02c-.04.21-.07.45-.1.74-.06.58-.07,1.1-.07,1.51v.06c0,.54.02.87-.01.88-.03,0-.16-.43-.19-1.02h0s-.01-.05-.01-.08v-.07c-.02-.38.02-.67-.18-.84-.01-.02-.16-.14-.33-.11-.03.01-.15.04-.28.24-.02.04-.04.08-.06.12-.02.03-.03.05-.04.08h0c-.11.28-.1.56-.08.72.05.74.15,1.36.25,1.85.01.07.03.14.04.21,0,.02.01.04.01.06.11.52.25,1.16.54,1.91.6,1.58,1.01,1.92,1.17,2.48.05.22.05.37.07.54,0,0,0,.03.01.09.02.19.07.72.24,1.85.03.19.05.34.08.49.01.06.02.11.04.16.23,1.01.47,1.78.56,2.01.4,1.15.58,2.04.73,2.7l.44.48c.09.11.19.21.3.29.11-.08.2-.18.3-.29l3.71-4.02c-.01-.07-.03-.13-.05-.2ZM17.64,15.58s-.28-.71-.42-1.42c-.04-.21-.07-.38-.09-.54.03.17.2.4.34.84.19.58.21,1.11.17,1.12Z"/>
  </g>
  <g id="HaChiun_outline" data-name="HaChiun outline">
    <g>
      <path class="cls-2" d="M13.94,6.91c.02-.49.41-.87.89-1.03.2-.07.39-.06.47,0,.04-.04.14-.07.18-.02.03.04-.03.08-.06.04-.03-.03-.06,0-.08.01.07.1.03.28-.05.41-.07.12-.15.19-.21.17-.02,0-.06-.04-.06-.11,0-.17.11-.35.25-.47-.08-.06-.21-.04-.3,0-.39.13-.81.55-.84.97-.02.19.05.4.23.46.22.08.58.02.9-.23.11-.08.13-.19.13-.27,0-.07.1-.07.09,0,0,.1-.08.21-.2.3-.21.17-.45.26-.69.29-.38.05-.65-.11-.64-.53ZM15.07,6.39s0,.05.01.05c.04,0,.1-.05.16-.14.07-.12.1-.27.05-.35-.12.11-.21.32-.22.44Z"/>
      <path class="cls-2" d="M16.27,6.93c-.03.07-.19.29-.31.3-.01,0-.03,0-.04,0-.08-.03-.11-.13-.06-.31-.03.04-.04.05-.09.1-.12.15-.17.2-.2.21-.03,0-.04-.02-.04-.04.05-.4.25-1.15.49-1.29.05-.03.1,0,.12.07.04.2-.23.67-.48.98-.02.07-.04.16-.05.22,0,.02.09-.1.14-.15.07-.09.11-.14.13-.17.02-.02.06,0,.07.02-.07.22-.06.33-.03.35.07.05.28-.19.31-.28,0,0,.01-.01.02,0,0,0,.01.01,0,.02ZM15.66,6.87c.26-.33.48-.75.44-.91,0-.02-.01-.04-.03-.05-.1-.05-.33.6-.41.96Z"/>
      <path class="cls-2" d="M16.27,7.14c-.07-.04-.08-.16.03-.38,0,0,.02,0,.03,0,.02,0,.06,0,.06.01-.12.24-.12.32-.1.35.04.05.23-.12.3-.22,0,0,.02,0,.02,0,0,0,0,.01,0,.02-.04.06-.21.23-.3.24-.01,0-.03,0-.04,0ZM16.41,6.59s.05.05.03.07c-.02.03-.07.04-.09.01-.03-.03,0-.1.05-.09Z"/>
      <path class="cls-2" d="M17.28,6.82s.01.01,0,.02c-.11.18-.2.28-.27.29-.13,0-.1-.21-.05-.36-.12.18-.24.33-.32.35-.04,0-.07-.02-.08-.06-.02-.11.07-.3.15-.4,0,0,.03-.01.03,0,0,0,.05.01.05.02-.06.09-.25.43-.16.43.09,0,.26-.29.34-.41,0,0,.02,0,.03,0,.02,0,.04,0,.04.01-.09.27-.09.4-.05.41.06.02.15-.09.26-.27,0,0,.01-.01.02,0Z"/>
      <path class="cls-2" d="M17.9,6.76s.01.01,0,.02c-.09.15-.19.3-.28.31-.03,0-.08,0-.1-.05-.04-.09,0-.29.02-.34,0-.02-.24.2-.28.29,0,.01-.05,0-.05-.02.02-.08.06-.22.11-.31,0-.01.05-.01.07,0,.01,0,0,.02,0,.02-.05.08-.06.13-.09.2.04-.04.06-.06.11-.11.08-.08.14-.13.17-.13.02,0,.06.01.05.03-.07.23-.07.36-.02.38.09.03.22-.2.27-.29,0,0,.01-.01.02,0Z"/>
    </g>
  </g>
</svg>