<?xml version="1.0" encoding="UTF-8"?>
<svg id="favicon" xmlns="http://www.w3.org/2000/svg" xmlns:xlink="http://www.w3.org/1999/xlink" viewBox="0 0 32 32">
  <defs>
    <linearGradient id="linear-gradient" x1="2.1" y1="16.42" x2="30.1" y2="16.42" gradientUnits="userSpaceOnUse">
      <stop offset="0" stop-color="#fd8f52"/>
      <stop offset="1" stop-color="#ffbd71"/>
    </linearGradient>
    <linearGradient id="linear-gradient-2" x1="3.1" x2="29.1" xlink:href="#linear-gradient"/>
  </defs>
  <rect id="nen" x="0" width="32" height="32" rx="7" ry="7" style="fill: #fff;"/>
  <path id="vien" d="M27.64,5.09c-3.17-3.45-8.26-3.56-11.54-.31-1.59-1.58-3.59-2.36-5.61-2.36-2.15,0-4.29.89-5.93,2.67-3.18,3.44-3.28,8.94-.29,12.51.08.12.18.24.29.35l11.21,12.16c.11.11.21.23.33.31.12-.08.22-.2.32-.31l11.22-12.16c.1-.11.21-.23.29-.35,1.45-1.72,2.17-3.91,2.17-6.08,0-2.33-.82-4.66-2.46-6.43ZM27.5,17.56c-.07.12-.17.23-.27.34l-10.82,11.72c-.1.11-.2.22-.31.3-.11-.08-.21-.19-.31-.3l-10.82-11.72c-.1-.11-.2-.22-.28-.34-2.88-3.45-2.78-8.75.28-12.07,1.58-1.71,3.65-2.57,5.72-2.57,1.95,0,3.88.75,5.41,2.27,3.16-3.13,8.07-3.02,11.13.3,1.58,1.71,2.37,3.96,2.37,6.2,0,2.1-.69,4.21-2.1,5.87Z" style="fill: url(#linear-gradient);"/>
  <path d="M29.1,11.87c0,2.02-.66,4.05-2.02,5.64-.07.12-.17.23-.26.33l-1.24,1.35-5.21,5.64-.26.28-3.71,4.02c-.1.11-.19.21-.3.29-.11-.08-.21-.18-.3-.29l-.44-.48-3.25-3.52-4.74-5.14-1.99-2.15c-.09-.1-.19-.21-.26-.33-2.78-3.31-2.69-8.42.26-11.61,1.53-1.65,3.52-2.48,5.51-2.48,1.87,0,3.74.72,5.21,2.19,3.04-3.02,7.77-2.91,10.72.29,1.52,1.65,2.28,3.81,2.28,5.97Z" style="fill: url(#linear-gradient-2);"/>
  <g id="NyC">
    <path d="M21.61,25.93c.08-.07.17-.1.27-.09.09,0,.18.05.26.14.04.04.07.08.1.12.06.11.13.28.2.5.07.22.15.51.23.85,0,.03.01.05.03.06,0,0,.01,0,.02,0,.01-.01.01-.04,0-.08-.01-.15-.02-.31-.02-.48,0-.17,0-.35,0-.55.02-.53.09-.88.22-1.06.02-.03.04-.05.07-.05.03,0,.06,0,.1,0,.05,0,.09,0,.11.03.03.02.05.04.07.06.01,0,.02.02.03.03,0,0,.01.02.02.03.05.17.09.33.13.49.04.16.09.33.14.49.02.08.06.19.1.33.04.13.1.28.15.44.06.16.12.32.18.48.07.16.13.31.19.44.06.13.12.25.18.33.05.09.1.14.14.15.01,0,.02.01.03.02,0,.01.01.02.02.03.05.05.08.06.11.03.07-.07.11-.28.12-.62,0-.04,0-.06,0-.06,0,0,.01,0,.01,0,0,0,.01.03.02.06.02.07.01.18,0,.33-.02.16-.06.26-.1.31-.02.02-.04.03-.06.03-.03,0-.05,0-.08,0-.03,0-.05-.01-.08-.03-.02-.01-.04-.03-.06-.04-.02-.03-.06-.09-.11-.18-.05-.09-.11-.2-.17-.33-.06-.13-.13-.27-.2-.42-.07-.15-.14-.3-.2-.45-.06-.15-.12-.28-.17-.41-.05-.13-.09-.23-.12-.31l-.34-1.06s-.04-.09-.06-.12c-.03-.03-.07-.03-.11.01-.02.03-.05.06-.07.12-.09.21-.15.52-.17.92,0,.17,0,.33,0,.5,0,.17.01.34.03.52.01.15.03.28.04.39.01.11.03.19.04.26,0,.04,0,.08-.02.1-.02.02-.04.02-.06,0,0,0,0,0-.01-.02,0,0,0-.02-.01-.03-.23-1.04-.42-1.71-.56-1.99-.02-.03-.04-.06-.06-.09-.02-.03-.04-.05-.06-.07-.13-.13-.27-.13-.4-.01-.12.11-.23.33-.33.66-.05.17-.08.33-.11.48-.02.15-.04.31-.04.46,0,.33.05.56.17.67.04.04.09.04.14,0,.03-.02.06-.05.09-.07s.05-.05.07-.08c.02-.02.03-.03.04-.02,0,0,0,.02-.01.05-.04.08-.09.13-.14.17-.09.07-.19.05-.29-.06-.1-.1-.15-.31-.15-.63,0-.16,0-.32.03-.47.02-.16.05-.31.1-.47.05-.17.11-.32.17-.44s.13-.22.21-.29Z" style="fill: blue;"/>
    <path d="M24.79,26.15c-.03-.07-.09-.17-.16-.29-.03-.05-.06-.09-.08-.13-.02-.03-.04-.06-.06-.08-.01.12-.03.25-.07.41-.04.21-.09.36-.14.46,0,.01-.01.02-.02.02-.01.01-.02.02-.04.02-.02,0-.03,0-.04-.02-.02-.03-.06-.2-.14-.49,0,0-.01-.02-.03-.03-.02-.01-.03-.03-.03-.04,0-.01,0-.05.03-.12.03-.07.04-.11.05-.12.02-.02.04-.02.06,0-.02.04-.01.13,0,.28.02.13.04.22.06.3,0,.01.01.02.02.03.01.01.03.02.04,0,.02-.01.03-.02.04-.04.02-.04.04-.1.06-.16.02-.07.04-.14.06-.24.01-.07.02-.13.03-.19s.01-.1.02-.13c0-.02,0-.03,0-.05,0-.02,0-.03.01-.04.02-.02.04-.04.06-.04.02,0,.04,0,.05.02,0,.01,0,.02,0,.03,0,.01,0,.03.01.04.06.11.15.27.25.49.16-.24.33-.45.51-.64.06-.07.12-.11.16-.14.02-.01.04-.02.06-.03.02,0,.05-.01.07-.01.02,0,.05,0,.07,0,.02,0,.04.02.06.03.02.02.03.03.03.05.01.05.01.13,0,.25,0,.02,0,.03-.01.04,0,0,0,0,0,0,0,0,0-.02,0-.04,0-.15-.01-.24-.07-.3-.04-.04-.1-.03-.17.03-.02.02-.04.04-.07.06-.02.02-.05.05-.08.08-.24.24-.41.46-.53.64.65,1.4.72,2.39.21,2.99-.17.2-.4.33-.67.38-.27.05-.48,0-.63-.13-.05-.05-.08-.1-.11-.16-.12-.31-.02-.84.31-1.57.11-.25.24-.5.37-.74.13-.24.28-.48.44-.72ZM23.77,29.17s.02.05.04.08c.02.02.03.05.05.07.13.12.31.16.55.12.25-.05.46-.17.63-.36.3-.33.38-.86.23-1.57-.05-.22-.11-.44-.18-.66-.08-.22-.17-.44-.28-.65-.38.57-.67,1.11-.86,1.63-.24.62-.3,1.07-.18,1.35Z" style="fill: blue;"/>
    <path d="M25.92,25c-.21.21-.43.35-.66.42-.25.08-.46.05-.6-.09-.17-.17-.26-.47-.25-.89,0-.37.08-.78.22-1.21.13-.41.28-.72.43-.92.04-.05.08-.1.13-.15.13-.13.24-.2.35-.21v-.07s0-.02.01-.03c.01,0,.02,0,.03,0,0,0,0,.03.01.08.05,0,.11.04.17.1.06.06.11.13.14.21.03.08.05.18.05.3.01.15,0,.3-.05.45,0,0-.02.02-.04.04-.03.02-.05.03-.06.03-.09-.09-.16-.25-.21-.49-.04-.18-.06-.35-.06-.49-.09-.03-.21.03-.35.17-.02.02-.04.04-.06.06-.02.02-.04.05-.06.08-.23.34-.4.8-.5,1.38-.1.61-.07,1.07.1,1.38.03.05.06.09.1.13.12.11.27.15.45.11.21-.05.42-.19.64-.42.12-.13.24-.28.34-.45.1-.16.2-.34.29-.53.08-.18.14-.35.18-.51.04-.16.07-.31.08-.46,0-.02,0-.04.01-.05,0,0,.01,0,.02,0,0,0,0,.02,0,.04,0,.3-.09.64-.25,1.02-.09.2-.18.38-.29.55s-.22.31-.35.44ZM25.83,22.93s.02.02.03.01c.01,0,.02,0,.02-.02.05-.21.04-.4-.03-.58-.01-.04-.03-.07-.05-.1-.02-.03-.04-.06-.07-.08-.04-.04-.09-.07-.13-.08,0,.07,0,.13.01.21,0,.07.03.15.05.24.05.16.1.3.17.4Z" style="fill: blue;"/>
  </g>
  <g id="HaChiun_outline" data-name="HaChiun outline">
    <g>
      <path d="M12.92,7.62c.03-.74.63-1.31,1.35-1.55.31-.1.59-.1.71,0,.07-.06.2-.11.27-.02.04.06-.04.12-.1.06-.04-.04-.1,0-.11.02.1.15.04.42-.07.62-.1.18-.22.29-.32.26-.03,0-.09-.05-.09-.17,0-.26.17-.53.37-.72-.12-.09-.31-.05-.46,0-.59.19-1.22.84-1.27,1.47-.03.29.08.61.34.7.33.12.88.03,1.35-.35.16-.13.2-.29.2-.4,0-.1.15-.1.13,0-.01.14-.12.31-.3.46-.32.26-.67.39-1.04.43-.57.07-.99-.16-.96-.81ZM14.64,6.84c0,.05,0,.08.02.08.06.01.16-.07.23-.21.1-.18.15-.41.08-.53-.18.16-.32.49-.33.66Z" style="fill: #fff;"/>
      <path d="M16.44,7.66c-.04.11-.29.43-.47.45-.02,0-.04,0-.06,0-.12-.04-.17-.2-.09-.47-.05.05-.07.08-.13.16-.18.22-.25.31-.3.31-.04,0-.06-.04-.05-.07.08-.6.38-1.74.73-1.95.07-.04.16,0,.18.1.06.3-.35,1.02-.73,1.48-.03.11-.06.25-.07.33,0,.03.14-.15.21-.23.11-.14.17-.21.2-.25.03-.03.09,0,.11.02-.1.33-.09.49-.04.53.11.08.42-.29.47-.42,0-.01.02-.02.03-.01.01,0,.02.02.01.03ZM15.53,7.57c.39-.5.72-1.13.67-1.38,0-.03-.02-.06-.05-.07-.14-.08-.5.91-.62,1.45Z" style="fill: #fff;"/>
      <path d="M16.45,7.96c-.11-.06-.11-.25.05-.57,0-.01.03-.02.05-.02.03,0,.09,0,.09.02-.18.36-.18.49-.15.52.06.07.35-.19.45-.33,0,0,.02-.01.03,0,.01,0,.01.02,0,.03-.07.09-.31.34-.46.36-.02,0-.04,0-.06-.01ZM16.66,7.13c.06,0,.07.08.05.11-.03.04-.1.06-.13.02-.04-.05-.01-.15.08-.13Z" style="fill: #fff;"/>
      <path d="M17.97,7.49s.02.02,0,.03c-.16.28-.31.43-.41.43-.2.01-.15-.32-.08-.55-.19.27-.36.5-.48.52-.06,0-.1-.03-.11-.09-.03-.16.11-.46.22-.61,0-.01.04-.02.05-.01.01,0,.08.02.07.03-.09.13-.38.65-.25.64.14,0,.4-.44.52-.61,0-.01.03-.01.05-.01.02,0,.07,0,.06.02-.13.41-.13.61-.07.62.08.02.22-.13.39-.41,0-.01.02-.02.03,0Z" style="fill: #fff;"/>
      <path d="M18.91,7.4s.02.02,0,.03c-.13.23-.28.46-.43.47-.05,0-.12,0-.15-.07-.07-.13,0-.44.02-.51.01-.04-.37.3-.43.44-.01.02-.08,0-.07-.02.03-.12.09-.33.17-.47,0-.02.08-.02.11-.01.02,0,0,.03,0,.03-.07.12-.1.19-.14.31.06-.07.09-.1.16-.17.12-.12.22-.2.26-.2.03,0,.09.02.08.04-.1.35-.11.55-.04.58.13.05.34-.31.41-.44,0-.01.02-.02.03,0Z" style="fill: #fff;"/>
    </g>
  </g>
  <text transform="translate(11.66 22.1)" style="fill: #fff; font-family: Lexend-Bold, Lexend; font-size: 16px; font-variation-settings: &apos;wght&apos; 700; font-weight: 700;"><tspan x="0" y="0">1</tspan></text>
</svg>