<?xml version="1.0" encoding="UTF-8"?>
<svg xmlns="http://www.w3.org/2000/svg" xmlns:xlink="http://www.w3.org/1999/xlink" viewBox="0 0 32 32">
  <defs>
    <style>
      .cls-1 {
        stroke: #fff;
        stroke-linecap: round;
        stroke-linejoin: round;
        stroke-width: .16px;
      }

      .cls-1, .cls-2 {
        fill: #fff;
      }

      .cls-3 {
        fill: url(#linear-gradient);
      }

      .cls-3, .cls-2, .cls-4, .cls-5, .cls-6 {
        stroke-width: 0px;
      }

      .cls-4 {
        fill: url(#linear-gradient-2);
      }

      .cls-5 {
        fill: url(#linear-gradient-3);
      }

      .cls-6 {
        fill: blue;
      }
    </style>
    <linearGradient id="linear-gradient" x1="2" y1="16" x2="30" y2="16" gradientUnits="userSpaceOnUse">
      <stop offset="0" stop-color="#ae150b"/>
      <stop offset="1" stop-color="#f33e41"/>
    </linearGradient>
    <linearGradient id="linear-gradient-2" x1="3" x2="29" xlink:href="#linear-gradient"/>
    <linearGradient id="linear-gradient-3" x1="26.04" y1="8.59" x2="28.12" y2="8.59" gradientTransform="translate(4.69 -8.88) rotate(22.19)" gradientUnits="userSpaceOnUse">
      <stop offset="0" stop-color="#fff"/>
      <stop offset=".12" stop-color="#fdeeee"/>
      <stop offset=".37" stop-color="#fac2c3"/>
      <stop offset=".71" stop-color="#f47c7e"/>
      <stop offset="1" stop-color="#f03c3f"/>
    </linearGradient>
  </defs>
  <g id="nen">
    <rect class="cls-2" width="32" height="32" rx="7" ry="7"/>
  </g>
  <g id="trai_tim" data-name="trai tim">
    <path class="cls-3" d="m27.54,4.67c-3.17-3.45-8.26-3.56-11.54-.31-1.59-1.58-3.59-2.36-5.61-2.36-2.15,0-4.29.89-5.93,2.67-3.18,3.44-3.28,8.94-.29,12.51.08.12.18.24.29.35l11.21,12.16c.11.11.21.23.33.31.12-.08.22-.2.32-.31l11.22-12.16c.1-.11.21-.23.29-.35,1.45-1.72,2.17-3.91,2.17-6.08,0-2.33-.82-4.66-2.46-6.43Zm-.14,12.47c-.07.12-.17.23-.27.34l-10.82,11.72c-.1.11-.2.22-.31.3-.11-.08-.21-.19-.31-.3l-10.82-11.72c-.1-.11-.2-.22-.28-.34-2.88-3.45-2.78-8.75.28-12.07,1.58-1.71,3.65-2.57,5.72-2.57,1.95,0,3.88.75,5.41,2.27,3.16-3.13,8.07-3.02,11.13.3,1.58,1.71,2.37,3.96,2.37,6.2,0,2.1-.69,4.21-2.1,5.87Z"/>
    <path class="cls-2" d="m27.13,5.07c-3.06-3.32-7.97-3.43-11.13-.3-1.53-1.52-3.46-2.27-5.41-2.27-2.07,0-4.14.86-5.72,2.57-3.06,3.32-3.16,8.62-.28,12.07.08.12.18.23.28.34l10.82,11.72c.1.11.2.22.31.3.11-.08.21-.19.31-.3l10.82-11.72c.1-.11.2-.22.27-.34,1.41-1.66,2.1-3.77,2.1-5.87,0-2.24-.79-4.49-2.37-6.2Zm-.15,12.02c-.07.12-.17.23-.26.33l-10.42,11.29c-.1.11-.19.21-.3.29-.11-.08-.21-.18-.3-.29l-10.42-11.29c-.09-.1-.19-.21-.26-.33-2.78-3.31-2.69-8.42.26-11.61,1.53-1.65,3.52-2.48,5.51-2.48,1.87,0,3.74.72,5.21,2.19,3.04-3.02,7.77-2.91,10.72.29,1.52,1.65,2.28,3.81,2.28,5.97,0,2.02-.66,4.05-2.02,5.64Z"/>
    <path class="cls-4" d="m29,11.45c0,2.02-.66,4.05-2.02,5.64-.07.12-.17.23-.26.33l-10.42,11.29c-.1.11-.19.21-.3.29-.11-.08-.21-.18-.3-.29l-10.42-11.29c-.09-.1-.19-.21-.26-.33-2.78-3.31-2.69-8.42.26-11.61,1.53-1.65,3.52-2.48,5.51-2.48,1.87,0,3.74.72,5.21,2.19,3.04-3.02,7.77-2.91,10.72.29,1.52,1.65,2.28,3.81,2.28,5.97Z"/>
  </g>
  <g id="trai_tim_nho" data-name="trai tim nho">
    <path class="cls-2" d="m25.96,5.9c-.14-.08-.3-.03-.36.12-.07-.04-.14-.04-.2-.02-.07.02-.12.08-.15.16-.05.15.01.34.15.43,0,0,0,0,.01,0l.49.29s0,0,.01,0c0,0,0,0,0-.01l.19-.54s0-.01,0-.02c.02-.08.02-.16,0-.23-.03-.08-.08-.15-.15-.19Zm.15.43s0,.01,0,.01l-.18.52s0,0,0,.01c0,0,0,0-.01,0l-.47-.28s0,0-.01,0c-.13-.09-.19-.27-.14-.41.03-.08.08-.13.14-.15.06-.02.13-.02.19.02.06-.14.21-.19.34-.11.07.04.12.11.15.19.03.07.03.15,0,.22Z"/>
    <path class="cls-5" d="m27.6,9.42c-.05.12-.15.23-.29.28,0,0-.02,0-.03.01l-1.05.37s-.02,0-.03,0c0,0-.01-.02-.02-.03l-.49-1s0-.02-.01-.03c-.12-.29.01-.6.31-.7.15-.05.32-.05.47.02.14.06.26.16.33.29.3-.09.65.06.79.34.07.15.07.3.02.43Z"/>
  </g>
  <g id="for_export_create_outline_" data-name="for export (create outline)">
    <g>
      <path class="cls-1" d="m18.28,8.12c0,.07-.04.1-.13.1h-.06c-.09-.01-.19-.02-.32-.02-.63,0-1.4.28-2.29.85-.51.32-.93.66-1.28,1-.35.35-.95,1.04-1.79,2.06-1.02,1.24-1.81,2.06-2.38,2.48-.19.14-.3.21-.33.21-.01,0-.02,0-.03-.02,0,0,.04-.04.12-.12.35-.36.71-1.05,1.08-2.07.33-.92.6-1.59.79-2.01.19-.42.4-.77.62-1.05.05-.07.08-.1.08-.11-.02,0-.04,0-.06.03l-.04.04-.1.13c-.18.22-.6.77-1.26,1.64-1.04,1.41-1.96,2.43-2.74,3.05-.42.33-.67.5-.74.5-.01,0-.02-.01-.03-.02,0,0,.02-.03.05-.06.54-.49,1.06-1.23,1.55-2.22.49-.99.74-1.77.74-2.36,0-.4-.1-.72-.29-.96s-.46-.35-.8-.35c-.71,0-1.42.4-2.12,1.19s-1.05,1.6-1.05,2.4c0,.34.09.61.27.81s.42.31.72.31c.62,0,1.21-.42,1.77-1.27.36-.55.54-1.04.54-1.48,0-.2-.05-.37-.15-.49s-.23-.19-.4-.19c-.1,0-.2.02-.29.07s-.14.1-.14.15c0,.02,0,.02.02.02,0,0,.02,0,.04,0,.07-.01.11-.02.14-.02.12,0,.19.07.19.21,0,.09-.03.16-.1.22s-.14.09-.23.09c-.17,0-.26-.09-.26-.28,0-.15.06-.27.19-.38s.27-.16.44-.16c.19,0,.34.07.46.21s.17.32.17.55c0,.52-.24,1.1-.71,1.75-.53.71-1.09,1.07-1.68,1.07-.35,0-.63-.13-.86-.4s-.34-.6-.34-1.01c0-.38.1-.77.3-1.19.2-.41.48-.79.83-1.12.79-.77,1.55-1.15,2.27-1.15.43,0,.78.17,1.07.5s.44.75.44,1.24c0,.53-.22,1.16-.65,1.91s-.96,1.39-1.58,1.93c-.06.06-.09.09-.09.09,0,.01,0,.02.02.02.09,0,.36-.24.82-.72.65-.68,1.54-1.75,2.65-3.22.32-.42.63-.8.94-1.13.31-.33.5-.5.57-.5.02,0,.02,0,.02.03,0,0,0,.02-.02.04-.17.23-.31.47-.42.71-.12.27-.3.78-.55,1.54-.27.82-.51,1.44-.73,1.87-.23.44-.52.84-.87,1.2,0,.01-.01.02-.02.03,0,0,0,.01.02.02.05,0,.24-.18.59-.54.24-.25.92-1.05,2.03-2.39.57-.7,1.09-1.24,1.54-1.65.45-.4.96-.76,1.53-1.08.77-.43,1.45-.65,2.02-.65.19,0,.29.04.29.12Z"/>
      <path class="cls-1" d="m14.64,13.08s-.02.04-.07.11l-.18.22c-.57.7-1.06,1.05-1.47,1.05-.19,0-.35-.07-.49-.21-.13-.14-.2-.31-.2-.52,0-.49.34-.93,1.04-1.31.36-.2.66-.3.89-.3.1,0,.18.03.25.09s.11.13.11.22c0,.2-.13.37-.39.51s-.69.27-1.29.39c-.19.28-.28.52-.28.71,0,.24.13.35.38.35.43,0,.97-.42,1.6-1.27.03-.04.06-.07.08-.07.01,0,.02.01.02.02Zm-.35-.76c0-.09-.05-.13-.14-.13-.15,0-.34.1-.58.3s-.47.46-.7.79c.4-.1.73-.25,1.01-.43s.41-.36.41-.53Z"/>
      <path class="cls-1" d="m18.38,10.19c-1.03,1.64-1.68,2.69-1.95,3.14-.27.46-.41.76-.41.88s.06.19.17.19c.25,0,.68-.44,1.28-1.31.02-.03.03-.04.05-.04.02,0,.02,0,.02.02,0,0-.02.03-.04.07l-.18.24c-.52.72-.9,1.08-1.15,1.08-.13,0-.23-.05-.31-.14s-.12-.22-.12-.36.05-.32.15-.52c-.48.68-.84,1.02-1.07,1.02-.15,0-.27-.06-.37-.19s-.15-.28-.15-.47c0-.45.28-.86.85-1.23.45-.29.8-.44,1.06-.44.17,0,.26.08.26.25,0,.08-.02.16-.07.26l1.47-2.47c.09.03.18.04.27.04.02,0,.11,0,.26-.02Zm-1.99,2.21c0-.15-.07-.22-.2-.22-.25,0-.57.25-.98.74s-.61.89-.61,1.19c0,.18.08.28.23.28.22,0,.6-.38,1.13-1.15.29-.41.43-.69.43-.85Z"/>
      <path class="cls-1" d="m21.29,10.19c-1.03,1.64-1.68,2.69-1.95,3.14-.27.46-.41.76-.41.88s.06.19.17.19c.25,0,.68-.44,1.28-1.31.02-.03.03-.04.05-.04.02,0,.02,0,.02.02,0,0-.02.03-.04.07l-.18.24c-.52.72-.9,1.08-1.15,1.08-.13,0-.23-.05-.31-.14s-.12-.22-.12-.36.05-.32.15-.52c-.48.68-.84,1.02-1.07,1.02-.15,0-.27-.06-.37-.19s-.15-.28-.15-.47c0-.45.28-.86.85-1.23.45-.29.8-.44,1.06-.44.17,0,.26.08.26.25,0,.08-.02.16-.07.26l1.47-2.47c.09.03.18.04.27.04.02,0,.11,0,.26-.02Zm-1.99,2.21c0-.15-.07-.22-.2-.22-.25,0-.57.25-.98.74-.41.49-.61.89-.61,1.19,0,.18.08.28.23.28.22,0,.6-.38,1.13-1.15.29-.41.43-.69.43-.85Z"/>
      <path class="cls-1" d="m21.87,13.07s-.02.03-.04.07l-.18.24c-.52.72-.91,1.08-1.19,1.08-.13,0-.24-.05-.32-.14s-.13-.21-.13-.34c0-.16.09-.4.28-.73l.64-1.09c.09.02.15.03.2.03.07,0,.18,0,.31-.03l-.94,1.54c-.14.22-.2.39-.2.52s.06.19.19.19c.25,0,.68-.44,1.29-1.31.01-.03.03-.04.04-.04.02,0,.02,0,.02.02Zm-.06-1.71c0,.1-.04.19-.12.27s-.17.13-.27.13c-.12,0-.19-.06-.19-.19,0-.09.04-.18.13-.26s.17-.13.27-.13c.12,0,.18.06.18.18Z"/>
      <path class="cls-1" d="m25.18,13.07c0,.06-.2.32-.6.8-.33.39-.58.59-.77.59-.12,0-.23-.05-.31-.14-.08-.1-.13-.21-.13-.35,0-.12.03-.24.08-.34s.18-.32.4-.63c.22-.33.33-.54.33-.63,0-.11-.06-.17-.18-.17-.4,0-1.02.74-1.86,2.24-.14-.01-.22-.02-.24-.02-.1,0-.19,0-.27.02l.64-1.02c.37-.58.55-.95.55-1.09,0-.08-.03-.12-.1-.12-.14,0-.42.3-.83.89-.02.04-.04.06-.06.06-.01,0-.02,0-.02-.02,0-.01,0-.02.02-.03l.08-.1c.42-.56.71-.85.85-.85.09,0,.17.04.24.13s.1.19.1.31c0,.18-.1.42-.31.73.32-.45.57-.75.75-.92s.34-.25.48-.25c.12,0,.22.05.31.15s.12.22.12.37c0,.18-.13.47-.38.85-.26.39-.39.64-.39.74,0,.11.06.17.17.17.25,0,.67-.44,1.27-1.31.01-.03.03-.04.04-.04.02,0,.02,0,.02.02Z"/>
      <path class="cls-1" d="m28,13.08s-.15.23-.45.56c-.33.37-.76.7-1.29.98l-.21.38c-.37.69-.79,1.22-1.26,1.6-.45.36-.83.54-1.15.54-.12,0-.22-.04-.29-.11s-.12-.16-.12-.26c0-.56.64-1.14,1.91-1.72.28-.13.45-.21.53-.26l.7-1.29c-.31.4-.52.66-.65.78s-.25.18-.39.18c-.14,0-.26-.06-.36-.19s-.15-.28-.15-.46c0-.48.31-.91.93-1.29.42-.26.74-.39.98-.39.16,0,.25.09.25.27,0,.05-.01.11-.04.18l.23-.42c.07.02.14.03.19.03.07,0,.18,0,.31-.03-.02.02-.14.23-.36.62l-1.02,1.77c.36-.2.65-.4.86-.59.22-.19.46-.46.73-.82.04-.06.07-.08.08-.08.01,0,.02.01.02.02Zm-2.37,1.79c-.05.03-.21.11-.47.24-1.25.62-1.88,1.18-1.88,1.67,0,.09.03.16.09.21s.14.09.24.09c.3,0,.6-.15.88-.46s.64-.86,1.08-1.66l.05-.08Zm1.31-2.47c0-.14-.07-.21-.2-.21-.25,0-.58.25-.98.74s-.61.89-.61,1.19c0,.18.08.28.24.28s.44-.24.82-.73c.49-.62.73-1.04.73-1.27Z"/>
      <path class="cls-1" d="m19.87,16.99c0,.14-.02.29-.05.44-.03.16-.06.23-.09.23-.02,0-.02,0-.02-.02,0-.02,0-.04,0-.05.06-.17.09-.36.09-.59,0-.35-.11-.62-.32-.83-.21-.21-.49-.31-.84-.31-.66,0-1.31.32-1.93.95.24.44.35.9.35,1.39,0,.9-.35,1.67-1.04,2.29s-1.54.94-2.53.94c-.31,0-.73-.04-1.27-.13-.46.09-.91.13-1.34.13-.73,0-1.09-.07-1.09-.22,0-.07.09-.14.27-.19s.38-.08.62-.08c.29,0,.86.09,1.71.28.57-.15,1.03-.39,1.36-.71.32-.32.81-1,1.48-2.07.4-.64.84-1.19,1.32-1.64-.4-.68-1.05-1.01-1.95-1.01s-1.78.37-2.56,1.1c-.39.37-.7.78-.94,1.22-.23.45-.35.86-.35,1.23,0,.3.09.54.28.71s.44.27.75.27c.53,0,1.07-.28,1.64-.85.56-.57.85-1.11.85-1.63,0-.2-.06-.36-.16-.48s-.25-.18-.43-.18c-.2,0-.31.03-.31.1,0,.02.01.03.05.03.02,0,.03,0,.04,0h.06c.13,0,.2.06.2.19,0,.09-.03.17-.1.24s-.15.1-.24.1c-.17,0-.25-.09-.25-.27,0-.12.06-.23.16-.32s.24-.13.4-.13c.2,0,.36.07.49.2s.19.31.19.52c0,.56-.29,1.12-.87,1.7s-1.15.87-1.7.87c-.38,0-.7-.13-.94-.38-.25-.25-.37-.58-.37-.98,0-.85.42-1.62,1.27-2.3s1.8-1.02,2.86-1.02c.9,0,1.59.33,2.05,1,.67-.62,1.35-.93,2.05-.93.35,0,.63.11.84.34.21.22.32.52.32.88Zm-7.78,4.28c-.76-.11-1.33-.16-1.7-.16-.33,0-.49.03-.49.09,0,.1.36.14,1.08.14.41,0,.78-.03,1.11-.08Zm4.76-3.39c0-.35-.07-.68-.22-.99-.37.42-.7.96-1,1.6-.39.85-.79,1.46-1.2,1.84-.43.38-1.06.69-1.88.92.35.07.72.11,1.11.11,1.05,0,1.91-.51,2.56-1.53.42-.66.64-1.31.64-1.94Z"/>
      <path class="cls-1" d="m20.1,19.94c0,.06-.2.32-.6.8-.32.39-.58.59-.77.59-.13,0-.23-.05-.31-.14s-.12-.21-.12-.36.04-.31.13-.48c-.28.38-.49.64-.63.78-.15.14-.29.2-.43.2-.15,0-.27-.06-.37-.19s-.15-.28-.15-.47c0-.53.37-.99,1.12-1.4.33-.18.59-.27.79-.27.17,0,.26.08.26.25,0,.05-.01.11-.03.19l.21-.4c.08.02.16.03.22.03.07,0,.17,0,.29-.03l-.73,1.21c-.25.42-.38.7-.38.84s.05.19.16.19.29-.13.53-.38c.24-.25.49-.56.74-.93.02-.03.03-.04.05-.04.02,0,.02,0,.02.02Zm-1.14-.68c0-.13-.06-.2-.19-.2-.25,0-.58.25-1,.74s-.62.89-.62,1.2c0,.18.08.27.24.27.19,0,.52-.31.99-.94.38-.52.57-.87.57-1.06Z"/>
      <path class="cls-1" d="m22.71,19.94s-.15.23-.45.56c-.34.37-.77.7-1.31,1l-.2.36c-.4.71-.82,1.25-1.25,1.6-.45.36-.84.54-1.17.54-.11,0-.21-.04-.28-.11-.08-.07-.11-.16-.11-.26,0-.55.64-1.12,1.91-1.72.1-.05.26-.12.47-.22l.06-.04.73-1.29c-.29.39-.49.65-.62.77s-.26.18-.39.18c-.11,0-.21-.05-.29-.14s-.13-.21-.13-.34c0-.16.1-.4.29-.73l.64-1.07c.06.01.14.02.22.02.07,0,.17,0,.3-.03l-.81,1.32c-.23.37-.35.62-.35.73,0,.12.06.19.17.19.3,0,.75-.53,1.37-1.58l.38-.65c.06.01.14.02.23.02.07,0,.17,0,.28-.03-.34.54-.8,1.34-1.39,2.38.34-.17.62-.36.85-.56s.49-.49.78-.85c.04-.05.06-.07.07-.07.02,0,.02,0,.02.02Zm-2.38,1.79s-.2.1-.47.24c-1.25.62-1.88,1.18-1.88,1.67,0,.21.12.31.35.31.29,0,.58-.16.87-.47s.65-.87,1.07-1.66l.05-.08Z"/>
    </g>
    <g>
      <path class="cls-6" d="m21.51,25.51c.08-.07.17-.1.27-.09.09,0,.18.05.26.14.04.04.07.08.1.12.06.11.13.28.2.5.07.22.15.51.23.85,0,.03.01.05.03.06,0,0,.01,0,.02,0,.01-.01.01-.04,0-.08-.01-.15-.02-.31-.02-.48,0-.17,0-.35,0-.55.02-.53.09-.88.22-1.06.02-.03.04-.05.07-.05.03,0,.06,0,.1,0,.05,0,.09,0,.11.03.03.02.05.04.07.06.01,0,.02.02.03.03,0,0,.01.02.02.03.05.17.09.33.13.49.04.16.09.33.14.49.02.08.06.19.1.33.04.13.1.28.15.44.06.16.12.32.18.48.07.16.13.31.19.44.06.13.12.25.18.33.05.09.1.14.14.15.01,0,.02.01.03.02,0,.01.01.02.02.03.05.05.08.06.11.03.07-.07.11-.28.12-.62,0-.04,0-.06,0-.06,0,0,.01,0,.01,0,0,0,.01.03.02.06.02.07.01.18,0,.33-.02.16-.06.26-.1.31-.02.02-.04.03-.06.03-.03,0-.05,0-.08,0-.03,0-.05-.01-.08-.03-.02-.01-.04-.03-.06-.04-.02-.03-.06-.09-.11-.18-.05-.09-.11-.2-.17-.33-.06-.13-.13-.27-.2-.42-.07-.15-.14-.3-.2-.45-.06-.15-.12-.28-.17-.41-.05-.13-.09-.23-.12-.31l-.34-1.06s-.04-.09-.06-.12c-.03-.03-.07-.03-.11.01-.02.03-.05.06-.07.12-.09.21-.15.52-.17.92,0,.17,0,.33,0,.5,0,.17.01.34.03.52.01.15.03.28.04.39.01.11.03.19.04.26,0,.04,0,.08-.02.1-.02.02-.04.02-.06,0,0,0,0,0-.01-.02,0,0,0-.02-.01-.03-.23-1.04-.42-1.71-.56-1.99-.02-.03-.04-.06-.06-.09-.02-.03-.04-.05-.06-.07-.13-.13-.27-.13-.4-.01-.12.11-.23.33-.33.66-.05.17-.08.33-.11.48-.02.15-.04.31-.04.46,0,.33.05.56.17.67.04.04.09.04.14,0,.03-.02.06-.05.09-.07s.05-.05.07-.08c.02-.02.03-.03.04-.02,0,0,0,.02-.01.05-.04.08-.09.13-.14.17-.09.07-.19.05-.29-.06-.1-.1-.15-.31-.15-.63,0-.16,0-.32.03-.47.02-.16.05-.31.1-.47.05-.17.11-.32.17-.44s.13-.22.21-.29Z"/>
      <path class="cls-6" d="m24.69,25.73c-.03-.07-.09-.17-.16-.29-.03-.05-.06-.09-.08-.13-.02-.03-.04-.06-.06-.08-.01.12-.03.25-.07.41-.04.21-.09.36-.14.46,0,.01-.01.02-.02.02-.01.01-.02.02-.04.02-.02,0-.03,0-.04-.02-.02-.03-.06-.2-.14-.49,0,0-.01-.02-.03-.03-.02-.01-.03-.03-.03-.04,0-.01,0-.05.03-.12.03-.07.04-.11.05-.12.02-.02.04-.02.06,0-.02.04-.01.13,0,.28.02.13.04.22.06.3,0,.01.01.02.02.03.01.01.03.02.04,0,.02-.01.03-.02.04-.04.02-.04.04-.1.06-.16.02-.07.04-.14.06-.24.01-.07.02-.13.03-.19s.01-.1.02-.13c0-.02,0-.03,0-.05,0-.02,0-.03.01-.04.02-.02.04-.04.06-.04.02,0,.04,0,.05.02,0,.01,0,.02,0,.03,0,.01,0,.03.01.04.06.11.15.27.25.49.16-.24.33-.45.51-.64.06-.07.12-.11.16-.14.02-.01.04-.02.06-.03.02,0,.05-.01.07-.01.02,0,.05,0,.07,0,.02,0,.04.02.06.03.02.02.03.03.03.05.01.05.01.13,0,.25,0,.02,0,.03-.01.04,0,0,0,0,0,0,0,0,0-.02,0-.04,0-.15-.01-.24-.07-.3-.04-.04-.1-.03-.17.03-.02.02-.04.04-.07.06-.02.02-.05.05-.08.08-.24.24-.41.46-.53.64.65,1.4.72,2.39.21,2.99-.17.2-.4.33-.67.38-.27.05-.48,0-.63-.13-.05-.05-.08-.1-.11-.16-.12-.31-.02-.84.31-1.57.11-.25.24-.5.37-.74.13-.24.28-.48.44-.72Zm-1.02,3.02s.02.05.04.08c.02.02.03.05.05.07.13.12.31.16.55.12.25-.05.46-.17.63-.36.3-.33.38-.86.23-1.57-.05-.22-.11-.44-.18-.66-.08-.22-.17-.44-.28-.65-.38.57-.67,1.11-.86,1.63-.24.62-.3,1.07-.18,1.35Z"/>
      <path class="cls-6" d="m25.82,24.58c-.21.21-.43.35-.66.42-.25.08-.46.05-.6-.09-.17-.17-.26-.47-.25-.89,0-.37.08-.78.22-1.21.13-.41.28-.72.43-.92.04-.05.08-.1.13-.15.13-.13.24-.2.35-.21v-.07s0-.02.01-.03c.01,0,.02,0,.03,0,0,0,0,.03.01.08.05,0,.11.04.17.1.06.06.11.13.14.21.03.08.05.18.05.3.01.15,0,.3-.05.45,0,0-.02.02-.04.04-.03.02-.05.03-.06.03-.09-.09-.16-.25-.21-.49-.04-.18-.06-.35-.06-.49-.09-.03-.21.03-.35.17-.02.02-.04.04-.06.06-.02.02-.04.05-.06.08-.23.34-.4.8-.5,1.38-.1.61-.07,1.07.1,1.38.03.05.06.09.1.13.12.11.27.15.45.11.21-.05.42-.19.64-.42.12-.13.24-.28.34-.45.1-.16.2-.34.29-.53.08-.18.14-.35.18-.51.04-.16.07-.31.08-.46,0-.02,0-.04.01-.05,0,0,.01,0,.02,0,0,0,0,.02,0,.04,0,.3-.09.64-.25,1.02-.09.2-.18.38-.29.55s-.22.31-.35.44Zm-.09-2.07s.02.02.03.01c.01,0,.02,0,.02-.02.05-.21.04-.4-.03-.58-.01-.04-.03-.07-.05-.1-.02-.03-.04-.06-.07-.08-.04-.04-.09-.07-.13-.08,0,.07,0,.13.01.21,0,.07.03.15.05.24.05.16.1.3.17.4Z"/>
    </g>
  </g>
</svg>