<?xml version="1.0" encoding="UTF-8"?>
<svg xmlns="http://www.w3.org/2000/svg" xmlns:xlink="http://www.w3.org/1999/xlink" viewBox="0 0 32 32">
  <defs>
    <style>
      .cls-1 {
        fill: url(#linear-gradient);
      }

      .cls-1, .cls-2, .cls-3, .cls-4, .cls-5 {
        stroke-width: 0px;
      }

      .cls-2 {
        fill: #fff;
      }

      .cls-3 {
        fill: url(#linear-gradient-2);
      }

      .cls-4 {
        fill: url(#linear-gradient-3);
      }

      .cls-5 {
        fill: blue;
      }
    </style>
    <linearGradient id="linear-gradient" x1="2" y1="16" x2="30" y2="16" gradientUnits="userSpaceOnUse">
      <stop offset="0" stop-color="#ae150b"/>
      <stop offset="1" stop-color="#f33e41"/>
    </linearGradient>
    <linearGradient id="linear-gradient-2" x1="3" x2="29" xlink:href="#linear-gradient"/>
    <linearGradient id="linear-gradient-3" x1="24.51" y1="7.48" x2="26.59" y2="7.48" gradientTransform="translate(4.69 -8.88) rotate(22.19)" gradientUnits="userSpaceOnUse">
      <stop offset="0" stop-color="#fff"/>
      <stop offset=".12" stop-color="#fdeeee"/>
      <stop offset=".37" stop-color="#fac2c3"/>
      <stop offset=".71" stop-color="#f47c7e"/>
      <stop offset="1" stop-color="#f03c3f"/>
    </linearGradient>
  </defs>
  <g id="nen">
    <rect class="cls-2" width="32" height="32" rx="7" ry="7"/>
  </g>
  <g id="trai_tim" data-name="trai tim">
    <path class="cls-1" d="m27.54,4.67c-3.17-3.45-8.26-3.56-11.54-.31-1.59-1.58-3.59-2.36-5.61-2.36-2.15,0-4.29.89-5.93,2.67-3.18,3.44-3.28,8.94-.29,12.51.08.12.18.24.29.35l11.21,12.16c.11.11.21.23.33.31.12-.08.22-.2.32-.31l11.22-12.16c.1-.11.21-.23.29-.35,1.45-1.72,2.17-3.91,2.17-6.08,0-2.33-.82-4.66-2.46-6.43Zm-.14,12.47c-.07.12-.17.23-.27.34l-10.82,11.72c-.1.11-.2.22-.31.3-.11-.08-.21-.19-.31-.3l-10.82-11.72c-.1-.11-.2-.22-.28-.34-2.88-3.45-2.78-8.75.28-12.07,1.58-1.71,3.65-2.57,5.72-2.57,1.95,0,3.88.75,5.41,2.27,3.16-3.13,8.07-3.02,11.13.3,1.58,1.71,2.37,3.96,2.37,6.2,0,2.1-.69,4.21-2.1,5.87Z"/>
    <path class="cls-2" d="m27.13,5.07c-3.06-3.32-7.97-3.43-11.13-.3-1.53-1.52-3.46-2.27-5.41-2.27-2.07,0-4.14.86-5.72,2.57-3.06,3.32-3.16,8.62-.28,12.07.08.12.18.23.28.34l10.82,11.72c.1.11.2.22.31.3.11-.08.21-.19.31-.3l10.82-11.72c.1-.11.2-.22.27-.34,1.41-1.66,2.1-3.77,2.1-5.87,0-2.24-.79-4.49-2.37-6.2Zm-.15,12.02c-.07.12-.17.23-.26.33l-10.42,11.29c-.1.11-.19.21-.3.29-.11-.08-.21-.18-.3-.29l-10.42-11.29c-.09-.1-.19-.21-.26-.33-2.78-3.31-2.69-8.42.26-11.61,1.53-1.65,3.52-2.48,5.51-2.48,1.87,0,3.74.72,5.21,2.19,3.04-3.02,7.77-2.91,10.72.29,1.52,1.65,2.28,3.81,2.28,5.97,0,2.02-.66,4.05-2.02,5.64Z"/>
    <path class="cls-3" d="m29,11.45c0,2.02-.66,4.05-2.02,5.64-.07.12-.17.23-.26.33l-10.42,11.29c-.1.11-.19.21-.3.29-.11-.08-.21-.18-.3-.29l-10.42-11.29c-.09-.1-.19-.21-.26-.33-2.78-3.31-2.69-8.42.26-11.61,1.53-1.65,3.52-2.48,5.51-2.48,1.87,0,3.74.72,5.21,2.19,3.04-3.02,7.77-2.91,10.72.29,1.52,1.65,2.28,3.81,2.28,5.97Z"/>
  </g>
  <g id="trai_tim_nho" data-name="trai tim nho">
    <path class="cls-2" d="m22.96,4.9c-.14-.08-.3-.03-.36.12-.07-.04-.14-.04-.2-.02-.07.02-.12.08-.15.16-.05.15.01.34.15.43,0,0,0,0,.01,0l.49.29s0,0,.01,0c0,0,0,0,0-.01l.19-.54s0-.01,0-.02c.02-.08.02-.16,0-.23-.03-.08-.08-.15-.15-.19Zm.15.43s0,.01,0,.01l-.18.52s0,0,0,.01c0,0,0,0-.01,0l-.47-.28s0,0-.01,0c-.13-.09-.19-.27-.14-.41.03-.08.08-.13.14-.15.06-.02.13-.02.19.02.06-.14.21-.19.34-.11.07.04.12.11.15.19.03.07.03.15,0,.22Z"/>
    <path class="cls-4" d="m26.6,7.81c-.05.12-.15.23-.29.28,0,0-.02,0-.03.01l-1.05.37s-.02,0-.03,0c0,0-.01-.02-.02-.03l-.49-1s0-.02-.01-.03c-.12-.29.01-.6.31-.7.15-.05.32-.05.47.02.14.06.26.16.33.29.3-.09.65.06.79.34.07.15.07.3.02.43Z"/>
  </g>
  <g id="Layer_7_copy" data-name="Layer 7 copy">
    <g>
      <path class="cls-5" d="m21.51,25.51c.08-.07.17-.1.27-.09.09,0,.18.05.26.14.04.04.07.08.1.12.06.11.13.28.2.5.07.22.15.51.23.85,0,.03.01.05.03.06,0,0,.01,0,.02,0,.01-.01.01-.04,0-.08-.01-.15-.02-.31-.02-.48,0-.17,0-.35,0-.55.02-.53.09-.88.22-1.06.02-.03.04-.05.07-.05.03,0,.06,0,.1,0,.05,0,.09,0,.11.03.03.02.05.04.07.06.01,0,.02.02.03.03,0,0,.01.02.02.03.05.17.09.33.13.49.04.16.09.33.14.49.02.08.06.19.1.33.04.13.1.28.15.44.06.16.12.32.18.48.07.16.13.31.19.44.06.13.12.25.18.33.05.09.1.14.14.15.01,0,.02.01.03.02,0,.01.01.02.02.03.05.05.08.06.11.03.07-.07.11-.28.12-.62,0-.04,0-.06,0-.06,0,0,.01,0,.01,0,0,0,.01.03.02.06.02.07.01.18,0,.33-.02.16-.06.26-.1.31-.02.02-.04.03-.06.03-.03,0-.05,0-.08,0-.03,0-.05-.01-.08-.03-.02-.01-.04-.03-.06-.04-.02-.03-.06-.09-.11-.18-.05-.09-.11-.2-.17-.33-.06-.13-.13-.27-.2-.42-.07-.15-.14-.3-.2-.45-.06-.15-.12-.28-.17-.41-.05-.13-.09-.23-.12-.31l-.34-1.06s-.04-.09-.06-.12c-.03-.03-.07-.03-.11.01-.02.03-.05.06-.07.12-.09.21-.15.52-.17.92,0,.17,0,.33,0,.5,0,.17.01.34.03.52.01.15.03.28.04.39.01.11.03.19.04.26,0,.04,0,.08-.02.1-.02.02-.04.02-.06,0,0,0,0,0-.01-.02,0,0,0-.02-.01-.03-.23-1.04-.42-1.71-.56-1.99-.02-.03-.04-.06-.06-.09-.02-.03-.04-.05-.06-.07-.13-.13-.27-.13-.4-.01-.12.11-.23.33-.33.66-.05.17-.08.33-.11.48-.02.15-.04.31-.04.46,0,.33.05.56.17.67.04.04.09.04.14,0,.03-.02.06-.05.09-.07s.05-.05.07-.08c.02-.02.03-.03.04-.02,0,0,0,.02-.01.05-.04.08-.09.13-.14.17-.09.07-.19.05-.29-.06-.1-.1-.15-.31-.15-.63,0-.16,0-.32.03-.47.02-.16.05-.31.1-.47.05-.17.11-.32.17-.44s.13-.22.21-.29Z"/>
      <path class="cls-5" d="m24.69,25.73c-.03-.07-.09-.17-.16-.29-.03-.05-.06-.09-.08-.13-.02-.03-.04-.06-.06-.08-.01.12-.03.25-.07.41-.04.21-.09.36-.14.46,0,.01-.01.02-.02.02-.01.01-.02.02-.04.02-.02,0-.03,0-.04-.02-.02-.03-.06-.2-.14-.49,0,0-.01-.02-.03-.03-.02-.01-.03-.03-.03-.04,0-.01,0-.05.03-.12.03-.07.04-.11.05-.12.02-.02.04-.02.06,0-.02.04-.01.13,0,.28.02.13.04.22.06.3,0,.01.01.02.02.03.01.01.03.02.04,0,.02-.01.03-.02.04-.04.02-.04.04-.1.06-.16.02-.07.04-.14.06-.24.01-.07.02-.13.03-.19s.01-.1.02-.13c0-.02,0-.03,0-.05,0-.02,0-.03.01-.04.02-.02.04-.04.06-.04.02,0,.04,0,.05.02,0,.01,0,.02,0,.03,0,.01,0,.03.01.04.06.11.15.27.25.49.16-.24.33-.45.51-.64.06-.07.12-.11.16-.14.02-.01.04-.02.06-.03.02,0,.05-.01.07-.01.02,0,.05,0,.07,0,.02,0,.04.02.06.03.02.02.03.03.03.05.01.05.01.13,0,.25,0,.02,0,.03-.01.04,0,0,0,0,0,0,0,0,0-.02,0-.04,0-.15-.01-.24-.07-.3-.04-.04-.1-.03-.17.03-.02.02-.04.04-.07.06-.02.02-.05.05-.08.08-.24.24-.41.46-.53.64.65,1.4.72,2.39.21,2.99-.17.2-.4.33-.67.38-.27.05-.48,0-.63-.13-.05-.05-.08-.1-.11-.16-.12-.31-.02-.84.31-1.57.11-.25.24-.5.37-.74.13-.24.28-.48.44-.72Zm-1.02,3.02s.02.05.04.08c.02.02.03.05.05.07.13.12.31.16.55.12.25-.05.46-.17.63-.36.3-.33.38-.86.23-1.57-.05-.22-.11-.44-.18-.66-.08-.22-.17-.44-.28-.65-.38.57-.67,1.11-.86,1.63-.24.62-.3,1.07-.18,1.35Z"/>
      <path class="cls-5" d="m25.82,24.58c-.21.21-.43.35-.66.42-.25.08-.46.05-.6-.09-.17-.17-.26-.47-.25-.89,0-.37.08-.78.22-1.21.13-.41.28-.72.43-.92.04-.05.08-.1.13-.15.13-.13.24-.2.35-.21v-.07s0-.02.01-.03c.01,0,.02,0,.03,0,0,0,0,.03.01.08.05,0,.11.04.17.1.06.06.11.13.14.21.03.08.05.18.05.3.01.15,0,.3-.05.45,0,0-.02.02-.04.04-.03.02-.05.03-.06.03-.09-.09-.16-.25-.21-.49-.04-.18-.06-.35-.06-.49-.09-.03-.21.03-.35.17-.02.02-.04.04-.06.06-.02.02-.04.05-.06.08-.23.34-.4.8-.5,1.38-.1.61-.07,1.07.1,1.38.03.05.06.09.1.13.12.11.27.15.45.11.21-.05.42-.19.64-.42.12-.13.24-.28.34-.45.1-.16.2-.34.29-.53.08-.18.14-.35.18-.51.04-.16.07-.31.08-.46,0-.02,0-.04.01-.05,0,0,.01,0,.02,0,0,0,0,.02,0,.04,0,.3-.09.64-.25,1.02-.09.2-.18.38-.29.55s-.22.31-.35.44Zm-.09-2.07s.02.02.03.01c.01,0,.02,0,.02-.02.05-.21.04-.4-.03-.58-.01-.04-.03-.07-.05-.1-.02-.03-.04-.06-.07-.08-.04-.04-.09-.07-.13-.08,0,.07,0,.13.01.21,0,.07.03.15.05.24.05.16.1.3.17.4Z"/>
    </g>
    <g>
      <path class="cls-2" d="m5.42,10.18c.43.24.85.41,1.24.52.41.11.82.17,1.23.17.62,0,1.13-.12,1.52-.35.38-.23.57-.53.57-.91,0-.17-.05-.33-.15-.49-.11-.16-.32-.37-.65-.65l-.8-.65c-.3-.25-.53-.49-.68-.72-.15-.22-.22-.44-.22-.65,0-.25.11-.52.33-.79.21-.26.51-.49.9-.69.28-.14.59-.26.94-.34.34-.08.69-.12,1.04-.12s.66.07.88.21c.22.14.33.32.33.54,0,.18-.09.38-.26.61-.16.22-.42.48-.78.78l-.62-.27c.37-.22.66-.45.89-.68.21-.22.32-.41.32-.56s-.07-.27-.21-.36c-.14-.08-.34-.12-.61-.12s-.53.03-.81.1c-.27.07-.53.16-.78.29-.33.16-.57.35-.75.55-.18.2-.26.41-.26.63,0,.16.05.32.16.47.12.17.29.35.52.53l1.12.89c.24.2.43.41.56.62.12.22.18.44.18.66,0,.52-.25.92-.75,1.21-.5.29-1.2.43-2.1.43-.44,0-.88-.03-1.32-.1-.42-.06-.89-.16-1.39-.3l.42-.46Zm2.09-1.19c-.04-.33.12-.55.47-.65.16-.04.32-.03.48.04.15.06.26.17.31.32,0,.02.02.08.04.16s0,.17-.05.27c-.14.24-.31.48-.49.71-.19.23-.3.48-.34.73-.14-.21-.35-.38-.62-.49-.27-.11-.52-.24-.75-.38-.1-.06-.16-.13-.19-.2s-.05-.13-.06-.16c-.04-.16,0-.3.1-.43s.23-.22.39-.27c.35-.08.59.04.73.34Zm1.88-3.11c.12-.2.29-.25.52-.16.11.05.19.12.24.22.06.1.07.2.03.3,0,.02-.02.05-.04.11s-.07.09-.15.12c-.18.07-.36.13-.56.18-.2.05-.36.13-.49.25.01-.17-.03-.34-.13-.52s-.18-.35-.25-.53c-.03-.07-.04-.13-.02-.18s.03-.09.04-.11c.1-.22.29-.28.56-.18.22.11.31.27.25.49Z"/>
      <path class="cls-2" d="m13.03,9.8c-.21.42-.43.73-.64.93-.21.2-.44.3-.67.3-.17,0-.3-.05-.4-.15-.1-.1-.15-.24-.15-.41,0-.38.17-.72.5-1.03s.72-.46,1.16-.46c.06,0,.11,0,.16,0,.04,0,.09.02.14.03l-.08.22c-.07-.04-.13-.08-.19-.1s-.11-.03-.16-.03c-.21,0-.42.15-.64.45-.22.3-.33.59-.33.88,0,.11.02.19.07.24s.11.08.19.08c.18,0,.36-.13.55-.38s.43-.7.73-1.33l.57-.03-.5,1.48s-.03.09-.04.13c0,.04-.01.07-.01.09,0,.04.01.07.03.08.02.02.05.03.09.03.06,0,.14-.03.23-.09.1-.06.22-.15.36-.27l.05.09c-.16.16-.31.27-.46.35-.15.08-.29.12-.42.12-.12,0-.22-.03-.28-.09-.06-.06-.1-.14-.1-.26,0-.04.02-.13.06-.28h0s.18-.61.18-.61Z"/>
      <path class="cls-2" d="m14.66,9.03l.51-.04c-.12.4-.21.71-.28.95-.06.24-.09.4-.09.5,0,.11.02.2.07.27.04.06.11.09.19.09.19,0,.39-.17.61-.5.21-.33.37-.76.47-1.27l.36-.04c-.2.59-.46,1.09-.8,1.48-.34.39-.64.59-.91.59-.16,0-.27-.06-.36-.17-.08-.12-.12-.28-.12-.49,0-.14.03-.32.09-.55.06-.23.15-.5.27-.81Z"/>
      <path class="cls-2" d="m18.4,10.46l.05.08c-.21.17-.4.3-.59.38-.19.08-.37.12-.54.12-.22,0-.4-.06-.52-.18-.12-.12-.18-.29-.18-.52,0-.33.16-.64.46-.93.31-.29.65-.43,1.02-.43.19,0,.33.04.44.13.11.09.16.21.16.36,0,.21-.13.39-.39.55-.26.16-.66.31-1.2.44,0,.12.04.22.1.28.06.06.15.09.27.09.13,0,.27-.03.42-.1.16-.07.32-.16.49-.29Zm-1.28-.13c.36-.07.66-.2.88-.38.22-.18.34-.37.34-.57,0-.09-.02-.15-.06-.2s-.1-.07-.18-.07c-.19,0-.38.11-.57.34-.19.23-.33.52-.41.87Z"/>
    </g>
    <g>
      <path class="cls-2" d="m19.04,12.37l1.05-3.69.62-.18-1.61,5.36s-.01.04-.02.07c-.02.07-.03.12-.03.15,0,.02,0,.04.03.06s.04.03.06.03c.12,0,.29-.1.51-.29.05-.04.09-.08.11-.09l.06.09c-.17.17-.32.29-.45.36-.13.07-.25.11-.37.11-.13,0-.24-.03-.31-.09-.07-.06-.11-.15-.11-.26,0-.07.03-.2.09-.39v-.03s.1-.29.1-.29c-.18.34-.39.6-.6.79-.22.18-.44.27-.66.27-.18,0-.32-.05-.42-.15-.1-.1-.14-.24-.14-.44,0-.37.16-.71.48-1.01s.69-.46,1.1-.46c.06,0,.13,0,.2.02.08.01.17.03.29.05Zm-.06.21c-.08-.05-.15-.09-.21-.12-.06-.02-.13-.04-.19-.04-.25,0-.49.14-.71.42-.22.28-.34.59-.34.92,0,.1.02.18.06.24.04.06.09.09.16.09.2,0,.41-.14.64-.41.22-.27.42-.64.59-1.11Z"/>
      <path class="cls-2" d="m21.76,13.1c-.21.42-.43.73-.64.93s-.44.3-.67.3c-.17,0-.3-.05-.4-.15-.1-.1-.15-.24-.15-.41,0-.38.17-.72.5-1.03.33-.31.72-.46,1.16-.46.06,0,.11,0,.16,0,.04,0,.09.02.14.03l-.08.22c-.07-.04-.13-.08-.19-.1-.05-.02-.11-.03-.16-.03-.21,0-.42.15-.64.45s-.33.59-.33.88c0,.11.02.19.07.24s.11.08.19.08c.18,0,.36-.13.55-.38.19-.26.43-.7.73-1.33l.57-.03-.5,1.48s-.03.09-.04.13c0,.04-.01.07-.01.09,0,.04.01.07.03.08.02.02.05.03.09.03.06,0,.14-.03.24-.09.1-.06.22-.15.36-.27l.05.09c-.16.16-.31.27-.46.35-.15.08-.29.12-.42.12s-.22-.03-.28-.09c-.06-.06-.1-.14-.1-.26,0-.04.02-.13.06-.28h0s.18-.61.18-.61Z"/>
      <path class="cls-2" d="m22.92,12h-.25v-.13h.3l.48-1.45.58-.12-.49,1.57h.57v.13h-.59l-.58,1.81s-.03.08-.03.11c0,.03-.01.06-.02.09,0,.04,0,.07.02.09.02.02.04.03.07.03.09,0,.26-.09.5-.27.06-.04.11-.08.14-.1l.06.1c-.21.17-.38.29-.52.37-.14.08-.27.12-.38.12-.12,0-.22-.03-.29-.1-.08-.07-.11-.15-.11-.25,0-.05,0-.1,0-.14s.01-.09.03-.13l.51-1.73Z"/>
      <path class="cls-2" d="m25.83,13.76l.05.08c-.21.17-.41.3-.59.38s-.37.12-.54.12c-.22,0-.39-.06-.51-.18-.12-.12-.18-.29-.18-.52,0-.33.15-.64.46-.93.31-.29.65-.43,1.02-.43.19,0,.33.04.44.13.11.09.16.21.16.37,0,.21-.13.39-.39.55-.26.16-.66.31-1.2.44,0,.12.04.22.1.28.06.06.15.09.27.09.13,0,.27-.03.42-.1.16-.07.32-.16.49-.29Zm-1.28-.13c.36-.07.66-.2.88-.38.23-.18.34-.37.34-.57,0-.09-.02-.15-.06-.2-.04-.05-.1-.07-.18-.07-.19,0-.38.11-.57.34-.19.23-.33.52-.41.87Z"/>
    </g>
    <g>
      <path class="cls-2" d="m8,13.59c0-.31.14-.59.42-.85.28-.26.6-.39.96-.39.24,0,.43.07.58.22.15.15.23.34.23.57,0,.31-.13.59-.4.85-.27.26-.57.38-.9.38-.29,0-.51-.07-.66-.2-.15-.13-.23-.33-.23-.58Zm1.38-1.13c-.08,0-.16.02-.22.05-.06.03-.12.09-.18.16-.13.17-.24.37-.32.6s-.13.44-.13.62c0,.11.03.19.08.26.06.07.13.1.22.1.2,0,.39-.16.57-.48.18-.32.27-.66.27-1.03,0-.08-.03-.15-.09-.21-.06-.06-.12-.09-.2-.09Z"/>
      <path class="cls-2" d="m11.02,12.45l.62-.09-.48,1.48s-.02.08-.03.12-.01.07-.01.1c0,.03.01.05.04.07.02.02.05.03.08.03.17,0,.37-.16.6-.49.23-.33.43-.76.6-1.28h.57l-.45,1.59s-.02.05-.02.07c0,.02,0,.04,0,.06,0,.03,0,.06.02.07.01.01.04.02.07.02.04,0,.11-.03.2-.08.09-.06.21-.14.35-.25l.06.09c-.17.16-.33.27-.46.34s-.26.1-.39.1c-.12,0-.21-.03-.26-.08-.06-.05-.09-.12-.09-.23,0-.03,0-.05,0-.09,0-.03.02-.08.04-.15l.19-.7c-.18.4-.38.7-.59.92-.21.22-.42.32-.63.32-.16,0-.28-.03-.36-.1-.08-.07-.12-.17-.12-.3,0-.04,0-.09.02-.16.02-.06.04-.15.08-.25l.35-1.12Z"/>
      <path class="cls-2" d="m13.36,14.36l.5-1.88.54-.09-.36,1.24c.23-.42.45-.74.65-.95.2-.21.39-.32.56-.32.1,0,.17.03.22.09.05.06.07.15.07.27,0,.06,0,.12-.02.19s-.03.15-.05.25l-.43.07v-.03c.06-.24.09-.39.09-.45,0-.04,0-.07-.03-.09-.02-.03-.04-.04-.06-.04-.14,0-.32.16-.54.48-.22.32-.45.74-.67,1.27h-.47Z"/>
    </g>
    <g>
      <path class="cls-2" d="m9.83,20.04c.1-.05.2-.08.3-.1.1-.02.2-.03.31-.03.26,0,.55.07.85.21s.48.21.55.21c.12,0,.25-.08.39-.24s.22-.24.26-.24c.01,0,.03,0,.03,0s.01.01.01.03c0,.14-.16.34-.48.6s-.63.39-.94.39c-.21,0-.45-.08-.73-.25s-.47-.25-.58-.25c-.14,0-.27.08-.38.24s-.18.24-.2.24-.04,0-.05-.02c-.01,0-.02-.02-.02-.04,0-.03.02-.1.06-.19.04-.09.08-.18.13-.27.14-.23.45-.5.95-.83.1-.07.18-.12.23-.15.6-.4,1.02-.76,1.27-1.07.25-.31.38-.63.38-.95,0-.13-.04-.24-.11-.31s-.18-.11-.33-.11-.28.03-.45.1c-.16.07-.32.16-.48.28-.18.14-.34.3-.46.47-.12.18-.18.32-.18.43,0,.08.02.14.05.18.03.04.08.06.15.06.2,0,.39-.12.58-.37s.29-.37.31-.37.03,0,.04.03.02.04.02.07c0,.09-.11.25-.33.48-.22.23-.43.34-.64.34-.13,0-.22-.03-.28-.09-.06-.06-.09-.16-.09-.28,0-.33.2-.66.59-1,.4-.33.83-.5,1.31-.5.36,0,.65.09.87.27s.33.42.33.71c0,.26-.1.5-.29.71-.19.22-.48.41-.85.57-.12.05-.3.13-.53.22-.74.3-1.26.58-1.56.82Z"/>
      <path class="cls-2" d="m13.23,19.61c0-.36.11-.73.34-1.09.23-.37.56-.72,1-1.08.29-.23.56-.41.83-.53.27-.12.51-.18.73-.18.26,0,.47.09.63.26.15.17.23.4.23.7,0,.33-.1.69-.31,1.07-.21.39-.51.79-.92,1.21-.31.31-.58.54-.83.68-.25.14-.49.21-.73.21-.27,0-.5-.12-.69-.37s-.29-.54-.29-.88Zm2.93-2.69c-.17,0-.36.08-.55.24-.2.16-.38.38-.55.67-.36.59-.64,1.1-.85,1.54s-.31.74-.31.91c0,.13.03.23.1.3.07.07.17.1.3.1.17,0,.36-.07.56-.22.2-.15.41-.36.63-.64.33-.43.6-.87.81-1.31.21-.45.31-.8.31-1.05,0-.18-.04-.32-.11-.41-.07-.09-.19-.13-.34-.13Z"/>
      <path class="cls-2" d="m16.64,21.63l4.14-6.4h.32l-4.14,6.4h-.32Z"/>
      <path class="cls-2" d="m22.24,18.72c.27.09.47.2.59.33.12.13.19.3.19.5,0,.35-.2.66-.6.92-.4.26-.89.39-1.47.39-.39,0-.71-.08-.96-.25-.25-.17-.37-.38-.37-.64,0-.17.05-.31.16-.43.1-.12.23-.18.37-.18.11,0,.2.04.27.11.07.07.11.17.11.28,0,.18-.09.31-.26.39-.17.08-.26.14-.26.18,0,.08.07.16.21.24.14.08.31.11.49.11.2,0,.4-.05.58-.16.19-.11.35-.26.5-.47.12-.16.22-.34.29-.53s.11-.33.11-.44c0-.08-.02-.14-.07-.19s-.11-.07-.18-.07c-.04,0-.11,0-.19.02-.08.01-.15.02-.19.02-.07,0-.12-.01-.15-.03-.03-.02-.05-.06-.05-.1s.02-.08.05-.11c.03-.03.07-.04.12-.04.04,0,.12.01.21.04s.18.04.24.04c.24,0,.49-.15.74-.46.26-.3.39-.59.39-.85,0-.15-.04-.25-.13-.32s-.23-.1-.42-.1c-.35,0-.67.09-.94.28-.27.19-.41.39-.41.61,0,.08.02.15.07.19.04.05.11.07.19.07.15,0,.29-.11.42-.32.12-.22.2-.32.21-.32.02,0,.04,0,.05.02.01.01.02.03.02.04,0,.13-.08.28-.23.47-.16.19-.32.28-.48.28-.13,0-.23-.04-.31-.12-.08-.08-.12-.19-.12-.32,0-.27.16-.51.47-.72.31-.21.69-.32,1.12-.32.35,0,.63.08.85.24.22.16.33.36.33.59,0,.29-.13.53-.4.72-.27.19-.66.34-1.19.43Z"/>
    </g>
  </g>
</svg>