<?xml version="1.0" encoding="UTF-8"?>
<svg id="comment" xmlns="http://www.w3.org/2000/svg" viewBox="0 0 120 120">
  <defs>
    <style>
      .cls-1 {
        fill: none;
      }

      .cls-1, .cls-2 {
        stroke-width: 0px;
      }

      .cls-2 {
        fill: #fff;
      }
    </style>
  </defs>
  <path class="cls-2" d="m104.61,4.72H15.39c-3.81,0-6.89,3.09-6.89,6.89v71.14c0,3.81,3.08,6.89,6.89,6.89h89.22c3.81,0,6.89-3.08,6.89-6.89V11.61c0-3.8-3.08-6.89-6.89-6.89Zm-4.61,68.47c0,1.1-.9,2-2,2H22c-1.1,0-2-.9-2-2v-5.75c0-1.1.9-2,2-2h76c1.1,0,2,.9,2,2v5.75Zm0-23.13c0,1.1-.9,2-2,2H22c-1.1,0-2-.9-2-2v-5.75c0-1.11.9-2,2-2h76c1.1,0,2,.89,2,2v5.75Zm0-23.14c0,1.11-.9,2-2,2H22c-1.1,0-2-.89-2-2v-5.75c0-1.1.9-2,2-2h76c1.1,0,2,.9,2,2v5.75Z"/>
  <polygon class="cls-2" points="44 88.57 20 114.21 20 88.57 44 88.57"/>
  <line class="cls-1" x1="44" y1="89.64" x2="20" y2="115.28"/>
</svg>