<?xml version="1.0" encoding="UTF-8"?>
<svg id="call" xmlns="http://www.w3.org/2000/svg" viewBox="0 0 120 120">
  <defs>
    <style>
      .cls-1 {
        fill: #34c153;
      }

      .cls-1, .cls-2 {
        stroke-width: 0px;
      }

      .cls-2 {
        fill: #fff;
      }
    </style>
  </defs>
  <circle class="cls-1" cx="60" cy="60" r="60"/>
  <path class="cls-2" d="m93.8,75.92c.05.71.04,1.43.02,2.13-.06,2.06-.12,4.12-.18,6.18-.03.96-.07,1.96-.49,2.83-.55,1.12-1.66,1.84-2.75,2.45-9.45,5.24-20.89,5.58-30.87,1.62-8.68-3.44-16.03-9.79-21.53-17.33-7.54-10.35-11.75-23.1-11.84-35.91-.01-1.64.05-3.32.69-4.83,1.27-3.01,4.33-4.36,6.67-6.38,1.47-1.28,3.72-.73,5.01,1.21,2.55,3.82,5.11,7.65,7.66,11.47,1.29,1.94,1.15,4.55-.33,5.82l-5.47,4.72c.2.63.41,1.26.64,1.89,6.03,16.73,20.04,27.66,33.93,27.83l.15-7.29c.05-2.29,1.67-3.84,3.63-3.46,3.26.63,6.59.98,9.84,1.65,1.7.36,3.45,1.1,4.39,2.56.54.84.76,1.82.84,2.84Z"/>
</svg>