<?xml version="1.0" encoding="UTF-8"?>
<svg id="map" xmlns="http://www.w3.org/2000/svg" viewBox="0 0 120 120">
  <defs>
    <style>
      .cls-1 {
        fill: #4285f4;
      }

      .cls-1, .cls-2, .cls-3, .cls-4, .cls-5 {
        stroke-width: 0px;
      }

      .cls-2 {
        fill: #ea4335;
      }

      .cls-3 {
        fill: #34a853;
      }

      .cls-4 {
        fill: #1a73e8;
      }

      .cls-5 {
        fill: #fbbc04;
      }
    </style>
  </defs>
  <g id="google_maps_2020" data-name="google maps 2020">
    <path class="cls-4" d="m72.69,1.99c-3.99-1.27-8.34-1.99-12.78-1.99-12.78,0-24.29,5.8-31.99,14.95l19.76,16.59L72.69,1.99Z"/>
    <path class="cls-2" d="m27.92,14.95c-6.07,7.25-9.79,16.68-9.79,26.83,0,7.89,1.54,14.23,4.17,19.94l25.38-30.18S27.92,14.95,27.92,14.95Z"/>
    <path class="cls-1" d="m60,25.83c8.88,0,16.04,7.16,16.04,16.04,0,3.9-1.45,7.52-3.81,10.33,0,0,12.6-15.05,24.92-29.64-5.08-9.79-13.87-17.22-24.47-20.57l-25.02,29.55c2.99-3.44,7.34-5.71,12.33-5.71"/>
    <path class="cls-5" d="m60,57.82c-8.88,0-16.04-7.16-16.04-16.04,0-3.9,1.36-7.52,3.72-10.24l-25.38,30.18c4.35,9.61,11.6,17.4,19.03,27.1l30.91-36.71c-2.99,3.53-7.34,5.71-12.24,5.71"/>
    <path class="cls-3" d="m71.69,98.97c13.96-21.84,30.18-31.72,30.18-57.1,0-6.98-1.72-13.5-4.71-19.31l-55.83,66.25c2.36,3.08,4.8,6.62,7.16,10.24,8.52,13.14,6.16,20.94,11.6,20.94s3.08-7.89,11.6-21.03"/>
  </g>
</svg>