<?xml version="1.0" encoding="UTF-8"?>
<svg id="zalo" xmlns="http://www.w3.org/2000/svg" viewBox="0 0 120 120">
  <defs>
    <style>
      .cls-1, .cls-2 {
        fill: #0068ff;
      }

      .cls-1, .cls-2, .cls-3, .cls-4 {
        stroke-width: 0px;
      }

      .cls-2, .cls-3, .cls-4 {
        fill-rule: evenodd;
      }

      .cls-3 {
        fill: #fff;
      }

      .cls-4 {
        fill: #001a33;
        isolation: isolate;
        opacity: .12;
      }
    </style>
  </defs>
  <g id="zalo-2" data-name="zalo">
    <path class="cls-2" d="m54.56.4h10.64c14.61,0,23.14,2.15,30.72,6.21,7.58,4.06,13.56,10,17.57,17.57,4.06,7.58,6.21,16.11,6.21,30.72v10.59c0,14.61-2.15,23.14-6.21,30.72-4.06,7.58-10,13.56-17.57,17.57-7.58,4.06-16.11,6.21-30.72,6.21h-10.59c-14.61,0-23.14-2.15-30.72-6.21-7.58-4.06-13.56-10-17.57-17.57C2.25,88.64.1,80.1.1,65.49v-10.59C.1,40.3,2.25,31.76,6.31,24.18c4.06-7.58,10-13.56,17.57-17.57C31.41,2.55,40,.4,54.56.4Z"/>
    <path class="cls-4" d="m119.7,63.75v1.75c0,14.61-2.15,23.14-6.21,30.72-4.06,7.58-10,13.56-17.57,17.57-7.58,4.06-16.11,6.21-30.72,6.21h-10.59c-11.95,0-19.84-1.44-26.46-4.18l-10.92-11.25,102.48-40.82Z"/>
    <path class="cls-3" d="m18.43,104.96c5.59.62,12.59-.98,17.55-3.39,21.56,11.92,55.27,11.35,75.67-1.71.79-1.19,1.53-2.42,2.22-3.7,4.08-7.61,6.23-16.17,6.23-30.83v-10.63c0-14.66-2.15-23.23-6.23-30.83-4.03-7.61-10.03-13.56-17.64-17.64C88.63,2.15,80.06,0,65.4,0h-10.67C42.24,0,34.13,1.57,27.32,4.57c-.37.33-.74.67-1.1,1.02C6.24,24.85,4.72,66.6,21.67,89.28c.02.03.04.07.06.1,2.61,3.85.09,10.58-3.85,14.52-.64.6-.41.96.55,1.05Z"/>
    <path id="o" class="cls-1" d="m97.19,47.24c-6.35,0-11.5,5.16-11.5,11.5s5.16,11.5,11.5,11.5,11.5-5.16,11.5-11.5-5.16-11.5-11.5-11.5Zm0,18.31c-3.74,0-6.76-3.01-6.76-6.76s3.01-6.76,6.76-6.76,6.76,3.01,6.76,6.76-3.01,6.76-6.76,6.76Z"/>
    <path id="l" class="cls-1" d="m79.02,70.06h3.33v-29.12h-5.02v27.43c0,.91.73,1.69,1.69,1.69Z"/>
    <g id="a">
      <path class="cls-1" d="m61.86,47.42c-6.3,0-11.41,5.11-11.41,11.41s5.11,11.41,11.41,11.41,11.41-5.11,11.41-11.41c.05-6.3-5.07-11.41-11.41-11.41Zm0,18.12c-3.7,0-6.71-3.01-6.71-6.71s3.01-6.71,6.71-6.71,6.71,3.01,6.71,6.71-2.97,6.71-6.71,6.71Z"/>
      <path class="cls-1" d="m70.63,70.06h2.69v-22h-4.7v20.04c0,1.05.91,1.96,2.01,1.96Z"/>
    </g>
    <path id="Z" class="cls-1" d="m49.22,40.94h-23.42v5.02h16.25l-16.02,19.86c-.5.73-.87,1.42-.87,2.97v1.28h22.09c1.1,0,2.01-.91,2.01-2.01v-2.69h-17.07l15.06-18.9c.23-.27.64-.78.82-1l.09-.14c.87-1.28,1.05-2.37,1.05-3.7v-.68Z"/>
  </g>
</svg>